<svg xmlns="http://www.w3.org/2000/svg" width="430" height="125" viewBox="0 0 430 125" fill="none">
    <mask id="path-1-inside-1_24284_8189" fill="white">
        <path d="M367.5 0C402.018 0 430 27.9822 430 62.5C430 97.0177 402.018 125 367.5 125C358.816 125 350.545 123.228 343.03 120.027C339.188 118.391 334.812 118.391 330.97 120.027C323.454 123.228 315.184 125 306.5 125C297.816 125 289.545 123.228 282.03 120.027C278.188 118.391 273.812 118.391 269.97 120.027C262.454 123.228 254.184 125 245.5 125C236.816 125 228.545 123.228 221.03 120.027C217.188 118.391 212.812 118.391 208.97 120.027C201.455 123.228 193.184 125 184.5 125C175.816 125 167.545 123.228 160.03 120.027C156.188 118.391 151.812 118.391 147.97 120.027C140.455 123.228 132.184 125 123.5 125C114.816 125 106.545 123.228 99.0303 120.027C95.1882 118.391 90.8118 118.391 86.9697 120.027C79.4545 123.228 71.1842 125 62.5 125C27.9823 125 8.72036e-05 97.0177 0 62.5C0 27.9822 27.9822 5.25219e-05 62.5 0C71.1841 0 79.4545 1.77118 86.9698 4.97192C90.8118 6.60827 95.1881 6.60826 99.0302 4.97191C106.545 1.77116 114.816 1.29686e-05 123.5 0C132.184 0 140.455 1.77118 147.97 4.97192C151.812 6.60826 156.188 6.60826 160.03 4.97191C167.545 1.77116 175.816 1.34873e-05 184.5 0C193.184 0 201.455 1.77118 208.97 4.97192C212.812 6.60827 217.188 6.60826 221.03 4.97191C228.545 1.77116 236.816 1.24498e-05 245.5 0C254.184 0 262.454 1.77118 269.97 4.97192C273.812 6.60826 278.188 6.60826 282.03 4.97191C289.545 1.77116 297.816 1.24498e-05 306.5 0C315.184 0 323.454 1.77118 330.97 4.97192C334.812 6.60826 339.188 6.60826 343.03 4.97191C350.545 1.77116 358.816 1.24498e-05 367.5 0Z"/>
    </mask>
    <path d="M367.5 0C402.018 0 430 27.9822 430 62.5C430 97.0177 402.018 125 367.5 125C358.816 125 350.545 123.228 343.03 120.027C339.188 118.391 334.812 118.391 330.97 120.027C323.454 123.228 315.184 125 306.5 125C297.816 125 289.545 123.228 282.03 120.027C278.188 118.391 273.812 118.391 269.97 120.027C262.454 123.228 254.184 125 245.5 125C236.816 125 228.545 123.228 221.03 120.027C217.188 118.391 212.812 118.391 208.97 120.027C201.455 123.228 193.184 125 184.5 125C175.816 125 167.545 123.228 160.03 120.027C156.188 118.391 151.812 118.391 147.97 120.027C140.455 123.228 132.184 125 123.5 125C114.816 125 106.545 123.228 99.0303 120.027C95.1882 118.391 90.8118 118.391 86.9697 120.027C79.4545 123.228 71.1842 125 62.5 125C27.9823 125 8.72036e-05 97.0177 0 62.5C0 27.9822 27.9822 5.25219e-05 62.5 0C71.1841 0 79.4545 1.77118 86.9698 4.97192C90.8118 6.60827 95.1881 6.60826 99.0302 4.97191C106.545 1.77116 114.816 1.29686e-05 123.5 0C132.184 0 140.455 1.77118 147.97 4.97192C151.812 6.60826 156.188 6.60826 160.03 4.97191C167.545 1.77116 175.816 1.34873e-05 184.5 0C193.184 0 201.455 1.77118 208.97 4.97192C212.812 6.60827 217.188 6.60826 221.03 4.97191C228.545 1.77116 236.816 1.24498e-05 245.5 0C254.184 0 262.454 1.77118 269.97 4.97192C273.812 6.60826 278.188 6.60826 282.03 4.97191C289.545 1.77116 297.816 1.24498e-05 306.5 0C315.184 0 323.454 1.77118 330.97 4.97192C334.812 6.60826 339.188 6.60826 343.03 4.97191C350.545 1.77116 358.816 1.24498e-05 367.5 0Z" fill="white"/>
    <path d="M367.5 0V-3V0ZM430 62.5L433 62.5V62.5H430ZM367.5 125V128V125ZM343.03 120.027L341.855 122.787L343.03 120.027ZM330.97 120.027L332.145 122.787L330.97 120.027ZM306.5 125V128V125ZM282.03 120.027L280.855 122.787L282.03 120.027ZM269.97 120.027L271.145 122.787L269.97 120.027ZM245.5 125V128V125ZM221.03 120.027L219.855 122.787V122.787L221.03 120.027ZM208.97 120.027L210.145 122.787V122.787L208.97 120.027ZM184.5 125V128V125ZM160.03 120.027L158.855 122.787V122.787L160.03 120.027ZM147.97 120.027L146.794 117.267L147.97 120.027ZM123.5 125L123.5 128H123.5V125ZM99.0303 120.027L97.8546 122.787H97.8546L99.0303 120.027ZM86.9697 120.027L88.1454 122.787L86.9697 120.027ZM62.5 125L62.5 128H62.5V125ZM0 62.5H-3V62.5L0 62.5ZM62.5 0V-3H62.5L62.5 0ZM86.9698 4.97192L88.1453 2.21183L88.1453 2.21183L86.9698 4.97192ZM99.0302 4.97191L100.206 7.73201V7.73201L99.0302 4.97191ZM123.5 0V-3H123.5L123.5 0ZM147.97 4.97192L146.794 7.73202V7.73202L147.97 4.97192ZM160.03 4.97191L158.855 2.21181L158.855 2.21182L160.03 4.97191ZM184.5 0V-3V0ZM208.97 4.97192L207.794 7.73202V7.73202L208.97 4.97192ZM221.03 4.97191L219.855 2.21182L219.855 2.21182L221.03 4.97191ZM245.5 0V-3V0ZM269.97 4.97192L268.794 7.73202L268.794 7.73202L269.97 4.97192ZM282.03 4.97191L283.206 7.73201L283.206 7.73201L282.03 4.97191ZM306.5 0V-3V0ZM330.97 4.97192L329.794 7.73202L329.794 7.73202L330.97 4.97192ZM343.03 4.97191L344.206 7.73201L344.206 7.73201L343.03 4.97191ZM367.5 0V3C400.361 3 427 29.6391 427 62.5H430H433C433 26.3253 403.675 -3 367.5 -3V0ZM430 62.5L427 62.5C427 95.3609 400.361 122 367.5 122V125V128C403.675 128 433 98.6746 433 62.5L430 62.5ZM367.5 125V122C359.227 122 351.356 120.313 344.206 117.267L343.03 120.027L341.855 122.787C349.735 126.144 358.404 128 367.5 128V125ZM343.03 120.027L344.206 117.267C339.613 115.311 334.387 115.311 329.794 117.267L330.97 120.027L332.145 122.787C335.236 121.471 338.764 121.471 341.855 122.787L343.03 120.027ZM330.97 120.027L329.794 117.267C322.644 120.313 314.773 122 306.5 122V125V128C315.596 128 324.265 126.144 332.145 122.787L330.97 120.027ZM306.5 125V122C298.227 122 290.356 120.313 283.206 117.267L282.03 120.027L280.855 122.787C288.735 126.144 297.404 128 306.5 128V125ZM282.03 120.027L283.206 117.267C278.613 115.311 273.387 115.311 268.794 117.267L269.97 120.027L271.145 122.787C274.236 121.471 277.764 121.471 280.855 122.787L282.03 120.027ZM269.97 120.027L268.794 117.267C261.644 120.313 253.773 122 245.5 122V125V128C254.596 128 263.265 126.144 271.145 122.787L269.97 120.027ZM245.5 125V122C237.227 122 229.356 120.313 222.206 117.267L221.03 120.027L219.855 122.787C227.735 126.144 236.404 128 245.5 128V125ZM221.03 120.027L222.206 117.267C217.613 115.311 212.387 115.311 207.794 117.267L208.97 120.027L210.145 122.787C213.236 121.471 216.764 121.471 219.855 122.787L221.03 120.027ZM208.97 120.027L207.794 117.267C200.644 120.313 192.773 122 184.5 122V125V128C193.596 128 202.265 126.144 210.145 122.787L208.97 120.027ZM184.5 125V122C176.227 122 168.356 120.313 161.206 117.267L160.03 120.027L158.855 122.787C166.735 126.144 175.404 128 184.5 128V125ZM160.03 120.027L161.206 117.267C156.613 115.311 151.387 115.311 146.794 117.267L147.97 120.027L149.145 122.787C152.236 121.471 155.764 121.471 158.855 122.787L160.03 120.027ZM147.97 120.027L146.794 117.267C139.644 120.313 131.773 122 123.5 122V125V128C132.596 128 141.265 126.144 149.145 122.787L147.97 120.027ZM123.5 125L123.5 122C115.227 122 107.356 120.313 100.206 117.267L99.0303 120.027L97.8546 122.787C105.735 126.144 114.404 128 123.5 128L123.5 125ZM99.0303 120.027L100.206 117.267C95.6127 115.311 90.3873 115.311 85.7941 117.267L86.9697 120.027L88.1454 122.787C91.2363 121.471 94.7637 121.471 97.8546 122.787L99.0303 120.027ZM86.9697 120.027L85.7941 117.267C78.6437 120.313 70.7727 122 62.5 122V125V128C71.5956 128 80.2653 126.144 88.1454 122.787L86.9697 120.027ZM62.5 125L62.5 122C29.6392 122 3.00008 95.3608 3 62.5L0 62.5L-3 62.5C-2.99991 98.6745 26.3254 128 62.5 128L62.5 125ZM0 62.5H3C3 29.6391 29.6391 3.00005 62.5 3L62.5 0L62.5 -3C26.3254 -2.99994 -3 26.3254 -3 62.5H0ZM62.5 0V3C70.7728 3 78.6439 4.68669 85.7942 7.73202L86.9698 4.97192L88.1453 2.21183C80.2651 -1.14433 71.5954 -3 62.5 -3V0ZM86.9698 4.97192L85.7942 7.73202C90.3874 9.68823 95.6126 9.68822 100.206 7.73201L99.0302 4.97191L97.8547 2.21182C94.7637 3.52829 91.2363 3.5283 88.1453 2.21183L86.9698 4.97192ZM99.0302 4.97191L100.206 7.73201C107.356 4.68667 115.227 3.00001 123.5 3L123.5 0L123.5 -3C114.405 -2.99999 105.735 -1.14434 97.8547 2.21182L99.0302 4.97191ZM123.5 0V3C131.773 3 139.644 4.68669 146.794 7.73202L147.97 4.97192L149.145 2.21182C141.265 -1.14433 132.595 -3 123.5 -3V0ZM147.97 4.97192L146.794 7.73202C151.387 9.68823 156.613 9.68822 161.206 7.73201L160.03 4.97191L158.855 2.21182C155.764 3.52829 152.236 3.5283 149.145 2.21182L147.97 4.97192ZM160.03 4.97191L161.206 7.73201C168.356 4.68667 176.227 3.00001 184.5 3V0V-3C175.405 -2.99999 166.735 -1.14434 158.855 2.21181L160.03 4.97191ZM184.5 0V3C192.773 3 200.644 4.68669 207.794 7.73202L208.97 4.97192L210.145 2.21183C202.265 -1.14433 193.595 -3 184.5 -3V0ZM208.97 4.97192L207.794 7.73202C212.387 9.68823 217.613 9.68823 222.206 7.73201L221.03 4.97191L219.855 2.21182C216.764 3.52829 213.236 3.5283 210.145 2.21183L208.97 4.97192ZM221.03 4.97191L222.206 7.73201C229.356 4.68667 237.227 3.00001 245.5 3V0V-3C236.405 -2.99999 227.735 -1.14434 219.855 2.21182L221.03 4.97191ZM245.5 0V3C253.773 3 261.644 4.68669 268.794 7.73202L269.97 4.97192L271.145 2.21182C263.265 -1.14433 254.595 -3 245.5 -3V0ZM269.97 4.97192L268.794 7.73202C273.387 9.68823 278.613 9.68822 283.206 7.73201L282.03 4.97191L280.855 2.21181C277.764 3.52829 274.236 3.5283 271.145 2.21182L269.97 4.97192ZM282.03 4.97191L283.206 7.73201C290.356 4.68667 298.227 3.00001 306.5 3V0V-3C297.405 -2.99999 288.735 -1.14434 280.855 2.21182L282.03 4.97191ZM306.5 0V3C314.773 3 322.644 4.68669 329.794 7.73202L330.97 4.97192L332.145 2.21182C324.265 -1.14433 315.595 -3 306.5 -3V0ZM330.97 4.97192L329.794 7.73202C334.387 9.68823 339.613 9.68822 344.206 7.73201L343.03 4.97191L341.855 2.21181C338.764 3.52829 335.236 3.5283 332.145 2.21182L330.97 4.97192ZM343.03 4.97191L344.206 7.73201C351.356 4.68667 359.227 3.00001 367.5 3V0V-3C358.405 -2.99999 349.735 -1.14434 341.855 2.21182L343.03 4.97191Z" fill="#F4F6FA" mask="url(#path-1-inside-1_24284_8189)"/>
</svg>