<svg xmlns="http://www.w3.org/2000/svg" width="322" height="125" viewBox="0 0 322 125" fill="none">
    <mask id="path-1-inside-1_24284_8201" fill="white">
        <path d="M91.0437 0C95.2641 0 99.1746 2.21727 101.342 5.83887L108.683 18.1073C110.235 20.7022 113.995 20.7022 115.547 18.1073L122.888 5.83887C125.055 2.21727 128.966 0 133.186 0H192.554C196.775 0 200.685 2.21727 202.852 5.83887L208.253 14.8653C209.834 17.5085 213.684 17.4475 215.181 14.7555L219.956 6.16895C222.073 2.36143 226.087 0.000151613 230.443 0H309.229C316.802 0.000212883 322.481 6.92813 320.996 14.3535L300.796 115.354C299.674 120.962 294.749 125 289.029 125H230.189C225.969 125 222.058 122.783 219.891 119.161L214.49 110.135C212.909 107.492 209.058 107.553 207.562 110.245L202.789 118.831C200.672 122.639 196.657 125 192.301 125H133.44C129.084 125 125.07 122.639 122.953 118.831L115.611 105.626C114.087 102.884 110.143 102.884 108.619 105.626L101.277 118.831C99.1601 122.639 95.1463 125 90.7898 125H12.0047C4.43211 125 -1.24801 118.072 0.237089 110.646L20.4373 9.64648C21.5591 4.03757 26.4839 0.000158744 32.2039 0H91.0437Z"/>
    </mask>
    <path d="M91.0437 0C95.2641 0 99.1746 2.21727 101.342 5.83887L108.683 18.1073C110.235 20.7022 113.995 20.7022 115.547 18.1073L122.888 5.83887C125.055 2.21727 128.966 0 133.186 0H192.554C196.775 0 200.685 2.21727 202.852 5.83887L208.253 14.8653C209.834 17.5085 213.684 17.4475 215.181 14.7555L219.956 6.16895C222.073 2.36143 226.087 0.000151613 230.443 0H309.229C316.802 0.000212883 322.481 6.92813 320.996 14.3535L300.796 115.354C299.674 120.962 294.749 125 289.029 125H230.189C225.969 125 222.058 122.783 219.891 119.161L214.49 110.135C212.909 107.492 209.058 107.553 207.562 110.245L202.789 118.831C200.672 122.639 196.657 125 192.301 125H133.44C129.084 125 125.07 122.639 122.953 118.831L115.611 105.626C114.087 102.884 110.143 102.884 108.619 105.626L101.277 118.831C99.1601 122.639 95.1463 125 90.7898 125H12.0047C4.43211 125 -1.24801 118.072 0.237089 110.646L20.4373 9.64648C21.5591 4.03757 26.4839 0.000158744 32.2039 0H91.0437Z" fill="white"/>
    <path d="M101.342 5.83887L98.7672 7.37921L98.7672 7.37925L101.342 5.83887ZM108.683 18.1073L106.108 19.6477L106.108 19.6477L108.683 18.1073ZM115.547 18.1073L118.122 19.6477H118.122L115.547 18.1073ZM122.888 5.83887L125.463 7.37925L125.463 7.37921L122.888 5.83887ZM202.852 5.83887L205.427 4.29859L205.427 4.29852L202.852 5.83887ZM208.253 14.8653L210.827 13.3251V13.325L208.253 14.8653ZM215.181 14.7555L212.559 13.2976V13.2976L215.181 14.7555ZM219.956 6.16895L222.578 7.62685L222.578 7.62675L219.956 6.16895ZM230.443 0V-3H230.443L230.443 0ZM309.229 0L309.229 -3H309.229V0ZM320.996 14.3535L323.938 14.9419V14.9419L320.996 14.3535ZM300.796 115.354L303.737 115.942V115.942L300.796 115.354ZM289.029 125V128H289.029L289.029 125ZM230.189 125L230.189 128H230.189V125ZM219.891 119.161L222.466 117.621L222.466 117.621L219.891 119.161ZM214.49 110.135L211.916 111.675L214.49 110.135ZM207.562 110.245L210.184 111.703L210.184 111.703L207.562 110.245ZM202.789 118.831L205.411 120.289L205.411 120.289L202.789 118.831ZM192.301 125V128V125ZM133.44 125L133.44 128H133.44V125ZM122.953 118.831L120.331 120.289L120.331 120.289L122.953 118.831ZM115.611 105.626L112.989 107.084L115.611 105.626ZM108.619 105.626L105.997 104.168L108.619 105.626ZM101.277 118.831L103.899 120.289L103.899 120.289L101.277 118.831ZM90.7898 125V128H90.7899L90.7898 125ZM0.237089 110.646L-2.70465 110.058L-2.70465 110.058L0.237089 110.646ZM20.4373 9.64648L17.4955 9.05811L17.4955 9.05813L20.4373 9.64648ZM32.2039 0V-3H32.2038L32.2039 0ZM91.0437 0V3C94.209 3 97.142 4.66301 98.7672 7.37921L101.342 5.83887L103.916 4.29852C101.207 -0.228468 96.3192 -3 91.0437 -3V0ZM101.342 5.83887L98.7672 7.37925L106.108 19.6477L108.683 18.1073L111.257 16.567L103.916 4.29848L101.342 5.83887ZM108.683 18.1073L106.108 19.6477C108.825 24.1887 115.405 24.1888 118.122 19.6477L115.547 18.1073L112.973 16.567C112.585 17.2157 111.645 17.2157 111.257 16.5669L108.683 18.1073ZM115.547 18.1073L118.122 19.6477L125.463 7.37925L122.888 5.83887L120.314 4.29848L112.973 16.567L115.547 18.1073ZM122.888 5.83887L125.463 7.37921C127.088 4.66301 130.021 3 133.186 3V0V-3C127.911 -3 123.023 -0.228467 120.314 4.29852L122.888 5.83887ZM133.186 0V3H192.554V0V-3H133.186V0ZM192.554 0V3C195.72 3 198.653 4.66301 200.278 7.37921L202.852 5.83887L205.427 4.29852C202.718 -0.228469 197.83 -3 192.554 -3V0ZM202.852 5.83887L200.278 7.37915L205.678 16.4056L208.253 14.8653L210.827 13.325L205.427 4.29859L202.852 5.83887ZM208.253 14.8653L205.678 16.4056C208.446 21.0312 215.184 20.9244 217.803 16.2134L215.181 14.7555L212.559 13.2976C212.185 13.9706 211.223 13.9858 210.827 13.3251L208.253 14.8653ZM215.181 14.7555L217.803 16.2134L222.578 7.62685L219.956 6.16895L217.334 4.71104L212.559 13.2976L215.181 14.7555ZM219.956 6.16895L222.578 7.62675C224.166 4.77099 227.176 3.00011 230.443 3L230.443 0L230.443 -3C224.997 -2.99981 219.98 -0.0481302 217.334 4.71114L219.956 6.16895ZM230.443 0V3H309.229V0V-3H230.443V0ZM309.229 0L309.229 3C314.908 3.00016 319.168 8.19608 318.054 13.7652L320.996 14.3535L323.938 14.9419C325.794 5.66017 318.695 -2.99973 309.229 -3L309.229 0ZM320.996 14.3535L318.054 13.7652L297.854 114.765L300.796 115.354L303.737 115.942L323.938 14.9419L320.996 14.3535ZM300.796 115.354L297.854 114.765C297.013 118.972 293.319 122 289.029 122L289.029 125L289.029 128C296.179 128 302.335 122.953 303.737 115.942L300.796 115.354ZM289.029 125V122H230.189V125V128H289.029V125ZM230.189 125L230.189 122C227.024 122 224.091 120.337 222.466 117.621L219.891 119.161L217.317 120.701C220.026 125.228 224.914 128 230.189 128L230.189 125ZM219.891 119.161L222.466 117.621L217.065 108.594L214.49 110.135L211.916 111.675L217.317 120.702L219.891 119.161ZM214.49 110.135L217.065 108.594C214.297 103.969 207.559 104.076 204.94 108.788L207.562 110.245L210.184 111.703C210.558 111.03 211.521 111.014 211.916 111.675L214.49 110.135ZM207.562 110.245L204.94 108.788L200.167 117.373L202.789 118.831L205.411 120.289L210.184 111.703L207.562 110.245ZM202.789 118.831L200.167 117.373C198.579 120.229 195.568 122 192.301 122V125V128C197.746 128 202.765 125.048 205.411 120.289L202.789 118.831ZM192.301 125V122H133.44V125V128H192.301V125ZM133.44 125L133.44 122C130.173 122 127.163 120.229 125.575 117.373L122.953 118.831L120.331 120.289C122.977 125.048 127.994 128 133.44 128L133.44 125ZM122.953 118.831L125.575 117.373L118.233 104.168L115.611 105.626L112.989 107.084L120.331 120.289L122.953 118.831ZM115.611 105.626L118.233 104.168C115.565 99.37 108.665 99.3701 105.997 104.168L108.619 105.626L111.241 107.084C111.622 106.398 112.608 106.398 112.989 107.084L115.611 105.626ZM108.619 105.626L105.997 104.168L98.6551 117.373L101.277 118.831L103.899 120.289L111.241 107.084L108.619 105.626ZM101.277 118.831L98.6552 117.373C97.0673 120.229 94.0569 122 90.7898 122L90.7898 125L90.7899 128C96.2357 128 101.253 125.048 103.899 120.289L101.277 118.831ZM90.7898 125V122H12.0047V125V128H90.7898V125ZM12.0047 125V122C6.32507 122 2.06504 116.804 3.17883 111.235L0.237089 110.646L-2.70465 110.058C-4.56106 119.34 2.53915 128 12.0047 128V125ZM0.237089 110.646L3.17883 111.235L23.379 10.2348L20.4373 9.64648L17.4955 9.05813L-2.70465 110.058L0.237089 110.646ZM20.4373 9.64648L23.379 10.2349C24.2204 6.02818 27.914 3.00012 32.204 3L32.2039 0L32.2038 -3C25.0538 -2.9998 18.8979 2.04696 17.4955 9.05811L20.4373 9.64648ZM32.2039 0V3H91.0437V0V-3H32.2039V0Z" fill="#F4F6FA" mask="url(#path-1-inside-1_24284_8201)"/>
</svg>