<svg width="322" height="125" viewBox="0 0 322 125" fill="none" xmlns="http://www.w3.org/2000/svg">
    <path d="M32.2041 1.5H91.0439C94.7367 1.50007 98.1586 3.44054 100.055 6.60938L107.396 18.8779C109.531 22.4455 114.7 22.4456 116.835 18.8779L124.176 6.60938C126.072 3.44047 129.494 1.5 133.187 1.5H192.555C196.247 1.50007 199.669 3.44054 201.565 6.60938L206.966 15.6357C209.14 19.2699 214.434 19.1858 216.492 15.4844L221.267 6.89746C223.061 3.67001 226.414 1.63026 230.087 1.50586L230.443 1.5H309.229C315.855 1.50034 320.825 7.56242 319.525 14.0596L299.325 115.06C298.344 119.967 294.034 123.5 289.029 123.5H230.189C226.497 123.5 223.075 121.56 221.179 118.391L215.777 109.364C213.602 105.73 208.309 105.815 206.251 109.517L201.478 118.103C199.625 121.434 196.113 123.5 192.301 123.5H133.44C129.629 123.5 126.116 121.434 124.264 118.103L116.922 104.896C114.826 101.127 109.404 101.127 107.308 104.896L99.9658 118.103C98.1134 121.434 94.6016 123.5 90.79 123.5H12.0049C5.3788 123.5 0.408562 117.438 1.70801 110.94L21.9082 9.94043C22.8593 5.18597 26.9332 1.72252 31.7373 1.51074L32.2041 1.5Z" fill="white" stroke="#E2D7F7" stroke-width="3"/>
    <path d="M27.0016 95.2378C51.512 95.4587 8.02119 95.8757 63.8612 95.2377C119.701 94.5996 206.128 93.0959 295.174 91.5467" stroke="#AB67FE" stroke-width="6" stroke-linecap="round"/>
</svg>
