<svg width="515" height="125" viewBox="0 0 515 125" fill="none" xmlns="http://www.w3.org/2000/svg">
    <path d="M12.0225 1.5H456.768C459.788 1.50006 462.662 2.80118 464.655 5.07031L510.775 57.5674C514.354 61.6413 514.242 67.7705 510.517 71.7109L464.659 120.214C462.676 122.312 459.916 123.5 457.029 123.5H13.1689C4.27425 123.5 -0.591222 113.132 5.09277 106.29L32.6318 73.1455C36.6707 68.2842 36.7959 61.2714 32.9336 56.2686L3.71094 18.417C-1.61796 11.5146 3.30234 1.5 12.0225 1.5Z" fill="white" stroke="#F2F8E2" stroke-width="3"/>
    <path d="M378.662 23.5304C258.106 15.868 17.428 14.0351 19.1591 68.0023C21.3229 135.461 458.874 118.27 488.519 62.9658C512.235 18.7227 382.849 11.1967 315.192 12.9641" stroke="#A8E000" stroke-width="6" stroke-linecap="round" stroke-linejoin="round"/>
</svg>
