<svg width="430" height="125" viewBox="0 0 430 125" fill="none" xmlns="http://www.w3.org/2000/svg">
    <path d="M367.5 1.5C401.189 1.5 428.5 28.8106 428.5 62.5L428.495 63.2881C428.073 96.6142 400.926 123.5 367.5 123.5C356.688 123.5 346.537 120.687 337.733 115.756L337 115.345L336.267 115.756C327.463 120.687 317.312 123.5 306.5 123.5C295.688 123.5 285.537 120.687 276.733 115.756L276 115.345L275.267 115.756C266.463 120.687 256.312 123.5 245.5 123.5C234.688 123.5 224.537 120.687 215.733 115.756L215 115.345L214.267 115.756C205.463 120.687 195.312 123.5 184.5 123.5C173.688 123.5 163.537 120.687 154.733 115.756L154 115.345L153.267 115.756C144.463 120.687 134.312 123.5 123.5 123.5C112.688 123.5 102.537 120.687 93.7334 115.756L93 115.345L92.2666 115.756C83.4632 120.687 73.3124 123.5 62.5 123.5C28.8107 123.5 1.50009 96.1893 1.5 62.5C1.5 29.0738 28.3858 1.92689 61.7119 1.50488L62.5 1.5C73.3124 1.5 83.4634 4.31199 92.2666 9.24316L93 9.6543L93.7334 9.24316C102.262 4.46606 112.054 1.67742 122.488 1.50781L123.5 1.5C134.312 1.5 144.463 4.31199 153.267 9.24316L154 9.6543L154.733 9.24316C163.262 4.46606 173.054 1.67742 183.488 1.50781L184.5 1.5C195.312 1.5 205.463 4.31199 214.267 9.24316L215 9.6543L215.733 9.24316C224.262 4.46606 234.054 1.67742 244.488 1.50781L245.5 1.5C256.312 1.5 266.463 4.31199 275.267 9.24316L276 9.6543L276.733 9.24316C285.262 4.46606 295.054 1.67742 305.488 1.50781L306.5 1.5C317.312 1.5 327.463 4.31199 336.267 9.24316L337 9.6543L337.733 9.24316C346.262 4.46606 356.054 1.67742 366.488 1.50781L367.5 1.5Z" fill="white"/>
    <path d="M367.5 1.5C401.189 1.5 428.5 28.8106 428.5 62.5L428.495 63.2881C428.073 96.6142 400.926 123.5 367.5 123.5C356.688 123.5 346.537 120.687 337.733 115.756L337 115.345L336.267 115.756C327.463 120.687 317.312 123.5 306.5 123.5C295.688 123.5 285.537 120.687 276.733 115.756L276 115.345L275.267 115.756C266.463 120.687 256.312 123.5 245.5 123.5C234.688 123.5 224.537 120.687 215.733 115.756L215 115.345L214.267 115.756C205.463 120.687 195.312 123.5 184.5 123.5C173.688 123.5 163.537 120.687 154.733 115.756L154 115.345L153.267 115.756C144.463 120.687 134.312 123.5 123.5 123.5C112.688 123.5 102.537 120.687 93.7334 115.756L93 115.345L92.2666 115.756C83.4632 120.687 73.3124 123.5 62.5 123.5C28.8107 123.5 1.50009 96.1893 1.5 62.5C1.5 29.0738 28.3858 1.92689 61.7119 1.50488L62.5 1.5C73.3124 1.5 83.4634 4.31199 92.2666 9.24316L93 9.6543L93.7334 9.24316C102.262 4.46606 112.054 1.67742 122.488 1.50781L123.5 1.5C134.312 1.5 144.463 4.31199 153.267 9.24316L154 9.6543L154.733 9.24316C163.262 4.46606 173.054 1.67742 183.488 1.50781L184.5 1.5C195.312 1.5 205.463 4.31199 214.267 9.24316L215 9.6543L215.733 9.24316C224.262 4.46606 234.054 1.67742 244.488 1.50781L245.5 1.5C256.312 1.5 266.463 4.31199 275.267 9.24316L276 9.6543L276.733 9.24316C285.262 4.46606 295.054 1.67742 305.488 1.50781L306.5 1.5C317.312 1.5 327.463 4.31199 336.267 9.24316L337 9.6543L337.733 9.24316C346.262 4.46606 356.054 1.67742 366.488 1.50781L367.5 1.5Z" stroke="#F4F6FA" stroke-width="3"/>
    <path d="M367.5 1.5C401.189 1.5 428.5 28.8106 428.5 62.5L428.495 63.2881C428.073 96.6142 400.926 123.5 367.5 123.5C356.688 123.5 346.537 120.687 337.733 115.756L337 115.345L336.267 115.756C327.463 120.687 317.312 123.5 306.5 123.5C295.688 123.5 285.537 120.687 276.733 115.756L276 115.345L275.267 115.756C266.463 120.687 256.312 123.5 245.5 123.5C234.688 123.5 224.537 120.687 215.733 115.756L215 115.345L214.267 115.756C205.463 120.687 195.312 123.5 184.5 123.5C173.688 123.5 163.537 120.687 154.733 115.756L154 115.345L153.267 115.756C144.463 120.687 134.312 123.5 123.5 123.5C112.688 123.5 102.537 120.687 93.7334 115.756L93 115.345L92.2666 115.756C83.4632 120.687 73.3124 123.5 62.5 123.5C28.8107 123.5 1.50009 96.1893 1.5 62.5C1.5 29.0738 28.3858 1.92689 61.7119 1.50488L62.5 1.5C73.3124 1.5 83.4634 4.31199 92.2666 9.24316L93 9.6543L93.7334 9.24316C102.262 4.46606 112.054 1.67742 122.488 1.50781L123.5 1.5C134.312 1.5 144.463 4.31199 153.267 9.24316L154 9.6543L154.733 9.24316C163.262 4.46606 173.054 1.67742 183.488 1.50781L184.5 1.5C195.312 1.5 205.463 4.31199 214.267 9.24316L215 9.6543L215.733 9.24316C224.262 4.46606 234.054 1.67742 244.488 1.50781L245.5 1.5C256.312 1.5 266.463 4.31199 275.267 9.24316L276 9.6543L276.733 9.24316C285.262 4.46606 295.054 1.67742 305.488 1.50781L306.5 1.5C317.312 1.5 327.463 4.31199 336.267 9.24316L337 9.6543L337.733 9.24316C346.262 4.46606 356.054 1.67742 366.488 1.50781L367.5 1.5Z" stroke="#DDE4FB" stroke-width="3"/>
    <path d="M47.0005 100.887C71.5109 101.107 96.0214 101.328 151.861 100.69C207.702 100.052 294.128 98.5485 383.174 96.9993" stroke="#2856F6" stroke-width="6" stroke-linecap="round"/>
</svg>
