<?xml version="1.0" encoding="utf-8"?>
<svg width="143" height="70" viewBox="0 0 143 70" fill="none" xmlns="http://www.w3.org/2000/svg">
    <path d="M137.414 29.0468H19.1157L38.7123 9.54522C40.8989 7.36894 40.9073 3.83221 38.731 1.6456C36.5547 -0.541297 33.0177 -0.549395 30.8311 1.62661L1.64349 30.6735C1.64153 30.6751 1.64014 30.6771 1.63846 30.6788C-0.542567 32.855 -0.54955 36.4032 1.6379 38.5868C1.63986 38.5884 1.64125 38.5904 1.64293 38.5921L30.8305 67.6389C33.0169 69.8147 36.5539 69.8071 38.7305 67.6199C40.9067 65.4333 40.8984 61.8966 38.7117 59.7203L19.1157 40.2187H137.414C140.499 40.2187 143 37.7179 143 34.6328C143 31.5477 140.499 29.0468 137.414 29.0468Z" fill="#2856F6"/>
</svg>
