<?xml version="1.0" encoding="utf-8"?>
<svg width="143" height="70" viewBox="0 0 143 70" fill="none" xmlns="http://www.w3.org/2000/svg">
    <path d="M5.58594 29.0468H123.884L104.288 9.54522C102.101 7.36894 102.093 3.83221 104.269 1.6456C106.445 -0.541297 109.982 -0.549395 112.169 1.62661L141.357 30.6735C141.358 30.6751 141.36 30.6771 141.362 30.6788C143.543 32.855 143.55 36.4032 141.362 38.5868C141.36 38.5884 141.359 38.5904 141.357 38.5921L112.169 67.6389C109.983 69.8147 106.446 69.8071 104.27 67.6199C102.093 65.4333 102.102 61.8966 104.288 59.7203L123.884 40.2187H5.58594C2.50082 40.2187 0 37.7179 0 34.6328C0 31.5477 2.50082 29.0468 5.58594 29.0468Z" fill="#2856F6"/>
</svg>
