<?xml version="1.0" encoding="utf-8"?>
<!-- Generator: Adobe Illustrator 19.1.0, SVG Export Plug-In . SVG Version: 6.00 Build 0)  -->
<svg version="1.1" id="Слой_1" xmlns="http://www.w3.org/2000/svg" xmlns:xlink="http://www.w3.org/1999/xlink" x="0px" y="0px"
	 viewBox="0 0 512 509" enable-background="new 0 0 512 509" xml:space="preserve">
<g>
	<defs>
		<rect id="SVGID_1_" width="512" height="509"/>
	</defs>
	<clipPath id="SVGID_2_">
		<use xlink:href="#SVGID_1_"  overflow="visible"/>
	</clipPath>
	<path clip-path="url(#SVGID_2_)" fill="#000000" fill-opacity="0.1" d="M496,107.4h-45.2v0c0-57.8-22.3-96.7-23.3-98.3c-2.2-3.8-6-6.6-10.3-7.6
		c-35.9-8-83.8,16.8-121.2,42.3c-0.8-0.1-1.5-0.2-2.3-0.2h-75.3c-0.8,0-1.6,0.1-2.3,0.2C178.6,18.4,130.7-6.5,94.8,1.5
		c-4.3,1-8.1,3.7-10.3,7.6c-0.9,1.6-23.3,40.5-23.3,98.3v0H16c-8.8,0-16,7.2-16,16v131.2c0,8.8,7.2,16,16,16h18.4V493
		c0,8.8,7.2,16,16,16h411.2c8.8,0,16-7.2,16-16V270.6H496c8.8,0,16-7.2,16-16V123.4C512,114.6,504.8,107.4,496,107.4 M402.7,32
		c0.2,0,0.4,0,0.5,0c5.4,12,15.5,39.2,15.5,75.4v0H328h-18.3V73.3C347.3,47.1,381.5,32,402.7,32 M256,344.4c-8.8,0-16,7.2-16,16
		v116.2h-40V271.2h112v205.3h-40V360.4C272,351.5,264.8,344.4,256,344.4 M312,238.6H200v-99.2h18.3h75.3H312V238.6z M277.7,107.4
		h-43.3V75.7h43.3V107.4z M93.2,107.4c0-35.8,10.1-63.3,15.6-75.4c0.2,0,0.3,0,0.5,0c21.2,0,55.4,15.1,93.1,41.3v34.1H184
		L93.2,107.4z M32,139.4h45.8H168v99.2H50.4H32V139.4z M66.4,270.6H168V477H66.4V270.6z M445.6,477H344V270.6h101.6V477z M480,238.6
		h-18.4H344v-99.2h90.2H480V238.6z"/>
	<path clip-path="url(#SVGID_2_)" fill="#000000" fill-opacity="0.1" d="M271.7,309.2c-0.2-1-0.5-2-0.9-3c-0.4-1-0.9-1.9-1.5-2.8c-0.6-0.9-1.2-1.7-2-2.4
		c-0.7-0.7-1.6-1.4-2.4-2c-0.9-0.6-1.8-1.1-2.8-1.5c-1-0.4-2-0.7-3-0.9c-2.1-0.4-4.2-0.4-6.2,0c-1,0.2-2,0.5-3,0.9
		c-1,0.4-1.9,0.9-2.8,1.5c-0.9,0.6-1.7,1.2-2.4,2c-0.7,0.8-1.4,1.6-2,2.4c-0.6,0.9-1.1,1.8-1.5,2.8c-0.4,1-0.7,2-0.9,3
		c-0.2,1-0.3,2.1-0.3,3.1c0,1,0.1,2.1,0.3,3.1c0.2,1,0.5,2,0.9,3c0.4,1,0.9,1.9,1.5,2.8c0.6,0.9,1.3,1.7,2,2.4
		c0.7,0.7,1.6,1.4,2.4,2c0.9,0.6,1.8,1.1,2.8,1.5c1,0.4,2,0.7,3,0.9s2.1,0.3,3.1,0.3c1,0,2.1-0.1,3.1-0.3s2-0.5,3-0.9
		c1-0.4,1.9-0.9,2.8-1.5c0.9-0.6,1.7-1.2,2.4-2c0.7-0.7,1.4-1.6,2-2.4c0.6-0.9,1.1-1.8,1.5-2.8c0.4-1,0.7-2,0.9-3
		c0.2-1,0.3-2.1,0.3-3.1C272,311.3,271.9,310.3,271.7,309.2"/>
</g>
</svg>
