<svg width="24" height="24" viewBox="0 0 24 24" fill="none" xmlns="http://www.w3.org/2000/svg">
<path d="M14.585 12L22.4683 4.13499C22.8136 3.78977 23.0075 3.32155 23.0075 2.83333C23.0075 2.34511 22.8136 1.87688 22.4683 1.53166C22.1231 1.18644 21.6549 0.992493 21.1667 0.992493C20.6785 0.992493 20.2102 1.18644 19.865 1.53166L12 9.41499L4.13501 1.53166C3.78979 1.18644 3.32156 0.992493 2.83334 0.992493C2.34512 0.992493 1.8769 1.18644 1.53168 1.53166C1.18645 1.87688 0.992509 2.34511 0.992509 2.83333C0.992509 3.32155 1.18645 3.78977 1.53168 4.13499L9.41501 12L1.53168 19.865C1.35984 20.0354 1.22345 20.2382 1.13038 20.4616C1.0373 20.685 0.98938 20.9246 0.98938 21.1667C0.98938 21.4087 1.0373 21.6483 1.13038 21.8717C1.22345 22.0951 1.35984 22.2979 1.53168 22.4683C1.70211 22.6402 1.90488 22.7766 2.12829 22.8696C2.35169 22.9627 2.59132 23.0106 2.83334 23.0106C3.07537 23.0106 3.31499 22.9627 3.5384 22.8696C3.76181 22.7766 3.96458 22.6402 4.13501 22.4683L12 14.585L19.865 22.4683C20.0354 22.6402 20.2382 22.7766 20.4616 22.8696C20.685 22.9627 20.9247 23.0106 21.1667 23.0106C21.4087 23.0106 21.6483 22.9627 21.8717 22.8696C22.0951 22.7766 22.2979 22.6402 22.4683 22.4683C22.6402 22.2979 22.7766 22.0951 22.8696 21.8717C22.9627 21.6483 23.0106 21.4087 23.0106 21.1667C23.0106 20.9246 22.9627 20.685 22.8696 20.4616C22.7766 20.2382 22.6402 20.0354 22.4683 19.865L14.585 12Z" fill="white"/>
</svg>
