<svg id="Main" xmlns="http://www.w3.org/2000/svg" viewBox="0 0 795.59 813.52"><defs><style>.cls-1{fill:#fff;}</style></defs><title>hand3</title><g id="Element"><path class="cls-1" d="M988.25,631.66c-6.35-23.57-12.34-45.83-15.87-65.45-3-16.48-.3-44.79,2.06-69.8,5.17-54.85,10.51-111.56-23.68-147.76-17.31-18.34-41.67-27.47-70.4-26.41h0a95.15,95.15,0,0,0-68.05,31.45C776.9,392.35,769.82,458.2,770,518.19c-87.54-86.94-179.17-178.67-191-190.48l-.19-.2a97.62,97.62,0,0,0-137.9,0,214.22,214.22,0,0,0-17.69,20.92c-45.1-19.94-75.82,0-91.22,15.38S296.66,409.94,316.61,455a217.13,217.13,0,0,0-20.93,17.7c-25.71,25.72-32.46,61-19.65,94.93a137.56,137.56,0,0,0-16.65,14,97.58,97.58,0,0,0,0,137.9l154.2,154.2c.67.66,1.36,1.31,2.07,1.94,64.5,65.53,121.81,117.4,170.34,154.18,65.25,49.45,116,73,157.8,73a104.94,104.94,0,0,0,14.86-1c51.39-7.35,101.27-34.9,148.27-81.9,8-8,15.88-16.55,23.47-25.46,47.52-55.84,72.3-110.57,79.09-140.47C1027.16,776.16,1006.49,699.4,988.25,631.66Zm-28.87,211c-5.74,25.28-29.51,73.16-68.12,118.54-6.7,7.86-13.65,15.41-20.67,22.43-39,39-79.07,61.63-119.2,67.36-36.53,5.24-93.23-30.86-134.37-62-46.74-35.42-102.43-85.89-165.5-150-.57-.58-1.17-1.14-1.79-1.66l-154-154a46.22,46.22,0,0,1,0-65.23,86.46,86.46,0,0,1,10-8.39L463.35,767.23a25.69,25.69,0,0,0,36.33-36.34L330.21,561.43c-6.78-10.5-17.35-33.21,1.81-52.37a145.38,145.38,0,0,1,15.1-12.68L540.66,689.92A25.69,25.69,0,1,0,577,653.59l-205.9-205.9c-7.79-11.39-19.6-30.7-2.77-47.54s36.15-5,47.54,2.77l205.9,205.9a25.69,25.69,0,0,0,36.33-36.33L464.55,379a144.34,144.34,0,0,1,12.68-15.1,46.17,46.17,0,0,1,65.23,0l.18.17c13.9,13.93,138.7,138.86,237.08,236.22a25.69,25.69,0,0,0,43.73-19.56c-2.93-57.79-7.84-154.51,26.75-192.28a43.67,43.67,0,0,1,32-14.8c13.9-.51,24.1,2.87,31.16,10.34,18.2,19.27,14.16,62.21,9.87,107.68-2.79,29.65-5.68,60.3-1.47,83.7,3.91,21.76,10.18,45.05,16.83,69.73C955.32,707,974.23,777.22,959.38,842.62Z" transform="translate(-225.92 -294)"/><path class="cls-1" d="M993.07,630.33c-3.3-12.26-6.62-24.53-9.65-36.86-2.59-10.55-5.53-21.34-6.73-32.15-2.43-21.94.85-44.72,2.9-66.56,3.77-40,9.07-84-7.26-122-7.58-17.64-20.33-32.94-37-42.71s-36-13.53-55-12.81c-41.57,1.58-75.05,27.7-92.56,64.53-20,42-22.9,90.66-22.84,136.42l8.53-3.53q-77.54-77-154.8-154.32c-12-12-24-24-36-36-20.79-20.68-49.68-32-79.05-30.17a103.25,103.25,0,0,0-47.76,15.1c-15,9.33-26.5,22.6-37,36.63l6.84-1.8c-27.66-11.95-58.21-12.58-83.69,4.9-18.44,12.65-33.08,32.11-37.35,54.32-3.57,18.63.17,37,7.61,54.22l1.79-6.84c-18.24,13.68-34.55,29-43.18,50.6s-7.72,45.95.29,67.67l2.3-5.64c-22.93,16.71-40.37,39.14-45.75,67.52-5.22,27.57.78,56.84,17.38,79.59,5.24,7.18,11.41,13.32,17.65,19.56l24.09,24.08,71.05,71.06,50.05,50c35.66,35.66,71.55,71.06,109.36,104.47,41.78,36.92,85.78,73.19,134.88,100,20.13,11,41.59,20.52,64.14,25.2,23.84,5,47.32,2.66,70.64-4,57.7-16.4,106.42-55.91,145-100.67a462.2,462.2,0,0,0,53.84-76.46c10.84-19.45,20.61-40,26.68-61.52,17.2-60.93,6.93-126.8-7.78-187.06-3.67-15-7.68-29.92-11.69-44.84-1.67-6.2-11.32-3.57-9.64,2.66,16.34,60.72,32.41,122.93,26.53,186.37a219.48,219.48,0,0,1-16.89,67.43c-10.49,24.29-24,47.32-39.09,69-34.81,49.89-80.06,96.15-135.57,122.57-23.4,11.14-50.51,20-76.67,19.48-19.78-.36-39.21-6-57.34-13.62-49.26-20.62-92.84-54.69-133.47-88.76-45.65-38.27-88.24-79.82-130.35-121.89Q402,855,383.45,836.55l-69.08-69.09-48.9-48.9c-10.85-10.85-19.68-23.19-24.65-37.86a93.56,93.56,0,0,1,8.94-79c7.39-11.88,17.54-21.53,28.79-29.73,1.68-1.23,3.11-3.45,2.3-5.65-7.29-19.75-8.41-41.08-.85-60.94,7.45-19.56,22.76-33.76,39.14-46a5.23,5.23,0,0,0,1.79-6.84c-10.68-24.7-10.4-51.59,5.2-74,10.85-15.6,27.43-27.77,46.09-31.9,16.36-3.62,33.27-.38,48.46,6.19a5.23,5.23,0,0,0,6.84-1.79c9-12,19-23.66,31.63-31.91a92.53,92.53,0,0,1,40.41-14.52,93.83,93.83,0,0,1,76.29,27.09q49.36,49.2,98.6,98.53,45.94,45.82,92,91.57a5.06,5.06,0,0,0,8.54-3.54c-.09-68.51,8.59-176.32,94.22-189.9,18.65-3,39.1-.8,56.11,7.66,16.49,8.2,29.17,22,36.94,38.57C978.83,410,973.5,453,970,490.64c-2.15,23-5.65,46.88-3.35,70,1.1,11.07,3.9,22,6.5,32.83,3.2,13.23,6.76,26.36,10.3,39.5C985.1,639.2,994.75,636.57,993.07,630.33Z" transform="translate(-225.92 -294)"/><path class="cls-1" d="M954.56,841.29c-3.42,14.67-9.79,28.63-16.66,42a389.34,389.34,0,0,1-34.54,54.8c-27.94,37.34-62.84,72.29-105.14,93-16.28,8-35.75,15.35-54.13,15.42-17.61.06-35.11-7.11-50.68-14.7-36.11-17.62-68.76-42.23-99.73-67.6C541.51,921.44,493.6,874,446,826.4l-94.06-94.06-42.59-42.59c-3.16-3.16-6.33-6.29-9.46-9.46-10.68-10.79-15.26-26.09-11.1-40.88,3.07-11,10.51-18.88,19.48-25.5l-6.06-.79L375,686c27.83,27.83,55.56,55.77,83.5,83.49,8.44,8.39,20.08,12.6,31.84,9,18.53-5.64,27.36-27.5,18-44.41-2.37-4.27-5.92-7.54-9.32-10.94l-14.29-14.29L382.79,606.93l-40.48-40.48c-2.71-2.71-5.78-5.31-8.25-8.25-.25-.3-.34-.48,0,0a41.2,41.2,0,0,1-5.05-9.86c-3-7.74-4.06-16.21-1.15-24.14,3.7-10.13,13.45-17.26,21.78-23.48l-6.06-.78,82.68,82.68L532,688.31c3.88,3.88,7.6,8,12.54,10.6,21.41,11.1,47.49-6.51,44.77-30.55-1.69-14.93-16.11-25.66-26.1-35.65L446.56,516.09l-52.9-52.91c-9.8-9.8-19.94-18.14-25.63-30.48-5-10.85-4.18-22,5.13-30.25,8.95-7.94,20-6.64,30-1.45a47.09,47.09,0,0,1,13.31,9.64l39.65,39.64L579,573.17l36.4,36.41c7.09,7.08,15.44,12.34,26,11.72,23.41-1.39,37.33-28.54,23.76-48-2.57-3.69-6.05-6.79-9.23-10l-17.4-17.41-56.49-56.48L474.54,381.87l-6.45-6.45.78,6.06c6.5-8.7,13.56-17.61,23.6-22.32a41.38,41.38,0,0,1,26.87-2.71c11.06,2.63,18.48,9.82,26.17,17.51q26.9,26.91,53.81,53.8Q642.59,471,686,514.16q23.63,23.52,47.27,47L757,584.73c7.28,7.22,14.29,15.63,22.49,21.8,16.47,12.41,40.82,4.57,47.43-14.8,2.73-8,1.26-16.88.87-25.14-.43-9.05-.8-18.11-1-27.18-1-36.61-1.08-74.78,8.71-110.35,4-14.67,10.14-30,21.66-40.47,13.72-12.44,41-15.23,53.87.08,11.43,13.62,11.23,35.2,10.94,51.92-.44,24.67-3.68,49.21-5.65,73.79-1.9,23.82-2.4,47.19,2.36,70.7,4.94,24.38,11.76,48.34,18.19,72.35,12.82,47.94,25.12,97.27,22.65,147.29a218.64,218.64,0,0,1-4.88,36.57c-1.4,6.27,8.24,8.94,9.64,2.65,11.17-50.28,3.56-102.08-8.16-151.53-5.94-25.06-13.06-49.81-19.5-74.73-6-23.42-11.92-46.78-11.85-71.1.07-25.68,3.46-51.24,5.57-76.8,1.77-21.54,3.65-44.28-1.4-65.54-4.21-17.69-15.31-31.95-34.05-34.92-20.95-3.32-40.11,4.2-52.77,21.19-9.49,12.75-14.75,28.47-18.25,43.82-4.17,18.37-6,37.28-6.84,56.07-.88,19.44-.64,38.92,0,58.37.31,8.73.72,17.46,1.16,26.19.49,9.88-.42,19.27-9.86,24.83a20.84,20.84,0,0,1-14.49,2.5c-5.88-1.15-9.8-4.84-13.91-8.91L756,569.67Q731.44,545.34,707,521q-45.18-45-90.29-90-30.43-30.39-60.84-60.82C549.6,363.91,543.58,357,536,352.5a51.64,51.64,0,0,0-54,1.13c-8.84,5.84-15.43,14.41-21.7,22.8-1.31,1.75-.66,4.62.78,6.06L542,463.43,648.1,569.57c2.32,2.32,4.73,4.57,6.95,7a20.83,20.83,0,0,1-.5,28.73c-8.21,8.18-21,7.75-29.29,0-8.54-8-16.63-16.63-24.93-24.93L482,462,432.8,412.79c-11.5-11.5-22-22.81-39.28-25.68-23.15-3.85-43.06,18.22-37.72,40.82,2.1,8.9,7,18.56,13.55,25.09l34,34L524.52,608.19l42.3,42.3c2.21,2.2,4.48,4.36,6.63,6.62,7,7.4,8.16,18.63,2,27-7.56,10.29-22.27,10.78-31.27,2.29-8.64-8.15-16.84-16.84-25.24-25.24l-56.39-56.4L356.84,499l-6.18-6.18c-1.42-1.42-4.31-2.09-6.06-.79-8.45,6.32-17.59,13.06-23.06,22.29a39.43,39.43,0,0,0-5,25.43c1.16,8.78,4.73,19.4,10.92,26,8.8,9.36,18.21,18.21,27.28,27.29l103,103,34.5,34.5c3.73,3.74,7.43,7.16,9.05,12.46a20.88,20.88,0,0,1-9.17,23.84c-8.25,4.95-18.42,3.29-25.28-3.18-24.93-23.5-48.56-48.56-72.79-72.78l-83.35-83.35-1.46-1.47c-1.43-1.42-4.3-2.08-6.06-.78-9.15,6.76-17.18,14.39-21.74,25a52,52,0,0,0-3.07,31.12c2.2,10.66,8,19.6,15.62,27.18l33.48,33.48L430.8,825.37C475.91,870.49,521,915.63,569.62,957c30.88,26.3,63,51.76,98.15,72.26,17.47,10.21,36.14,19.71,55.92,24.49,17.76,4.3,34.61,2.13,51.95-3.13,44.24-13.42,81.71-44.09,112.16-78,28.84-32.09,54.34-69.23,70.23-109.54a137.16,137.16,0,0,0,6.17-19.2C965.66,837.68,956,835,954.56,841.29Z" transform="translate(-225.92 -294)"/></g></svg>