<?xml version="1.0" encoding="utf-8"?>
<!-- Generator: Adobe Illustrator 19.1.0, SVG Export Plug-In . SVG Version: 6.00 Build 0)  -->
<svg version="1.1" id="Layer_1" xmlns="http://www.w3.org/2000/svg" xmlns:xlink="http://www.w3.org/1999/xlink" x="0px" y="0px"
	 viewBox="0 0 19 20" enable-background="new 0 0 19 20" xml:space="preserve">
<g>
	<path fill="#ffffff" d="M10,10.1"/>
	<path fill="#ffffff" d="M10,10.1"/>
	<g>
		<path fill="#ffffff" d="M4,6H1C0.4,6,0,6.4,0,7v12c0,0.6,0.4,1,1,1h3c0.6,0,1-0.4,1-1v-0.7V7.4V7C5,6.4,4.6,6,4,6z M4,18H2V8h2V18
			z"/>
		<path fill="#ffffff" d="M19,11c0-0.9-0.4-1.7-1.1-2.2C18,8.5,18,8.3,18,8c0-0.3,0-0.5-0.1-0.8c0-0.2-0.2-0.6-0.3-0.8
			c-0.1-0.2-0.3-0.4-0.5-0.6C16.5,5.3,15.8,5,15,5h-2V3c0-1.7-1.3-3-3-3S7,1.3,7,3v1.7C6.7,5.2,5.9,6.4,5.5,7H4v2h2
			c0.3,0,0.6-0.2,0.8-0.4C9,5.3,9,5.3,9,5V3c0-0.6,0.4-1,1-1c0.6,0,1,0.4,1,1v3c0,0.6,0.4,1,1,1h3c0.6,0,1,0.4,1,1
			c0,0.4-0.2,0.9-0.7,1H15v1c0.3,0,0.6,0,0.8,0c0.2,0,0.5,0.1,0.7,0.2c0.6,0.4,0.6,1.4,0,1.8c0,0,0,0-0.1,0H15v1h1
			c0.6,0.1,1,0.3,1,1c0,0.6-0.2,1-1.3,1H15v1c0.1,0,0.2,0,0.3,0c0.2,0.1,0.5,0.3,0.6,0.5c0.1,0.2,0.1,0.3,0.1,0.5c0,0.6-0.4,1-1,1
			h-4.8l-2.8-0.9C7.2,17,7.1,17,7,17H4v2h2.8l2.8,0.9C9.8,20,9.9,20,10,20h5c1.7,0,3-1.3,3-3c0-0.2,0-0.5-0.1-0.7
			c0.5-0.4,0.9-1,1-1.6c0.2-0.9-0.1-1.6-0.5-2.1C19,11.9,19,11.2,19,11z"/>
	</g>
</g>
</svg>
