<?xml version="1.0" encoding="utf-8"?>
<svg width="46" height="46" viewBox="0 0 46 46" fill="none" xmlns="http://www.w3.org/2000/svg">
    <path d="M24.7538 32.193L21.1442 35.8072C20.3798 36.5714 19.4725 37.1776 18.4739 37.5912C17.4753 38.0048 16.405 38.2176 15.3241 38.2175C14.2433 38.2174 13.173 38.0045 12.1745 37.5908C11.1759 37.1771 10.2686 36.5708 9.50441 35.8065C8.74018 35.0421 8.13398 34.1348 7.72043 33.1362C7.30687 32.1376 7.09405 31.0673 7.09412 29.9864C7.09419 28.9056 7.30715 27.8353 7.72084 26.8368C8.13453 25.8382 8.74084 24.9309 9.50517 24.1667L13.1194 20.5586C13.4695 20.219 13.7485 19.8132 13.9403 19.3648C14.1321 18.9163 14.2327 18.4342 14.2364 17.9465C14.2402 17.4588 14.1468 16.9752 13.9619 16.5239C13.777 16.0726 13.5041 15.6626 13.1593 15.3177C12.8144 14.9729 12.4044 14.7 11.9531 14.5151C11.5018 14.3302 11.0182 14.2369 10.5305 14.2406C10.0428 14.2443 9.56071 14.345 9.11228 14.5367C8.66384 14.7285 8.25803 15.0076 7.91845 15.3577L4.30425 18.9703C1.49666 21.916 -0.0476919 25.8428 0.00112296 29.9118C0.0499378 33.9808 1.68805 37.8695 4.5655 40.7469C7.44294 43.6243 11.3316 45.2625 15.4006 45.3113C19.4696 45.3601 23.3964 43.8157 26.3421 41.0081L29.9517 37.3985C30.2935 37.0572 30.5647 36.6519 30.7499 36.2058C30.9351 35.7597 31.0306 35.2815 31.0309 34.7985C31.0313 34.3154 30.9365 33.8371 30.7519 33.3907C30.5674 32.9443 30.2968 32.5386 29.9555 32.1968C29.6142 31.855 29.2089 31.5838 28.7628 31.3986C28.3167 31.2135 27.8385 31.118 27.3554 31.1176C26.8724 31.1173 26.3941 31.2121 25.9477 31.3966C25.5013 31.5811 25.0956 31.8517 24.7538 32.193Z" fill="#2856F6"/>
    <path d="M40.7806 4.53175C37.8481 1.62856 33.8883 0 29.7617 0C25.6352 0 21.6754 1.62856 18.7428 4.53175L15.1301 8.13988C14.4396 8.82956 14.0514 9.76529 14.0508 10.7412C14.0503 11.7172 14.4374 12.6533 15.1271 13.3438C15.8168 14.0343 16.7525 14.4226 17.7284 14.4231C18.7044 14.4237 19.6406 14.0366 20.3311 13.3469L23.9407 9.73268C25.4843 8.18925 27.5779 7.32224 29.7607 7.32238C30.8416 7.32245 31.9118 7.53541 32.9104 7.9491C33.9089 8.36279 34.8162 8.96911 35.5805 9.73344C36.3447 10.4978 36.9509 11.4051 37.3644 12.4037C37.778 13.4023 37.9908 14.4726 37.9908 15.5535C37.9907 16.6343 37.7777 17.7046 37.364 18.7031C36.9503 19.7017 36.344 20.609 35.5797 21.3732L31.9655 24.9813C31.624 25.3229 31.3531 25.7284 31.1684 26.1747C30.9836 26.621 30.8885 27.0993 30.8886 27.5823C30.8886 28.0653 30.9839 28.5436 31.1688 28.9898C31.3537 29.4361 31.6247 29.8415 31.9663 30.183C32.3079 30.5245 32.7134 30.7954 33.1597 30.9802C33.6059 31.1649 34.0842 31.26 34.5673 31.2599C35.0503 31.2599 35.5286 31.1646 35.9748 30.9797C36.421 30.7948 36.8264 30.5238 37.1679 30.1822L40.7806 26.5696C43.6838 23.637 45.3124 19.6772 45.3124 15.5507C45.3124 11.4241 43.6838 7.4643 40.7806 4.53175Z" fill="#2856F6"/>
    <path d="M20.3311 30.1822L29.9547 20.5585C30.6272 19.8653 31 18.9354 30.9926 17.9697C30.9852 17.0039 30.5983 16.0798 29.9154 15.3969C29.2325 14.714 28.3084 14.3271 27.3427 14.3197C26.3769 14.3124 25.447 14.6852 24.7538 15.3576L15.1301 24.9813C14.4577 25.6745 14.0849 26.6044 14.0923 27.5702C14.0996 28.5359 14.4865 29.46 15.1694 30.1429C15.8523 30.8258 16.7764 31.2127 17.7422 31.2201C18.7079 31.2274 19.6378 30.8546 20.3311 30.1822Z" fill="#2856F6"/>
</svg>
