<svg xmlns="http://www.w3.org/2000/svg" width="44" height="44" viewBox="0 0 44 44" fill="none">
    <path d="M2.44291 7.11276C0.733398 10.0739 0.733398 14.0493 0.733398 22.0002C0.733398 29.9511 0.733398 33.9265 2.44291 36.8876C3.56284 38.8275 5.17363 40.4384 7.1134 41.5584C9.69426 43.0485 13.0457 43.2398 19.1285 43.2644V14.1222H13.5121C13.4934 12.5072 13.4934 10.8733 13.4934 9.23953H30.0814V14.1034H24.465V43.2658C30.8062 43.2476 34.2489 43.0814 36.8867 41.5584C38.8265 40.4384 40.4373 38.8275 41.5572 36.8876C43.2667 33.9265 43.2667 29.9511 43.2667 22.0002C43.2667 14.0493 43.2667 10.0739 41.5572 7.11276C40.4373 5.17289 38.8265 3.56201 36.8867 2.44203C33.9258 0.732422 29.9505 0.732422 22.0001 0.732422C14.0496 0.732422 10.0744 0.732422 7.1134 2.44203C5.17363 3.56201 3.56284 5.17289 2.44291 7.11276Z" fill="transparent"/>
    <path d="M19.1285 14.1222V43.2644L24.465 43.2658V14.1034H30.0814V9.23953H13.4934C13.4934 10.8733 13.4934 12.5072 13.5121 14.1222H19.1285Z" fill="transparent"/>
    <path d="M2.44291 7.11276C0.733398 10.0739 0.733398 14.0493 0.733398 22.0002C0.733398 29.9511 0.733398 33.9265 2.44291 36.8876C3.56284 38.8275 5.17363 40.4384 7.1134 41.5584C9.69426 43.0485 13.0457 43.2398 19.1285 43.2644V14.1222H13.5121C13.4934 12.5072 13.4934 10.8733 13.4934 9.23953H30.0814V14.1034H24.465V43.2658C30.8062 43.2476 34.2489 43.0814 36.8867 41.5584C38.8265 40.4384 40.4373 38.8275 41.5572 36.8876C43.2667 33.9265 43.2667 29.9511 43.2667 22.0002C43.2667 14.0493 43.2667 10.0739 41.5572 7.11276C40.4373 5.17289 38.8265 3.56201 36.8867 2.44203C33.9258 0.732422 29.9505 0.732422 22.0001 0.732422C14.0496 0.732422 10.0744 0.732422 7.1134 2.44203C5.17363 3.56201 3.56284 5.17289 2.44291 7.11276Z" fill="#2856F6"/>
</svg>
