<svg width="28" height="28" viewBox="0 0 28 28" fill="none" xmlns="http://www.w3.org/2000/svg">
    <path d="M1.55662 4.52701C0.46875 6.41136 0.46875 8.94118 0.46875 14.0008C0.46875 19.0605 0.46875 21.5903 1.55662 23.4747C2.2693 24.7091 3.29435 25.7342 4.52875 26.4469C6.17112 27.3952 8.30385 27.5169 12.1747 27.5326V8.98757H8.60062C8.58875 7.95982 8.58875 6.92011 8.58875 5.88041H19.1447V8.97561H15.5707V27.5335C19.606 27.5219 21.7968 27.4161 23.4754 26.4469C24.7098 25.7342 25.7349 24.7091 26.4475 23.4747C27.5354 21.5903 27.5354 19.0605 27.5354 14.0008C27.5354 8.94118 27.5354 6.41136 26.4475 4.52701C25.7349 3.29255 24.7098 2.26744 23.4754 1.55473C21.5912 0.466797 19.0615 0.466797 14.0021 0.466797C8.9427 0.466797 6.413 0.466797 4.52875 1.55473C3.29435 2.26744 2.2693 3.29255 1.55662 4.52701Z" fill="#A7F628"/>
    <path d="M12.1748 8.98801V27.533L15.5708 27.5339V8.97606H19.1449V5.88086H8.58887C8.58887 6.92056 8.58887 7.96026 8.60074 8.98801H12.1748Z" fill="#111434"/>
</svg>
