<?xml version="1.0" encoding="utf-8"?>
<!-- Generator: Adobe Illustrator 19.1.0, SVG Export Plug-In . SVG Version: 6.00 Build 0)  -->
<svg version="1.1" id="Слой_1" xmlns="http://www.w3.org/2000/svg" xmlns:xlink="http://www.w3.org/1999/xlink" x="0px" y="0px"
	 viewBox="0 0 42 39.8" enable-background="new 0 0 42 39.8" xml:space="preserve">
<g>
	<g>
		<defs>
			<rect id="SVGID_1_" x="0" width="42" height="39.8"/>
		</defs>
		<clipPath id="SVGID_2_">
			<use xlink:href="#SVGID_1_"  overflow="visible"/>
		</clipPath>
		<path fill="#ffffff" clip-path="url(#SVGID_2_)" d="M41.5,11.7C40.9,5.1,36.2,0.2,30.3,0.2c-3.9,0-7.6,2.1-9.6,5.5c-2-3.4-5.5-5.5-9.4-5.5
			C5.4,0.2,0.7,5.1,0.1,11.7c0,0.3-0.2,1.8,0.4,4.4c0.9,3.7,2.9,7,5.8,9.6l14.5,13.2l14.7-13.1c2.9-2.6,4.9-6,5.8-9.6
			C41.8,13.6,41.6,12,41.5,11.7L41.5,11.7z M41.5,11.7"/>
	</g>
</g>
</svg>
