<?xml version="1.0" encoding="utf-8"?>
<!-- Generator: Adobe Illustrator 19.1.0, SVG Export Plug-In . SVG Version: 6.00 Build 0)  -->
<svg version="1.1" id="Layer_1" xmlns="http://www.w3.org/2000/svg" xmlns:xlink="http://www.w3.org/1999/xlink" x="0px" y="0px"
	 viewBox="0 0 20 20" enable-background="new 0 0 20 20" xml:space="preserve">
<g>
	<path fill="#ffffff" d="M10,20C4.5,20,0,15.5,0,10S4.5,0,10,0s10,4.5,10,10S15.5,20,10,20z M10,2c-4.4,0-8,3.6-8,8c0,4.4,3.6,8,8,8
		s8-3.6,8-8C18,5.6,14.4,2,10,2z"/>
	<polygon fill="#ffffff" points="14.4,6.4 13.6,5.6 10,9.3 6.4,5.6 5.6,6.4 9.3,10 5.6,13.6 6.4,14.4 10,10.7 13.6,14.4 14.4,13.6
		10.7,10 	"/>
</g>
</svg>
