<?xml version="1.0" encoding="utf-8"?>
<!-- Generator: Adobe Illustrator 19.1.0, SVG Export Plug-In . SVG Version: 6.00 Build 0)  -->
<svg version="1.1" id="Layer_1" xmlns="http://www.w3.org/2000/svg" xmlns:xlink="http://www.w3.org/1999/xlink" x="0px" y="0px"
	 viewBox="0 0 19.4 19.4" enable-background="new 0 0 19.4 19.4" xml:space="preserve">
<g>
	<path fill="#ffffff" d="M7.5,11.3c-2.1,0-3.8-1.7-3.8-3.8h1c0,1.6,1.3,2.8,2.8,2.8V11.3z"/>
	<path fill="#ffffff" d="M19.1,17.7l-2.8-2.8c-0.3-0.3-0.6-0.3-1-0.2l-2.2-2.2c1.2-1.3,1.9-3,1.9-4.9C15,3.4,11.6,0,7.5,0
		C3.4,0,0,3.4,0,7.5C0,11.6,3.4,15,7.5,15c1.9,0,3.6-0.7,4.9-1.9l2.2,2.2c-0.1,0.3,0,0.7,0.2,1l2.8,2.8c0.4,0.4,1,0.4,1.4,0
		C19.5,18.7,19.5,18.1,19.1,17.7z M7.5,13C4.5,13,2,10.5,2,7.5C2,4.5,4.5,2,7.5,2c3,0,5.5,2.5,5.5,5.5C13,10.5,10.5,13,7.5,13z"/>
</g>
</svg>
