<?xml version="1.0" encoding="utf-8"?>
<!-- Generator: Adobe Illustrator 19.1.0, SVG Export Plug-In . SVG Version: 6.00 Build 0)  -->
<svg version="1.1" id="Layer_1" xmlns="http://www.w3.org/2000/svg" xmlns:xlink="http://www.w3.org/1999/xlink" x="0px" y="0px"
	 viewBox="0 0 22 20" enable-background="new 0 0 22 20" xml:space="preserve">
<g>
	<path fill="#ffffff" d="M22,9.6L11.7,0.3c-0.4-0.3-1-0.3-1.3,0L0,9.5L1.3,11L3,9.5V18c0,1.1,0.9,2,2,2h12c1.1,0,2-0.9,2-2V9.6
		l1.7,1.5L22,9.6z M17,18H5V7.7l6-5.3l6,5.4V18z"/>
	<path fill="#ffffff" d="M14,17h-1v-4.5c0-0.3-0.2-0.5-0.5-0.5h-3C9.2,12,9,12.2,9,12.5V17H8v-4.5C8,11.7,8.7,11,9.5,11h3
		c0.8,0,1.5,0.7,1.5,1.5V17z"/>
</g>
</svg>
