<svg xmlns="http://www.w3.org/2000/svg" width="28" height="28" viewBox="0 0 28 28" fill="none">
    <path d="M4.93121 13.1855C10.3854 10.823 14.002 9.24804 15.8104 8.48971C21.002 6.33138 22.0812 5.95221 22.7812 5.95221C22.927 5.95221 23.277 5.98138 23.5104 6.15638C23.6854 6.30221 23.7437 6.50638 23.7729 6.65221C23.802 6.79804 23.8312 7.11888 23.802 7.38138C23.5104 10.3272 22.3145 17.5022 21.6729 20.798C21.4104 22.198 20.8854 22.6647 20.3895 22.723C19.3104 22.8105 18.4937 21.9939 17.4437 21.323C15.8104 20.2439 14.877 19.573 13.2729 18.523C11.4354 17.298 12.6312 16.6272 13.6812 15.548C13.9437 15.2564 18.727 10.9105 18.8145 10.5314C18.8145 10.473 18.8437 10.298 18.727 10.2105C18.6395 10.123 18.4645 10.1522 18.3479 10.1814C18.1729 10.2105 15.5479 11.9605 10.4729 15.373C9.71454 15.898 9.04371 16.1314 8.46038 16.1314C7.78954 16.1314 6.50621 15.7522 5.57288 15.4314C4.40621 15.0522 3.47288 14.848 3.56038 14.2064C3.58954 13.8855 4.02704 13.5355 4.93121 13.1855Z" fill="white"/>
</svg>