<?xml version="1.0" encoding="utf-8"?>
<!-- Generator: Adobe Illustrator 23.0.4, SVG Export Plug-In . SVG Version: 6.00 Build 0)  -->
<svg version="1.2" baseProfile="tiny" xmlns="http://www.w3.org/2000/svg" xmlns:xlink="http://www.w3.org/1999/xlink" x="0px"
	 y="0px" viewBox="0 0 61.3 67.4" xml:space="preserve">
<g id="Слой_2">
</g>
<g id="Слой_1">
	<g>
		<path fill="#FFFFFF" d="M56.2,21.5c-1.7-0.8-3.8-0.2-4.7,1.5l-7,14c-0.3,0.5-0.9,0.7-1.3,0.5l-0.1,0c-0.6-0.2-0.9-0.8-0.6-1.4
			l7.8-18.7c0.7-1.8-0.1-3.8-1.9-4.5c-1.8-0.7-3.8,0.1-4.5,1.9l-7.8,18.7c-0.2,0.6-0.8,0.9-1.4,0.6c-0.5-0.2-0.8-0.8-0.6-1.3
			l6.5-22.5c0.6-1.8-0.6-3.7-2.3-4.4c-1.8-0.6-3.8,0.5-4.4,2.3l-6.4,21.6c-0.2,0.6-0.9,1-1.4,0.7l-0.4-0.1c-0.5-0.2-0.7-0.7-0.6-1.2
			l3.3-18.5c0.4-1.9-0.9-3.7-2.8-4c-1.9-0.4-3.7,0.9-4,2.8c0,0-2.5,15.1-3.3,18.3c-0.7,3.1-1.2,5-2,7.7c-0.5,1.5-2.1,2.1-3.1,0
			c0,0-1.6-4.4-2.6-6.7c-1-2.2-2.6-3.5-4.5-3c-2.2,0.5-3.5,2.7-2.9,4.8c0,0,2.8,14.1,5.5,20.5c1.1,2.8,2.8,5.9,5.6,6.9
			c5.5,2,8.8,3.2,14.5,5.3c7.3,2.7,11.7-4,15.4-11S57.9,26,57.9,26C58.5,24.4,57.9,22.3,56.2,21.5z"/>
	</g>
</g>
</svg>
