<svg width="1392" height="278" viewBox="0 0 1392 278" fill="none" xmlns="http://www.w3.org/2000/svg">
    <path d="M0 3.0011L132.653 3.0011C132.653 15.9828 132.653 28.8154 132.653 41.6479C117.731 41.6479 102.81 41.6479 87.7387 41.6479V273.38H45.0631C45.0631 196.086 45.0631 119.091 45.0631 41.7971C30.1415 41.7971 15.22 41.7971 0.149215 41.7971C-1.44527e-07 28.9646 0 15.9828 0 3.0011Z" fill="#F5F7FA"/>
    <path d="M357.812 3.0011H400.339C400.339 80.2947 400.339 157.29 400.339 234.434C423.915 234.584 447.491 234.434 471.067 234.434C471.067 247.416 471.067 260.398 471.067 273.081H357.962L357.812 3.0011Z" fill="#F5F7FA"/>
    <path d="M516.44 3.14856C530.765 2.99934 545.089 3.14855 559.414 2.99934C559.414 41.9446 559.414 81.1883 559.414 120.283C578.514 81.3375 597.166 41.9446 616.116 2.99934C630.142 2.99934 644.318 2.85013 658.493 3.14856C638.946 42.5415 619.548 81.9344 600.001 121.476C598.359 123.565 600.001 126.102 600.747 128.191C620.145 176.537 639.244 225.032 658.642 273.378C643.87 273.527 629.098 273.527 614.027 273.378C600.299 237.566 586.721 201.904 572.545 166.241C568.516 174.746 563.443 182.655 559.563 191.16C558.966 218.616 559.563 246.072 559.414 273.527C545.089 273.527 530.765 273.676 516.44 273.378C517.037 249.503 516.142 225.48 516.44 201.456C516.44 178.328 516.44 155.199 516.44 132.071C517.186 121.327 516.291 110.435 516.44 99.691V53.4342C516.44 50.3007 516.44 47.3164 516.44 44.1828V13.5936C516.291 10.0125 516.291 6.58051 516.44 3.14856Z" fill="#F5F7FA"/>
    <path d="M702.048 3.00122H744.426C744.426 71.7896 744.426 140.429 744.426 209.217C744.724 216.23 744.873 223.691 748.753 229.809C751.439 233.688 755.766 235.479 759.795 237.419C766.808 237.866 774.418 238.463 780.237 233.987C788.295 228.615 788.743 218.021 788.743 209.366C788.743 140.578 788.743 71.9388 788.743 3.15044C802.321 3.15044 815.751 3.15044 829.329 3.15044V172.212C829.329 186.089 829.329 199.966 829.329 213.843C829.329 229.66 825.002 246.372 814.258 258.757C803.366 271.44 785.908 277.11 769.345 276.961C753.08 277.707 736.07 275.17 723.088 264.725C708.465 252.937 701.899 233.688 701.75 215.484C701.75 165.049 701.75 114.614 701.75 64.1796C702.048 43.8863 702.048 23.593 702.048 3.00122Z" fill="#F5F7FA"/>
    <path d="M884.251 3.00031C902.157 3.00031 920.212 2.8511 938.118 3.14953C952.293 57.0163 967.364 110.436 981.539 164.302C981.987 110.585 981.539 56.8671 981.689 3.14953C994.521 3.14953 1007.2 3.00032 1019.89 3.29875C1019.89 93.2757 1019.89 183.402 1019.89 273.379C1005.12 273.528 990.492 273.379 975.571 273.528C958.709 212.499 942.296 151.47 925.583 90.2914C924.539 86.4118 923.793 82.383 923.345 78.3542C922.898 82.383 922.599 86.561 922.599 90.5898C922.599 125.655 922.599 160.423 922.599 195.488C922.599 221.601 922.599 247.415 922.599 273.528C909.767 273.677 896.785 273.528 884.102 273.677L884.251 3.00031Z" fill="#F5F7FA"/>
    <path d="M1243.86 3.14457C1258.33 2.99535 1272.81 3.14457 1287.28 3.14457C1295.94 61.4878 1304.44 119.831 1313.39 178.174C1315.04 192.947 1318.17 207.57 1319.36 222.491C1325.18 189.366 1329.36 156.09 1334.58 122.815C1340.4 82.8257 1346.37 43.1343 1352.34 3.14457C1365.47 3.14457 1378.6 3.14457 1391.73 3.14457C1387.4 36.5688 1381.29 69.6947 1376.81 103.268L1376.36 104.163C1368.16 160.567 1358.61 216.97 1350.4 273.523C1328.91 273.822 1307.57 273.523 1285.94 273.672C1271.76 183.248 1257.89 93.2708 1243.86 3.14457Z" fill="#F5F7FA"/>
    <path d="M224.857 1.04891C244.106 -1.48775 265.742 0.00440112 281.708 11.9416C297.226 23.7297 304.389 43.7246 304.389 62.6749C304.389 112.065 304.389 161.306 304.389 210.548C304.687 225.32 301.404 240.689 292.75 252.925C283.946 265.906 269.174 273.516 253.954 275.605C239.629 277.247 224.707 277.098 210.98 272.024C199.192 267.846 189.493 259.49 183.375 248.747C177.705 238.003 174.571 226.066 174.422 213.83V62.8241C174.87 47.1565 179.197 30.7428 189.791 18.8056C198.893 8.80812 211.577 2.8395 224.857 1.04891ZM224.707 44.023C217.993 49.6932 217.694 59.243 217.545 67.4498C217.545 113.707 217.545 159.963 217.545 206.071C217.694 213.83 217.396 222.037 221.574 229.05C229.632 240.391 249.179 240.689 257.535 229.498C262.161 222.783 261.415 214.129 262.011 206.22C262.011 160.859 262.011 115.646 262.011 70.4341C261.415 62.5257 262.161 53.8712 257.535 47.1565C254.7 42.8293 249.776 41.0387 245.15 39.0989C238.137 38.6512 230.228 38.9497 224.707 44.023Z" fill="#F5F7FA"/>
    <path d="M1085.83 20.729C1095.08 8.79172 1109.85 2.37546 1124.63 0.73409C1144.17 -1.20571 1165.81 0.584874 1181.33 13.8651C1196.1 26.1007 1201.47 45.7972 1202.22 64.2999C1202.22 113.69 1202.22 162.931 1202.22 212.471C1201.77 227.392 1198.34 243.06 1188.94 254.997C1181.63 264.846 1170.44 270.963 1158.8 274.395C1138.2 278.424 1114.78 278.126 1096.87 266.188C1079.71 254.997 1072.55 233.809 1071.95 214.112C1071.95 164.722 1071.95 115.332 1071.95 65.9413C1072.1 49.9752 1075.83 33.4123 1085.83 20.729ZM1132.24 39.2317C1126.57 40.2762 1121.05 43.4097 1118.21 48.6323C1114.78 55.1978 1114.78 62.957 1114.78 70.2685C1114.78 116.078 1114.78 161.738 1114.78 207.547C1114.78 215.157 1115.08 223.065 1119.25 229.631C1126.57 239.031 1141.34 239.927 1150.89 233.51C1158.05 228.437 1159.24 218.738 1159.24 210.531C1159.39 163.827 1159.24 117.122 1159.24 70.4177C1159.24 62.2109 1159.24 53.2579 1154.47 46.5433C1149.69 39.5301 1140.14 38.038 1132.24 39.2317Z" fill="#F5F7FA"/>
</svg>
