<svg xmlns="http://www.w3.org/2000/svg" width="28" height="28" viewBox="0 0 28 28" fill="none"><path fill-rule="evenodd" clip-rule="evenodd" d="M14 1.458c.483 0 .875.392.875.875v2.334a.875.875 0 0 1-1.75 0V2.333c0-.483.391-.875.875-.875zM6.38 6.381a.875.875 0 0 1 1.237 0l.4.4A.875.875 0 0 1 6.782 8.02l-.4-.4a.875.875 0 0 1 0-1.238zm15.237 0a.875.875 0 0 1 0 1.238l-.4.4a.875.875 0 1 1-1.238-1.237l.401-.4a.875.875 0 0 1 1.237 0zM1.458 14c0-.483.392-.875.875-.875h2.333a.875.875 0 0 1 0 1.75H2.333A.875.875 0 0 1 1.458 14zm21 0c0-.483.392-.875.875-.875h2.333a.875.875 0 1 1 0 1.75h-2.333a.875.875 0 0 1-.875-.875zm-14.44 5.981a.875.875 0 0 1 0 1.237l-.4.4a.875.875 0 1 1-1.237-1.237l.4-.4a.875.875 0 0 1 1.238 0zm11.963 0a.875.875 0 0 1 1.237 0l.4.4a.875.875 0 0 1-1.237 1.238l-.4-.4a.875.875 0 0 1 0-1.238zM14 22.458c.483 0 .875.392.875.875v2.334a.875.875 0 1 1-1.75 0v-2.334c0-.483.391-.875.875-.875z" fill="#fff"/><path d="M10.129 11.1a1 1 0 0 1 1.277-1.23l8.233 2.755c.886.296.918 1.537.05 1.879l-3.365 1.323a1 1 0 0 0-.496.423l-1.624 2.756c-.444.754-1.574.614-1.82-.226l-2.255-7.68z" fill="#fff"/></svg>