<svg xmlns="http://www.w3.org/2000/svg" width="12" height="13" viewBox="0 0 12 13" fill="none"><path d="M1.07 5.807a487.13 487.13 0 0 1 6.138-2.791c2.922-1.284 3.53-1.507 3.925-1.514.088-.002.282.021.408.13a.478.478 0 0 1 .15.3c.014.087.031.284.018.438-.159 1.757-.844 6.02-1.193 7.988-.147.832-.438 1.112-.719 1.139-.61.06-1.075-.426-1.667-.836-.926-.641-1.45-1.04-2.348-1.666-1.04-.723-.366-1.12.226-1.77.155-.17 2.848-2.755 2.9-2.99.006-.029.013-.138-.049-.196-.062-.058-.152-.038-.218-.022-.093.022-1.572 1.054-4.439 3.097-.42.305-.8.453-1.141.445-.376-.008-1.099-.224-1.636-.408C.766 6.925.242 6.805.288 6.42c.024-.2.285-.405.783-.614z" fill="#161F6A"/></svg>