<svg id="Режим_изоляции" data-name="Режим изоляции" xmlns="http://www.w3.org/2000/svg" viewBox="0 0 29.7 29.7"><defs><style>.cls-1{fill:#fff;}</style></defs><title>Instagram</title><g id="instagram"><g id="_Группа_" data-name=" Группа "><path id="_Составной_контур_" data-name=" Составной контур " class="cls-1" d="M50.48,29.61H37.92a8.57,8.57,0,0,0-8.57,8.57h0V50.74a8.57,8.57,0,0,0,8.57,8.57H50.48a8.57,8.57,0,0,0,8.57-8.57h0V38.19a8.57,8.57,0,0,0-8.56-8.58ZM56.32,51a5.69,5.69,0,0,1-5.69,5.69H37.77A5.69,5.69,0,0,1,32.08,51h0V38.11a5.69,5.69,0,0,1,5.69-5.69H50.62a5.69,5.69,0,0,1,5.69,5.69h0Z" transform="translate(-29.35 -29.61)"/><path id="_Составной_контур_2" data-name=" Составной контур 2" class="cls-1" d="M44.2,36.83a7.71,7.71,0,1,0,7.71,7.71h0A7.71,7.71,0,0,0,44.2,36.83Zm0,12.7a5,5,0,1,1,5-5,5,5,0,0,1-5,5h0Z" transform="translate(-29.35 -29.61)"/><circle id="_Контур_" data-name=" Контур " class="cls-1" cx="22.81" cy="6.93" r="1.8"/></g></g></svg>