<svg id="Режим_изоляции" data-name="Режим изоляции" xmlns="http://www.w3.org/2000/svg" viewBox="0 0 153.97 155.06"><defs><style>.cls-1{fill:#e74c3c;}.cls-2{fill:#008fcb;}.cls-3{fill:#252525;}</style></defs><title>01-icon-deshevle</title><path class="cls-1" d="M508.85,372.64a1.91,1.91,0,0,0,.52,2.66,10.82,10.82,0,0,1,4.54,6.88,8.27,8.27,0,0,1,.15,1l0,.33c0,.23,0,.47,0,.71a10.74,10.74,0,0,1-7.2,10.14,10.58,10.58,0,0,1-3.56.62,1.91,1.91,0,0,0-1.91,1.83.28.28,0,0,0,0,.09,1.92,1.92,0,0,0,1.92,1.92,14.58,14.58,0,0,0,10.75-4.75h0v16.08a6.12,6.12,0,0,0-1.08-.28,5.39,5.39,0,0,0-2,0,6.08,6.08,0,0,0-2.92,1.38,5.87,5.87,0,0,0-1,1.12,1.85,1.85,0,0,0-.32,1,1.88,1.88,0,0,0,.84,1.69,1.93,1.93,0,0,0,2.68-.5,2,2,0,0,1,3.73,1,.45.45,0,0,1,0,.12v11.48a1.78,1.78,0,0,1,0,.33,9.45,9.45,0,0,1-.54,3l-.16.2a12,12,0,0,1-9.36,4.5,11.81,11.81,0,0,1-2.08-.2l-.2,0a11.31,11.31,0,0,1-1.88-.54l-.24-.08a13.65,13.65,0,0,1-1.72-.84l-.2-.14a14.1,14.1,0,0,1-1.56-1.14l-.1-.1a12.75,12.75,0,0,1-1.3-1.35l-.18-.21a12,12,0,0,1-2.42-5.78,10.79,10.79,0,0,1-1.6.3h0l.06-.12a.11.11,0,0,1,0,0,.33.33,0,0,1,0-.09,4.6,4.6,0,0,1,.2-.46s0,0,0-.06a.61.61,0,0,1,.08-.16c.08-.16.18-.34.28-.5a.81.81,0,0,1,.1-.18c.06-.1.14-.2.2-.3l0,0a7.38,7.38,0,0,1,.64-.78c.08-.1.2-.22.3-.32a11.32,11.32,0,0,0,.84-.86c.28-.3.56-.6.82-.92s.32-.42.5-.64a.36.36,0,0,0,.1-.14l.54-.71.28-.41a16.33,16.33,0,0,0,.9-1.38,9.63,9.63,0,0,0,.7-1.26,15.21,15.21,0,0,0,.8-1.62,25,25,0,0,0-24-34.9c-.5,0-1,.08-1.5.14a13.49,13.49,0,0,1-1.64-1.83l-.15-.38c0-.12-.07-.26-.11-.38a11.39,11.39,0,0,1-.46-1.83,0,0,0,0,1,0,0,10.07,10.07,0,0,1-.18-1.92,11.74,11.74,0,0,1,.11-1.57c0-.19.07-.37.1-.56s.13-.63.21-.94.14-.47.21-.7.17-.45.26-.68.22-.55.35-.82c.05-.1.11-.19.17-.29a12.16,12.16,0,0,1,3.34-4,12.78,12.78,0,0,0,.69,1.67.36.36,0,0,0,0,.09,12.12,12.12,0,0,0,1,1.7l0,0h0a13.08,13.08,0,0,0,1.43,1.62c.13.13.25.26.39.38a12.77,12.77,0,0,0,1.6,1.25l.39.23a11.64,11.64,0,0,0,1.57.81c.14.06.27.13.41.18a11.73,11.73,0,0,0,2,.6l.13,0c.21,0,.42.07.64.1l.42.07a11.35,11.35,0,0,0,1.44.09,9.74,9.74,0,0,0,1.07-.07l.45,0c.2,0,.39-.09.59-.12l.08.05,0,0a6.84,6.84,0,0,1,2.17,2.25l.16.26c.12.22.22.46.32.69s.11.29.16.44.13.44.18.66.07.37.1.56a6,6,0,0,1,.07.62c0,.23,0,.46,0,.69a4.63,4.63,0,0,1,0,.52,6.4,6.4,0,0,1-.25,1.13,8,8,0,0,1-.6,1.38,1.73,1.73,0,0,0-.23.72,1.76,1.76,0,0,0,0,.4,2.57,2.57,0,0,0,0,.29,2.07,2.07,0,0,0,.26.59l0,.05a1.94,1.94,0,0,0,.43.43s0,.06.09.08a.2.2,0,0,0,.1.08,2,2,0,0,0,1,.26,1.88,1.88,0,0,0,1.11-.38,2.06,2.06,0,0,0,.55-.59s0-.07,0-.1a11.79,11.79,0,0,0,.77-1.71c.07-.22.12-.45.19-.68s.17-.51.22-.78v0c0-.1,0-.2,0-.3a8.73,8.73,0,0,0,.11-1c0-.27,0-.54,0-.81a10.92,10.92,0,0,0-.06-1.15l-.09-.5a10.74,10.74,0,0,0-2.67-5.49s-.06-.09-.1-.13a13,13,0,0,0,5.54-6.34h0a12.4,12.4,0,0,0,2.07.18,12.12,12.12,0,0,0,1.62-.12l.18,0a14.6,14.6,0,0,0,2.42-.58l.7-.27.25-.09a14.85,14.85,0,0,0,1.54-.76,6,6,0,0,0,.62-.39l.25-.16a1.81,1.81,0,0,0,.57-.72,1.91,1.91,0,0,0-2.81-2.41,10.32,10.32,0,0,1-4.46,1.6A7.77,7.77,0,0,1,498,360a8.82,8.82,0,0,1-4.68-4.59,1.82,1.82,0,0,0-.12-.18,1.9,1.9,0,0,0-2.4-.83,2,2,0,0,0-1,2.54c.09.19.2.43.33.69l0,0a7.48,7.48,0,0,0,.45.8l0,0a.48.48,0,0,0,.06.09c.17.28.36.56.58.86l.26.33c.2.25.42.5.66.76l.3.32a10.08,10.08,0,0,0,1,.86l.23.19a10.57,10.57,0,0,0,1.48,1,0,0,0,0,1,0,0,9.83,9.83,0,0,1-1.8,2.69l0,0a8.68,8.68,0,0,1-1,.9,2.53,2.53,0,0,1-.26.19,7.61,7.61,0,0,1-.9.57l-.4.22c-.29.14-.59.25-.89.36l-.47.17a8.11,8.11,0,0,1-1.39.29,7.91,7.91,0,0,1-1.69,0,9.12,9.12,0,0,1-5.41-2.34,8.51,8.51,0,0,1-1.28-1.4,3,3,0,0,1-.19-.29c-.14-.21-.28-.42-.4-.63s-.13-.27-.2-.4-.17-.36-.24-.53-.12-.32-.17-.47-.1-.28-.14-.42-.1-.34-.14-.52-.1-.46-.14-.69a1.92,1.92,0,0,0,0-.59,11.24,11.24,0,0,1-.06-1.16,11.57,11.57,0,0,1,.2-2.13c0-.22.1-.43.15-.65a12.68,12.68,0,0,1,.39-1.36c.09-.24.2-.48.3-.72.18-.39.36-.77.57-1.13s.28-.47.43-.7.47-.65.72-1,.36-.45.56-.66.55-.52.84-.77.45-.41.69-.59a9.81,9.81,0,0,1,.87-.55l.21-.13h0a13.85,13.85,0,0,1,1.88-.74,6.13,6.13,0,0,1,.64-.2,12.81,12.81,0,0,1,2.16-.4s0-.06,0-.08a1.58,1.58,0,0,1,.08-.23,13.94,13.94,0,0,1,7.12-8.29,13.18,13.18,0,0,1,2.38-.92l.42-.14a13.8,13.8,0,0,1,3.42-.42,13.17,13.17,0,0,1,3.68.5,12.06,12.06,0,0,1,8.29,9.9,4.06,4.06,0,0,1,.07.6q0,.38,0,.75a1.94,1.94,0,0,1,0,.25v25.22a14,14,0,0,0-2.6-2.24,1.93,1.93,0,0,0-2.66.52Z" transform="translate(-430.03 -312)"/><path class="cls-2" d="M564,396.72a.69.69,0,0,1-.1-.16,1.74,1.74,0,0,1-.32-.9,12.11,12.11,0,0,0-1.64-5.22c-.16-.26-.3-.52-.46-.76a11.9,11.9,0,0,0-7.64-5,11.62,11.62,0,0,0-5.8.32,9.24,9.24,0,0,0-1.82.7,10.62,10.62,0,0,1,.92,1.34,11.69,11.69,0,0,1,1.42,4,14.74,14.74,0,0,1-1.22,8.1,1.92,1.92,0,0,1-1.74,1.1,2,2,0,0,1-.82-.18,1.92,1.92,0,0,1-.92-2.56,8.75,8.75,0,0,0,.58-1.68,9.91,9.91,0,0,0,.18-4.8,7.72,7.72,0,0,0-.82-2.12c-2-3.48-6.48-5.2-10.8-4.18a10.6,10.6,0,0,1-6.8,2.5,1.92,1.92,0,1,1,0-3.84,6.72,6.72,0,0,0,2.46-.46,6.89,6.89,0,0,0,4.44-6.42,1.91,1.91,0,0,1,3.44-1.18,2,2,0,0,1,.4,1.18v.14a10.58,10.58,0,0,1-.78,3.82.28.28,0,0,1,0,.12,14.25,14.25,0,0,1,2.46.32,13,13,0,0,1,4.68,2,15.15,15.15,0,0,1,4.66-1.9,15.57,15.57,0,0,1,6.66-.14c.22,0,.42.08.64.14a15.06,15.06,0,0,1,2.94,1,11.07,11.07,0,0,0,1.24-1.32c-.24-.2-.48-.38-.74-.56a13.41,13.41,0,0,0,2.62-2.7,11.5,11.5,0,0,0,.82-4.3,11.09,11.09,0,0,0-.18-2,12.1,12.1,0,0,0-5.32-8.1,2.23,2.23,0,0,1-.88-.08,5.53,5.53,0,0,0-5.68,1.2,5.73,5.73,0,0,0-1.46,4.68A1.91,1.91,0,0,1,547,371a1.51,1.51,0,0,1-.3,0,2,2,0,0,1-1.9-1.62,10.69,10.69,0,0,1,.14-3.56,8.76,8.76,0,0,1,6.76-6.8,8.7,8.7,0,0,1,2.38-.26.54.54,0,0,0,0-.18,11.38,11.38,0,0,0-.76-3.8,12,12,0,0,0-7.48-7.18h0a12.54,12.54,0,0,0-2.32-.44s0-.06,0-.08l-.18,0a1.94,1.94,0,0,1-1.66-1.36,12.1,12.1,0,0,0-7.74-8.06l-.42-.14a13.83,13.83,0,0,0-3.42-.42,14.49,14.49,0,0,0-2.82.28c-.24.06-.48.1-.72.18a12.15,12.15,0,0,0-8.36,9.46,11.82,11.82,0,0,0-.18,2.08,10,10,0,0,0,6.76,9.44,9.62,9.62,0,0,0,3.22.54,9.93,9.93,0,0,0,6.88-2.74,1.86,1.86,0,0,1,1.78-.46,1.79,1.79,0,0,1,.94.54,1.89,1.89,0,0,1-.08,2.7,13.75,13.75,0,0,1-19.5-.48v48.26a9.91,9.91,0,0,1,4-1.9,9.26,9.26,0,0,1,4.1,0,.07.07,0,0,1,0,0,9.61,9.61,0,0,1,5.1,3,7.39,7.39,0,0,1,.92,1.14,1.92,1.92,0,0,1-3.18,2.14,6,6,0,0,0-11,3.38v12.44a10,10,0,0,0,.56,3.3,11.94,11.94,0,0,0,18.48.62v0c.12-.12.22-.26.34-.4l.12-.16.1-.12a10.25,10.25,0,0,0,.46-1.92c0-.1.06-.16.08-.26a4.69,4.69,0,0,0,.06-.56,8.39,8.39,0,0,0-.3-2.24,8.53,8.53,0,0,0-2.22-3.82,1.94,1.94,0,0,1,0-2.72,1.71,1.71,0,0,1,.72-.44,1.87,1.87,0,0,1,2,.44,12.22,12.22,0,0,1,3.34,6.16,9.84,9.84,0,0,0,1.34.08,13,13,0,0,0,10.42-5.22,11.3,11.3,0,0,0,.66-3.78v0c-.26,0-.52.08-.78.1a8.51,8.51,0,0,1-1.26.08,10.24,10.24,0,0,1-1.7-.14,11.9,11.9,0,0,1-5.78-2.52,1.91,1.91,0,0,1-.32-2.7,1.94,1.94,0,0,1,1.16-.68,1.9,1.9,0,0,1,1.54.38,8.76,8.76,0,0,0,2.36,1.32l.08,0a8,8,0,0,0,1.52.38,7.81,7.81,0,0,0,3.18-.18,7.09,7.09,0,0,0,1.88-.74,9.67,9.67,0,0,0-.2-1.7c.34-.16.66-.36,1-.52l0,0a16.89,16.89,0,0,0,6.2-5.48,14.54,14.54,0,0,0,1.1-5.58A10.93,10.93,0,0,0,564,396.72Z" transform="translate(-430.03 -312)"/><path class="cls-3" d="M516,430.16a14,14,0,0,0,4.8,4.87l.1.06q.52.31,1.06.57l.23.11c.32.15.65.28,1,.41l.37.14c.29.1.59.18.88.26l.34.1.16,0c.41.09.83.16,1.25.22l.22,0a14,14,0,0,0,1.61.1h.18a13.07,13.07,0,0,0,1.79-.15c.37-.05.73-.14,1.09-.22l.38-.08a.17.17,0,0,0,.14,0l.17-.06a13.84,13.84,0,0,0,1.44-.49l.59-.26c.42-.19.82-.39,1.21-.62.21-.12.41-.26.62-.4.37-.24.73-.49,1.08-.76.17-.14.33-.29.49-.44a13.87,13.87,0,0,0,1-1l0,0,.07,0a12.7,12.7,0,0,0,1-1.13l.21-.29q.35-.47.65-1l.16-.27a12.26,12.26,0,0,0,1.14-2.73l0-.1.4,0h.29a14.92,14.92,0,0,0,2.06,0h.21a14.74,14.74,0,0,0,10.21-5.58l.12-.14a15,15,0,0,0,1.24-1.88l.12-.23a15,15,0,0,0,.87-2l.07-.18a14.79,14.79,0,0,0,.56-2.17c0-.13,0-.26.06-.4a14.89,14.89,0,0,0,.2-2.32c0-.42,0-.85-.06-1.28a18.94,18.94,0,0,0,2.13-1.32c.16-.11.3-.24.45-.36.5-.38,1-.77,1.44-1.19.2-.19.39-.39.58-.59.37-.38.73-.76,1.07-1.16.21-.25.4-.51.59-.77s.55-.76.81-1.15.38-.63.56-.95.4-.74.58-1.12.34-.74.49-1.12.26-.7.38-1.06.28-.86.39-1.3.14-.63.2-1c.1-.49.19-1,.25-1.49,0-.05,0-.1,0-.16.06-.53.08-1.07.1-1.62,0-.14,0-.27,0-.4a18.74,18.74,0,0,0-.14-2.23c0-.05,0-.1,0-.15a19.09,19.09,0,0,0-.39-2.07v0a18.86,18.86,0,0,0-1.56-4.15l-.12-.24h0v0c-.19-.36-.39-.71-.6-1L565,384c-.1-.14-.16-.3-.26-.44l-.26-.36-.09-.12c-.12-.17-.26-.33-.38-.5l-.36-.44,0-.06-.11-.13a18.88,18.88,0,0,0-1.86-2l0-.05a15.87,15.87,0,0,0,1.32-1.63c.12-.16.23-.32.34-.49a15.81,15.81,0,0,0,1-1.77c.08-.16.14-.31.21-.47a15.94,15.94,0,0,0-6.61-20.29c0-.07,0-.13,0-.2a15.87,15.87,0,0,0-13-15.66A15.77,15.77,0,0,0,528,329.36l-.47.07a15.78,15.78,0,0,0-1.59.34l-.38.1a15.79,15.79,0,0,0-1.85.66l-.21.1a15.93,15.93,0,0,0-1.5.78l-.41.25a15.92,15.92,0,0,0-1.38,1l-.19.14a16.07,16.07,0,0,0-1.41,1.3l-.27.3q-.52.57-1,1.18l-.29.39a16.06,16.06,0,0,0-1,1.61l-.06-.09A16,16,0,0,0,515,336l-.34-.45q-.43-.57-.92-1.1l-.33-.36a16.08,16.08,0,0,0-1.38-1.27l-.26-.2q-.62-.49-1.29-.91l-.47-.28a15.79,15.79,0,0,0-1.4-.73l-.31-.15a15.83,15.83,0,0,0-1.8-.65l-.47-.12c-.49-.13-1-.23-1.48-.31l-.56-.08a15.78,15.78,0,0,0-16.88,10.12,15.86,15.86,0,0,0-2.31.61l-.28.09a15.79,15.79,0,0,0-2,.9l-.34.18a15.69,15.69,0,0,0-1.8,1.19l-.29.22a15.84,15.84,0,0,0-1.62,1.48l-.17.19a16,16,0,0,0-1.44,1.81l0,0a15.85,15.85,0,0,0-2.59,7s0,0,0,.07v0a1.83,1.83,0,0,0-.1.29,13.34,13.34,0,0,0-.11,1.73s0,.07,0,.12c-.21.12-.4.28-.61.41-.37.24-.75.48-1.1.75-.14.11-.25.23-.39.34-.4.33-.8.67-1.17,1-.09.09-.16.19-.25.28a16,16,0,0,0-1.11,1.27c-.07.09-.13.2-.19.29a16,16,0,0,0-.94,1.42c-.08.14-.14.28-.21.42-.25.46-.5.93-.7,1.42-.09.22-.15.45-.23.67-.16.42-.32.84-.44,1.28s-.15.72-.22,1.08-.15.64-.2,1a15.78,15.78,0,0,0-.14,2.1,12.87,12.87,0,0,0,.14,2v0a15.78,15.78,0,0,0,.39,2c0,.14.05.28.09.42a15.38,15.38,0,0,0,.59,1.64c.08.2.14.4.23.59.19.42.44.82.67,1.22s.31.59.49.86l0,.06a27.31,27.31,0,0,0-20.66,24.34,27,27,0,0,0,8.08,21.18,5.87,5.87,0,0,1,1.86,4.16V436a7.14,7.14,0,0,0,7.12,7.12h19.76A7.14,7.14,0,0,0,492,436v-5.84c.06.1.14.19.2.29s.19.28.29.43c.22.33.44.65.69,1l.26.3a13.92,13.92,0,0,0,4,3.23l0,0a13.85,13.85,0,0,0,1.83.81l.11,0,.18.06.11,0c.39.13.79.24,1.2.33l.13,0a5.2,5.2,0,0,0,.54.12l.23,0a12.89,12.89,0,0,0,3.79.1l.37-.06c.37-.05.74-.11,1.1-.19l.19,0,.39-.12.79-.24.44-.16c.31-.12.62-.24.92-.38l.28-.14q.52-.25,1-.54l.14-.08q.56-.34,1.08-.73h0A14,14,0,0,0,516,430.16Zm2.06-86.73c0-.15,0-.29.07-.44a12,12,0,0,1,.39-1.58c0-.09.07-.18.1-.27a12.06,12.06,0,0,1,.6-1.42l.09-.19a12,12,0,0,1,.9-1.44l.14-.19a12.2,12.2,0,0,1,2.46-2.45l.14-.11a12.11,12.11,0,0,1,1.49-.93l.09,0a12.07,12.07,0,0,1,1.59-.67l.12,0a12.17,12.17,0,0,1,1.67-.41l.35-.05a11.8,11.8,0,0,1,1.65-.14H530a11.9,11.9,0,0,1,1.91.16,11.2,11.2,0,0,1,1.21.3c.22.06.45.09.66.17h.05l.1,0a12.19,12.19,0,0,1,1.49.64l.46.26a12.13,12.13,0,0,1,1.07.68l.41.3a12.16,12.16,0,0,1,2.4,2.48c.1.14.19.28.28.42a12,12,0,0,1,.65,1.1c.09.17.18.33.25.5a12.07,12.07,0,0,1,.51,1.32c0,.11.09.22.12.33a1.89,1.89,0,0,0,.56.86,1.91,1.91,0,0,0,1.1.51,12.14,12.14,0,0,1,2,.4l.42.12a11.85,11.85,0,0,1,1.3.52c.23.1.47.19.69.31a12.06,12.06,0,0,1,1.57,1c.3.22.56.48.84.73s.41.36.6.55a11.82,11.82,0,0,1,.79.93c.14.18.27.35.4.54a11.93,11.93,0,0,1,.69,1.12c.08.15.16.31.24.47a12.22,12.22,0,0,1,.58,1.34l0,.1a12.21,12.21,0,0,1,.64,3.56,9.42,9.42,0,0,0-3.83.72l-.41.18a9,9,0,0,0-.88.48c-.17.1-.34.2-.5.32a8.79,8.79,0,0,0-.78.64c-.11.1-.24.18-.34.28a9,9,0,0,0-2.48,4.87s0,.06,0,.1a10.27,10.27,0,0,0,0,3,1.62,1.62,0,0,0,.14.44l0,.08a1.91,1.91,0,0,0,.18.3l.15.18a1.52,1.52,0,0,0,.49.37,1.47,1.47,0,0,0,.76.23l.13,0,.3,0a1.76,1.76,0,0,0,.18-.07,1.87,1.87,0,0,0,1.09-.74,1.92,1.92,0,0,0,.33-1.39,5.71,5.71,0,0,1,1.46-4.68,5.06,5.06,0,0,1,1.07-.79l.32-.17a5.4,5.4,0,0,1,.93-.34c.13,0,.26-.09.39-.12a5.65,5.65,0,0,1,1.41-.1h.1a5.75,5.75,0,0,1,1.41.28h0a1.92,1.92,0,0,0,.64.08h.24c.22.15.43.32.64.48s.43.31.63.49.36.34.54.51.42.41.62.63.29.35.43.53.38.5.56.76.23.36.34.54.33.58.48.88.17.35.25.53c.14.33.27.67.38,1,.05.16.11.32.16.49a11.94,11.94,0,0,1,.27,1.24c0,.12.05.23.07.35a11.87,11.87,0,0,1,.12,1.66s0,.08,0,.12a11,11,0,0,1-.16,1.78l0,.2a11.92,11.92,0,0,1-1.25,3.61l0,.09a12,12,0,0,1-2.43,3.08l-.12,0c-.43-.19-.88-.37-1.33-.52l-.42-.15q-.76-.24-1.54-.4l-.17,0c-.5-.1-1-.17-1.51-.22-.29,0-.57,0-.86,0l-.62,0c-.36,0-.73,0-1.09,0l-.38,0c-.4,0-.79.09-1.18.16l-.27,0c-.41.08-.82.17-1.23.28l-.19,0c-.43.12-.84.26-1.26.41l-.12,0c-.44.17-.86.35-1.28.56l0,0q-.65.32-1.28.7a13,13,0,0,0-1.37-.8l-.25-.12a13.38,13.38,0,0,0-1.35-.58l-.42-.12a13.94,13.94,0,0,0-2.16-.5c-.26,0-.51-.1-.77-.12l-.37,0-.39,0h-.06a8.4,8.4,0,0,0,.42-1.26c0-.1,0-.2.06-.29s.11-.45.15-.68a10,10,0,0,0,.19-1.84,1.94,1.94,0,0,0-.15-.75,1.85,1.85,0,0,0-.14-.21,1.89,1.89,0,0,0-1.63-1,1.85,1.85,0,0,0-.89.25,1.9,1.9,0,0,0-1,1.68,6.88,6.88,0,0,1-6.89,6.89,1.92,1.92,0,0,0-1.92,1.92h0a1.92,1.92,0,0,0,1.92,1.92h.12A10,10,0,0,0,528,383l.61-.11h0a11.14,11.14,0,0,0,4.34-2.19l.36-.07a11.55,11.55,0,0,1,1.21-.19h.11a9.67,9.67,0,0,1,1.48,0c.23,0,.45,0,.68.08s.42,0,.62.08a8.1,8.1,0,0,1,.9.23l.28.08a9.84,9.84,0,0,1,1.32.52l.31.14a9.19,9.19,0,0,1,1,.65c.12.08.25.16.36.25a8.62,8.62,0,0,1,.88.82c.1.1.21.19.3.29a7.86,7.86,0,0,1,.94,1.31h0a7.8,7.8,0,0,1,.58,1.31l.08.21a8.21,8.21,0,0,1,.28,1.23c0,.09,0,.18,0,.27a9,9,0,0,1,.06,1.11c0,.14,0,.27,0,.4s0,.38,0,.57a10.08,10.08,0,0,1-.16,1,11.13,11.13,0,0,1-.62,2.17l-.12.27,0,0a1.89,1.89,0,0,0-.17.71c0,.05,0,.1,0,.15a1.86,1.86,0,0,0,.08.54,1.76,1.76,0,0,0,.09.21,1.72,1.72,0,0,0,.21.35,1.81,1.81,0,0,0,.3.3l.06.06a1,1,0,0,0,.34.24,1.93,1.93,0,0,0,.57.13,2,2,0,0,0,.24.06,1.91,1.91,0,0,0,1.64-1c0-.05.07-.09.1-.14l0-.09.14-.31.1-.23c.08-.19.16-.42.25-.68l.08-.22c.09-.27.18-.58.26-.91l.09-.37c.07-.29.13-.6.19-.92,0-.13.05-.24.08-.37s0-.22,0-.32c0-.29.06-.59.08-.89,0-.14,0-.28,0-.43q0-.49,0-1c0-.11,0-.21,0-.32a12.48,12.48,0,0,0-.16-1.3c0-.14-.05-.27-.08-.41a11.77,11.77,0,0,0-.35-1.32s0-.07,0-.11c-.1-.27-.21-.53-.32-.79l-.07-.17c0-.11-.11-.22-.17-.33s-.21-.45-.34-.67l0-.07a11.25,11.25,0,0,0-.87-1.27,9.37,9.37,0,0,1,1.7-.66,11.64,11.64,0,0,1,2.87-.56h.1a11.64,11.64,0,0,1,1.26,0h.28a11.55,11.55,0,0,1,1.41.19l.11,0a12.07,12.07,0,0,1,1.71.51c.31.11.62.24.92.38a12.05,12.05,0,0,1,1.08.57c.28.17.57.33.83.52s.61.48.9.74.54.44.78.69a12.16,12.16,0,0,1,.91,1.11c.13.17.28.32.41.5s.3.5.46.76a12.36,12.36,0,0,1,.62,1.21l0,.08a12.18,12.18,0,0,1,.44,1.18c0,.13.07.26.11.39.09.31.17.62.24.93a12,12,0,0,1,.19,1.44,416.72,416.72,0,0,0,.15.58,1.86,1.86,0,0,0,.22.38l.06.1c0,.32.05.66.07,1,0,.14,0,.28,0,.43a15.16,15.16,0,0,1-.15,2.09c0,.07,0,.13,0,.2a15.09,15.09,0,0,1-.43,1.93c-.06.21-.14.4-.21.61-.14.4-.29.8-.46,1.19s-.26.55-.4.82-.3.56-.46.83-.37.62-.57.91-.24.31-.35.46a15.19,15.19,0,0,1-3.14,3.09l-.29.21q-.59.41-1.23.77l-.13.07h0l-.17.08a8.45,8.45,0,0,1-4.53,1c-.2,0-.38,0-.58,0a8,8,0,0,1-2.8-1,8.78,8.78,0,0,1-1.15-.76,1.89,1.89,0,0,0-3,2,1.87,1.87,0,0,0,.62,1c.13.1.3.22.45.33l.39.29.09.05.25.16q.45.28,1,.55l.24.12a11.74,11.74,0,0,0,1.35.53l.47.14.51.15.08,0a6.83,6.83,0,0,0,.81.15l.16,0c.25,0,.49,0,.73.05s.66.08,1,.08a13.11,13.11,0,0,0,2-.18v0c0,.07,0,.13,0,.19a10.76,10.76,0,0,1-.16,1.68c0,.13,0,.26-.07.39a11,11,0,0,1-.52,1.76l-.06.14a11,11,0,0,1-.67,1.38l-.09.17a11,11,0,0,1-.95,1.35l-.09.1a11.27,11.27,0,0,1-1,1.08l-.18.17a10.89,10.89,0,0,1-2.76,1.74l-.25.1a10.77,10.77,0,0,1-3.24.77l-.35,0a11.26,11.26,0,0,1-1.49,0H542v0a12.33,12.33,0,0,0-3.61-8.23,1.86,1.86,0,0,0-.27-.18,1.88,1.88,0,0,0-2.64,2.62,1.81,1.81,0,0,0,.18.28l.11.13a8.45,8.45,0,0,1,.71.86,8.29,8.29,0,0,1,.49.75c.12.21.24.42.34.64s.21.45.3.68a8.47,8.47,0,0,1,.28.93c0,.17.1.34.13.51a8.62,8.62,0,0,1,.15,1.57c0,.16,0,.32,0,.48v.08l0,.05a1.86,1.86,0,0,0-.07.2,9.85,9.85,0,0,1-.36,1.58c0,.15-.09.3-.15.44a9.93,9.93,0,0,1-.48,1.1c-.1.19-.2.39-.3.57a10,10,0,0,1-.57.85c-.15.2-.29.41-.46.6s-.42.46-.65.67-.38.38-.58.54-.5.38-.76.55-.42.3-.64.43a9.93,9.93,0,0,1-.93.46c-.21.09-.41.2-.62.28a10.11,10.11,0,0,1-1.24.35c-.15,0-.29.09-.44.12a10,10,0,0,1-1.8.17A10.09,10.09,0,0,1,518,423.14V410.69a6,6,0,0,1,.11-1.12c0-.1,0-.19.07-.29a6,6,0,0,1,.24-.76c0-.11.09-.22.14-.33a6,6,0,0,1,.35-.65c.06-.1.12-.2.18-.3a5.94,5.94,0,0,1,.58-.7,6,6,0,0,1,.49-.44l.31-.26a6,6,0,0,1,.63-.4l.16-.09A5.87,5.87,0,0,1,522,405a5.24,5.24,0,0,1,.93-.26l.39,0a5.74,5.74,0,0,1,.65-.06l.29,0a6,6,0,0,1,1,.12l.49.13a6,6,0,0,1,.85.33l.33.15a6,6,0,0,1,1,.7l.18.17a6,6,0,0,1,.88,1c0,.06.1.09.15.15a1.94,1.94,0,0,0,.35.35,1.75,1.75,0,0,0,.24.12,1.81,1.81,0,0,0,.39.16,1.94,1.94,0,0,0,1,0l.13,0a1.31,1.31,0,0,0,.31-.16l.09,0a1.92,1.92,0,0,0,.52-2.67,10,10,0,0,0-8.19-4.35,9.35,9.35,0,0,0-1.82.19c-.29.05-.56.15-.84.23s-.49.14-.73.23a9.89,9.89,0,0,0-1.2.55l-.16.09a9.72,9.72,0,0,0-1.26.83V354.68a14,14,0,0,0,1.4,1.28l.14.1a13.76,13.76,0,0,0,1.38.94l.23.14a13.73,13.73,0,0,0,1.65.8l.15.06a13.67,13.67,0,0,0,1.71.54l.09,0h.08c.37.09.74.15,1.11.21l.55.08.65,0c.28,0,.55.05.83.05s.43,0,.65,0,.54,0,.81-.05l.58-.08c.35-.05.7-.11,1-.19l.19,0,.2-.06q.47-.12.94-.28l.52-.18c.3-.11.59-.24.88-.38l.39-.18a13.84,13.84,0,0,0,3.35-2.34,1.87,1.87,0,0,0,.52-1,1.83,1.83,0,0,0-.14-1.21,1.74,1.74,0,0,0-1.57-1.08,1.85,1.85,0,0,0-1.46.51,10,10,0,0,1-6.88,2.74l-.32,0a10,10,0,0,1-1.56-.16c-.24,0-.47-.13-.71-.19a10,10,0,0,1-1.06-.33c-.25-.1-.48-.22-.72-.34a9.94,9.94,0,0,1-.91-.49c-.22-.14-.44-.3-.65-.45a9.89,9.89,0,0,1-.8-.66c-.19-.17-.37-.35-.54-.53a10,10,0,0,1-.71-.86c-.14-.18-.27-.36-.4-.55a10.17,10.17,0,0,1-.62-1.14c-.07-.15-.16-.3-.22-.46a9.93,9.93,0,0,1-.75-3.78s0-.08,0-.13A12,12,0,0,1,518.09,343.43Zm-27.64-1.67a11.72,11.72,0,0,1,.64-1.69c.06-.13.13-.26.2-.4a12,12,0,0,1,.71-1.21l.23-.35a12.16,12.16,0,0,1,2.43-2.51l.39-.28a12.11,12.11,0,0,1,1.09-.69l.45-.25a12,12,0,0,1,1.46-.63l.13-.05.11,0c.13,0,.28-.06.41-.1a11.21,11.21,0,0,1,1.42-.35,11.2,11.2,0,0,1,3.68,0l.28,0a12.13,12.13,0,0,1,1.72.43l0,0a12,12,0,0,1,1.69.71h0a12.17,12.17,0,0,1,1.54,1l.09.07a12.22,12.22,0,0,1,2.52,2.51l.09.13a12.06,12.06,0,0,1,.93,1.49l0,.1a12.06,12.06,0,0,1,.66,1.54l.06.17a11.94,11.94,0,0,1,.41,1.65c0,.11,0,.23.05.34a11.91,11.91,0,0,1,.14,1.73v25.25a14.52,14.52,0,0,0-1.22-1.19l-.11-.09a14.7,14.7,0,0,0-1.26-1,1.89,1.89,0,0,0-1.14-.29,1.82,1.82,0,0,0-.46.06,1.88,1.88,0,0,0-1.07.75,1.92,1.92,0,0,0,.52,2.67l.23.17a3.48,3.48,0,0,1,.46.36,10.44,10.44,0,0,1,.86.75l.1.1c.22.22.43.45.63.69l.28.36c.14.18.27.37.4.56s.24.38.36.58.17.3.25.45.24.5.35.76.11.24.15.36c.11.3.21.61.29.93,0,.09.06.18.08.27a10.8,10.8,0,0,1,.21,1.15l0,.1a10.91,10.91,0,0,1,.08,1.32,10.76,10.76,0,0,1-.2,2,10.45,10.45,0,0,1-.3,1.09c-.09.29-.16.6-.27.88s-.26.56-.4.83a10.45,10.45,0,0,1-.52,1c-.15.24-.32.46-.48.68a10.77,10.77,0,0,1-.74.89c-.18.19-.36.38-.56.56a10.88,10.88,0,0,1-.93.77c-.2.15-.4.3-.61.43a10.65,10.65,0,0,1-1.13.62c-.21.1-.41.21-.62.29a10.69,10.69,0,0,1-1.42.44c-.17,0-.33.11-.51.14a10.73,10.73,0,0,1-2.08.21,1.92,1.92,0,0,0-.76,3.69h0a1.93,1.93,0,0,0,.74.15h0a14.59,14.59,0,0,0,1.74-.11l.21,0a14.47,14.47,0,0,0,5.5-1.92l.11-.07a14.65,14.65,0,0,0,3.18-2.61h0v16.08c-.12,0-.25-.07-.38-.1a5.84,5.84,0,0,0-1.25-.23l-.3,0c-.19,0-.38,0-.56,0s-.33,0-.5,0-.33.07-.5.11-.36.1-.54.16l-.44.18a5.79,5.79,0,0,0-.55.29l-.37.23a6,6,0,0,0-.56.45c-.09.08-.19.15-.27.24a5.94,5.94,0,0,0-.72.86,1.92,1.92,0,0,0,.52,2.67s.1,0,.14.06a1.3,1.3,0,0,0,.32.15l.08,0a1.86,1.86,0,0,0,.34.07,1.8,1.8,0,0,0,.43,0l.2,0a1.84,1.84,0,0,0,.57-.23l.05,0a1.89,1.89,0,0,0,.55-.52,2,2,0,0,1,.64-.61,2.06,2.06,0,0,1,.61-.25l.13,0a2,2,0,0,1,.59,0l.14,0a2,2,0,0,1,.71.29,2,2,0,0,1,.9,1.7v11.5A10,10,0,0,1,502.28,433l-.17,0a5.65,5.65,0,0,1-.78-.22,10,10,0,0,1-1-.32,6.75,6.75,0,0,1-.86-.42,7.38,7.38,0,0,1-.78-.42,7.63,7.63,0,0,1-.8-.6c-.21-.15-.41-.32-.62-.49a10,10,0,0,1-.75-.78,8.05,8.05,0,0,1-.52-.64c-.08-.1-.14-.21-.22-.31s-.22-.31-.32-.48-.16-.28-.24-.42-.13-.24-.19-.36a6.84,6.84,0,0,1-.39-.9c-.05-.14-.09-.28-.14-.42s-.1-.28-.13-.41-.08-.28-.11-.43-.07-.26-.09-.4a10,10,0,0,1-.2-1.65,28.33,28.33,0,0,0,3.64-4.44,1.92,1.92,0,0,0,3.68-.76,11.81,11.81,0,0,0-.94-4.6,27,27,0,0,0-26.44-36.38c-.28,0-.54,0-.82.06a11.68,11.68,0,0,1-.94-1.22c-.15-.22-.33-.41-.46-.64s-.25-.51-.38-.77a11.71,11.71,0,0,1-.6-1.28c0-.13-.07-.26-.11-.39a11.7,11.7,0,0,1-.46-1.82,0,0,0,0,1,0,0,10.06,10.06,0,0,1-.18-1.92,11.85,11.85,0,0,1,.11-1.57c0-.19.07-.37.1-.56s.13-.63.21-.94.14-.47.21-.7.16-.45.25-.68.22-.55.36-.82l.16-.3a12.28,12.28,0,0,1,3.35-4,12.66,12.66,0,0,0,.68,1.67l0,.09a12.45,12.45,0,0,0,1,1.7l0,0h0a13.15,13.15,0,0,0,1.43,1.63l.39.37a13.06,13.06,0,0,0,1.6,1.26l.38.23a13,13,0,0,0,1.57.81l.41.18a12.82,12.82,0,0,0,2,.6l.13,0c.21,0,.43.07.64.1l.42.07a12.27,12.27,0,0,0,1.44.09c.35,0,.71,0,1.07-.07l.45,0c.2,0,.4-.08.6-.12l.07.05,0,0a6.8,6.8,0,0,1,2.17,2.24c.05.09.11.17.16.27a6.78,6.78,0,0,1,.31.69c.06.15.12.29.17.44s.13.44.18.66.07.37.09.56.06.41.07.62a6.92,6.92,0,0,1,0,.7c0,.17,0,.34,0,.51a6.8,6.8,0,0,1-.25,1.14,8,8,0,0,1-.6,1.38,1.88,1.88,0,0,0-.23.72,1.85,1.85,0,0,0,0,.4,1.33,1.33,0,0,0,.28.88l0,.05a1.92,1.92,0,0,0,.43.43s.05.06.08.08a.2.2,0,0,0,.1.08,2,2,0,0,0,1,.26,2.07,2.07,0,0,0,1.66-1l0-.1a10.54,10.54,0,0,0,.76-1.71c.08-.23.13-.45.19-.68s.17-.52.22-.78v0c0-.1,0-.2,0-.31.06-.34.09-.68.11-1s0-.54,0-.81a10.71,10.71,0,0,0-.06-1.15c0-.17-.06-.33-.09-.5a10.69,10.69,0,0,0-2.67-5.49l-.1-.13a13.08,13.08,0,0,0,5.54-6.34h0a11.61,11.61,0,0,0,2.06.18,12.2,12.2,0,0,0,1.62-.12l.18,0a13.61,13.61,0,0,0,2.42-.59l.71-.27.25-.09a14.77,14.77,0,0,0,1.54-.75c.27-.16.47-.28.62-.39l.25-.17a2,2,0,0,0,.45-2.68,1.9,1.9,0,0,0-1.12-.73,1.88,1.88,0,0,0-1.57.28,10.42,10.42,0,0,1-4.46,1.6,7.86,7.86,0,0,1-3.72-.46,8.82,8.82,0,0,1-4.68-4.6,1.94,1.94,0,0,0-.12-.17,1.9,1.9,0,0,0-2.4-.83,1.85,1.85,0,0,0-.71.57,1.9,1.9,0,0,0-.29,2c.08.19.19.43.33.69l0,0c.13.25.28.51.45.8l0,0,.06.09c.17.27.37.56.58.85l.26.33c.2.25.42.51.66.76l.31.32a12.39,12.39,0,0,0,1,.86l.23.19a11.77,11.77,0,0,0,1.48,1v0a9.8,9.8,0,0,1-1.8,2.69l0,0a9.08,9.08,0,0,1-1,.91l-.26.19a8.92,8.92,0,0,1-.9.57l-.41.22a8.71,8.71,0,0,1-.89.36c-.16.06-.31.12-.46.17a8,8,0,0,1-3.09.31,9.21,9.21,0,0,1-5.41-2.34,9,9,0,0,1-1.28-1.4c-.07-.1-.12-.2-.19-.29s-.28-.42-.4-.63-.13-.27-.2-.4-.17-.35-.24-.53-.12-.32-.17-.47-.09-.28-.13-.41-.1-.35-.14-.52-.11-.47-.14-.69a1.86,1.86,0,0,0,0-.59,11.27,11.27,0,0,1-.06-1.16,12.26,12.26,0,0,1,.2-2.13c0-.22.11-.43.16-.65a12,12,0,0,1,.39-1.36c.09-.24.2-.48.3-.72a11.93,11.93,0,0,1,.57-1.14c.14-.24.28-.47.43-.7s.47-.65.72-1,.36-.45.56-.65.55-.52.84-.78.45-.41.69-.59.57-.37.87-.55a12,12,0,0,1,2-1c.21-.08.4-.18.62-.25a5.91,5.91,0,0,1,.65-.18,12.14,12.14,0,0,1,1.87-.37A1.94,1.94,0,0,0,490.45,341.76ZM488,427.58V436a3.12,3.12,0,0,1-3.12,3.12H465.15A3.12,3.12,0,0,1,462,436v-8.44a9.79,9.79,0,0,0-3.06-7,22.9,22.9,0,0,1-6.88-18,23.23,23.23,0,0,1,16.34-20.4,22.06,22.06,0,0,1,5.64-1c.32,0,.62,0,.94,0h0a23,23,0,0,1,23,23,22.4,22.4,0,0,1-.64,5.32,18.57,18.57,0,0,1-.58,2.06,22.31,22.31,0,0,1-.93,2.3c-.1.22-.22.44-.34.65-.26.51-.53,1-.82,1.49q-.24.39-.49.78c-.29.44-.61.88-.94,1.31-.18.23-.35.47-.54.7a23.64,23.64,0,0,1-1.66,1.82,10.21,10.21,0,0,0-.88,1,8.84,8.84,0,0,0-1.1,1.66,9.07,9.07,0,0,0-1,3.8A2.67,2.67,0,0,0,488,427.58Z" transform="translate(-430.03 -312)"/><path class="cls-3" d="M516,323.43h0a2,2,0,0,0,2-2l.11-7.43a2,2,0,0,0-4-.06L514,321.4A2,2,0,0,0,516,323.43Z" transform="translate(-430.03 -312)"/><path class="cls-3" d="M578,411.34l-6.68-3.25a2,2,0,1,0-1.75,3.6l6.68,3.25a2,2,0,0,0,1.75-3.6Z" transform="translate(-430.03 -312)"/><path class="cls-3" d="M546,331.95a2,2,0,0,0,2.74-.69l3.81-6.38a2,2,0,1,0-3.43-2.05l-3.81,6.38A2,2,0,0,0,546,331.95Z" transform="translate(-430.03 -312)"/><path class="cls-3" d="M569.46,355.34a2,2,0,0,0,1-.25l6.49-3.62A2,2,0,0,0,575,348l-6.49,3.62a2,2,0,0,0,1,3.75Z" transform="translate(-430.03 -312)"/><path class="cls-3" d="M582,380.79l-7.43-.11a2,2,0,1,0-.06,4l7.43.11h0a2,2,0,0,0,0-4Z" transform="translate(-430.03 -312)"/><path class="cls-3" d="M442,403.14a2,2,0,0,0-2-2h-8a2,2,0,0,0,0,4h8A2,2,0,0,0,442,403.14Z" transform="translate(-430.03 -312)"/><path class="cls-3" d="M446.42,384.29l-6.93-4a2,2,0,0,0-2,3.46l6.93,4a2,2,0,1,0,2-3.46Z" transform="translate(-430.03 -312)"/><path class="cls-3" d="M453.64,365.24a2,2,0,0,0-.73,2.73l4,6.93a2,2,0,1,0,3.46-2l-4-6.93A2,2,0,0,0,453.64,365.24Z" transform="translate(-430.03 -312)"/><path class="cls-3" d="M442.92,418.92l-6.93,4a2,2,0,0,0,2,3.46l6.93-4a2,2,0,0,0-2-3.46Z" transform="translate(-430.03 -312)"/><path class="cls-3" d="M453.07,357.36a2,2,0,0,0,2.64-1,66.35,66.35,0,0,1,31.8-32.72,2,2,0,1,0-1.73-3.61,70.36,70.36,0,0,0-33.72,34.7A2,2,0,0,0,453.07,357.36Z" transform="translate(-430.03 -312)"/><path class="cls-3" d="M566.73,425.34A65.87,65.87,0,0,1,516,449.14a2,2,0,0,0,0,4,69.86,69.86,0,0,0,53.77-25.23,2,2,0,1,0-3.07-2.56Z" transform="translate(-430.03 -312)"/><circle class="cls-3" cx="79.99" cy="139.14" r="2.09"/><circle class="cls-3" cx="62" cy="6.82" r="2.09"/><path class="cls-3" d="M483,403.21a6.93,6.93,0,0,0-6.92,6.92v3.08H474v-3.08a6.92,6.92,0,1,0-6.92,6.92h3.08v16.08a1.92,1.92,0,0,0,3.85,0V417.06h2.15v16.08a1.92,1.92,0,0,0,3.85,0V417.06H483a6.92,6.92,0,1,0,0-13.85Zm-16,10a3.08,3.08,0,1,1,3.08-3.08v3.08H467Zm16,0H480v-3.08a3.08,3.08,0,1,1,3.08,3.08Z" transform="translate(-430.03 -312)"/><path class="cls-3" d="M488,445.21H462a1.92,1.92,0,1,0,0,3.85h26a1.92,1.92,0,1,0,0-3.85Z" transform="translate(-430.03 -312)"/><path class="cls-3" d="M486,451.21H464a1.92,1.92,0,1,0,0,3.85h22a1.92,1.92,0,1,0,0-3.85Z" transform="translate(-430.03 -312)"/><path class="cls-3" d="M480,457.21H470a1.92,1.92,0,0,0-1.92,1.92v1a6.92,6.92,0,0,0,13.85,0v-1A1.92,1.92,0,0,0,480,457.21Zm-5,6a3.08,3.08,0,0,1-2.94-2.15H478A3.08,3.08,0,0,1,475,463.21Z" transform="translate(-430.03 -312)"/></svg>