<svg id="Режим_изоляции" data-name="Режим изоляции" xmlns="http://www.w3.org/2000/svg" viewBox="0 0 157.18 160.48"><defs><style>.cls-1{fill:#e74c3c;}.cls-2{fill:#008fcb;}.cls-3{fill:#252525;}</style></defs><title>02-icon-opyt</title><path class="cls-1" d="M199.9,728.31c-1.78-.75-3.54-1.59-5.24-2.48a2,2,0,0,0-1.86,3.54c1.8.94,3.66,1.82,5.53,2.62a2,2,0,0,0,1.56-3.68Z" transform="translate(-149.41 -581.76)"/><path class="cls-1" d="M163.51,694.07a2,2,0,1,0-3.58,1.78c.9,1.81,1.89,3.62,2.94,5.36a2,2,0,1,0,3.42-2.07C165.31,697.49,164.37,695.78,163.51,694.07Z" transform="translate(-149.41 -581.76)"/><path class="cls-1" d="M152.58,671.35a2,2,0,0,0,2,1.75h.25a2,2,0,0,0,1.74-2.23c-.14-1.17-.26-2.36-.35-3.54q-.08-1.12-.13-2.23a2,2,0,0,0-4,.16q0,1.18.14,2.37C152.3,668.86,152.42,670.12,152.58,671.35Z" transform="translate(-149.41 -581.76)"/><path class="cls-1" d="M171.59,706.75a2,2,0,0,0-3.13,2.49c1.26,1.59,2.61,3.15,4,4.63a2,2,0,0,0,2.92-2.73C174.06,709.73,172.79,708.25,171.59,706.75Z" transform="translate(-149.41 -581.76)"/><path class="cls-1" d="M256.17,595.73c1.77.75,3.53,1.59,5.24,2.49a2,2,0,0,0,1.86-3.54c-1.8-.95-3.66-1.83-5.53-2.63a2,2,0,1,0-1.57,3.68Z" transform="translate(-149.41 -581.76)"/><path class="cls-1" d="M186.74,721c-1.58-1.11-3.13-2.29-4.61-3.51a2,2,0,1,0-2.55,3.08c1.56,1.29,3.2,2.54,4.87,3.71a2,2,0,0,0,2.29-3.28Z" transform="translate(-149.41 -581.76)"/><path class="cls-1" d="M154.11,657.63h.17a2,2,0,0,0,2-1.83c.16-1.92.4-3.85.71-5.75a2,2,0,0,0-3.95-.65c-.33,2-.59,4-.75,6.08A2,2,0,0,0,154.11,657.63Z" transform="translate(-149.41 -581.76)"/><path class="cls-1" d="M196.77,596.89a2,2,0,0,0,.84-.19c1.75-.82,3.55-1.57,5.35-2.23a2,2,0,1,0-1.39-3.75c-1.9.7-3.8,1.5-5.65,2.36a2,2,0,0,0,.85,3.81Z" transform="translate(-149.41 -581.76)"/><path class="cls-1" d="M183.52,604.87a2,2,0,0,0,1.2-.4c1.54-1.16,3.14-2.27,4.76-3.31a2,2,0,1,0-2.15-3.37c-1.71,1.09-3.4,2.26-5,3.49a2,2,0,0,0,1.21,3.6Z" transform="translate(-149.41 -581.76)"/><path class="cls-1" d="M226.78,590q2.93-.05,5.8.13h.13a2,2,0,0,0,.12-4c-2-.13-4.07-.17-6.12-.14a2,2,0,0,0,.07,4Z" transform="translate(-149.41 -581.76)"/><path class="cls-1" d="M162.34,627.82a2,2,0,0,0,2.72-.78c.94-1.68,2-3.35,3-5a2,2,0,0,0-3.33-2.22c-1.12,1.69-2.2,3.45-3.19,5.22A2,2,0,0,0,162.34,627.82Z" transform="translate(-149.41 -581.76)"/><path class="cls-1" d="M229.32,734h0c-1.94,0-3.89,0-5.79-.12a2,2,0,0,0-.25,4c1.54.1,3.12.14,4.68.14h1.43a2,2,0,0,0,0-4Z" transform="translate(-149.41 -581.76)"/><path class="cls-1" d="M299.36,681.75a2,2,0,0,0-2.5,1.33c-.56,1.84-1.21,3.68-1.92,5.47a2,2,0,1,0,3.72,1.48c.75-1.89,1.43-3.83,2-5.78A2,2,0,0,0,299.36,681.75Z" transform="translate(-149.41 -581.76)"/><path class="cls-1" d="M292.53,630a2,2,0,0,0,3.58-1.78c-.9-1.82-1.9-3.63-2.94-5.37a2,2,0,1,0-3.42,2.07C290.74,626.6,291.67,628.31,292.53,630Z" transform="translate(-149.41 -581.76)"/><path class="cls-1" d="M293.69,696.15a2,2,0,0,0-2.72.78c-.94,1.68-2,3.35-3,5a2,2,0,1,0,3.33,2.22c1.13-1.69,2.2-3.45,3.19-5.22A2,2,0,0,0,293.69,696.15Z" transform="translate(-149.41 -581.76)"/><path class="cls-1" d="M303.42,652.76a2,2,0,1,0-4,.52c.15,1.12.26,2.26.35,3.41q.09,1.18.14,2.35a2,2,0,0,0,2,1.92H302a2,2,0,0,0,1.92-2.08q-.05-1.24-.14-2.48C303.7,655.17,303.58,653.95,303.42,652.76Z" transform="translate(-149.41 -581.76)"/><path class="cls-1" d="M269.31,603.06c1.57,1.11,3.12,2.29,4.6,3.53a2,2,0,1,0,2.56-3.07c-1.56-1.3-3.2-2.55-4.86-3.72a2,2,0,0,0-2.3,3.27Z" transform="translate(-149.41 -581.76)"/><path class="cls-1" d="M301.9,666.49a2,2,0,0,0-2.17,1.82c-.17,1.92-.41,3.85-.73,5.75a2,2,0,0,0,1.64,2.3,2,2,0,0,0,.34,0,2,2,0,0,0,2-1.67c.34-2,.6-4,.77-6.07A2,2,0,0,0,301.9,666.49Z" transform="translate(-149.41 -581.76)"/><path class="cls-1" d="M211.39,591.88a2,2,0,0,0,.45-.05c1.88-.43,3.79-.79,5.7-1.06a2,2,0,0,0-.58-4c-2,.29-4,.67-6,1.13a2,2,0,0,0,.44,3.95Z" transform="translate(-149.41 -581.76)"/><path class="cls-1" d="M284.45,617.35a2,2,0,0,0,3.13-2.49c-1.27-1.59-2.61-3.15-4-4.63a2,2,0,0,0-2.92,2.73C282,614.36,283.25,615.84,284.45,617.35Z" transform="translate(-149.41 -581.76)"/><path class="cls-1" d="M244.22,732.16c-1.87.43-3.79.79-5.7,1.07a2,2,0,0,0,.29,4l.29,0c2-.29,4-.68,6-1.13a2,2,0,1,0-.9-3.9Z" transform="translate(-149.41 -581.76)"/><path class="cls-1" d="M271.33,719.51c-1.54,1.16-3.14,2.27-4.76,3.3a2,2,0,1,0,2.14,3.38c1.71-1.09,3.4-2.26,5-3.49a2,2,0,1,0-2.41-3.19Z" transform="translate(-149.41 -581.76)"/><path class="cls-1" d="M258.44,727.27c-1.74.81-3.54,1.57-5.35,2.24a2,2,0,1,0,1.39,3.75c1.9-.71,3.8-1.5,5.65-2.36a2,2,0,0,0-1.69-3.62Z" transform="translate(-149.41 -581.76)"/><path class="cls-1" d="M242.77,595.62a6,6,0,0,0,7.08-4.27s0-.05,0-.08,0-.11,0-.16v0a6,6,0,1,0-7.16,4.55Z" transform="translate(-149.41 -581.76)"/><path class="cls-2" d="M177.9,616a6,6,0,0,0,.13-7.93,1.8,1.8,0,0,0-.77-.76,6,6,0,1,0,.64,8.68Z" transform="translate(-149.41 -581.76)"/><circle class="cls-1" cx="157.41" cy="684.2" r="6" transform="translate(-347.45 -503.01) rotate(-17.46)"/><circle class="cls-2" cx="211.93" cy="734.23" r="6" transform="translate(-700.21 199.93) rotate(-77.46)"/><circle class="cls-1" cx="282.52" cy="712.03" r="6" transform="translate(-582.53 -142.99) rotate(-47.46)"/><path class="cls-2" d="M292.87,641.6a6,6,0,0,0,7.25,4h.06l.08,0,.13,0a6,6,0,1,0-7.52-3.92Z" transform="translate(-149.41 -581.76)"/><path class="cls-2" d="M275.59,668.77c-.84-.22-6.94-.44-6.94-.44a3.91,3.91,0,0,1-3.9-3.4c-1.71-11.42-.14-6.22-.14-9,2.84,2.1,2.69,3.54,3.61,5.94.61,1.58.51,3,1.32,3.79a3.21,3.21,0,0,0,2.17.75c1.25.09,7.77.56,9.77-4,1.51-3.47-.74-7.13-1-7.5a53.77,53.77,0,0,0-14.81-29,3.1,3.1,0,0,0-.8.48,24.33,24.33,0,0,1-4.16,2.5s-1.12.58-1.69,0,.61-4.24-1.51-4.46-8.59-.22-11.78,2-5.45,5.42-5,5.94.92.64.92,1.66c0,.76.51,2.1-.06,3.1-.35.24-.9.68-1.53,1-.1,0-.2.1-.31.14l0,0a2.53,2.53,0,0,1-3.23-.4c-.2-.22-.1-.7-.14-1.12v0c-.16-1.36-.31-3.16-.43-3.7-.14-.72-.92-2.6-1.63-2.24s-3.33,3.6-4.31,3.9-2.27.08-2.33.94,1.2,3.24,2.55,3,3.12-1.52,3.74-1.24,1.27,2.18,1.14,3.12.29,1.66-1.63,2.1-3.25-.94-4,0-2.06,3.24-1.84,4c.18.62,1.94,1.06,3,1.34,2.1-.16,4.21-.54,5.23-1.26a14.6,14.6,0,0,1,5.23-2.24c.29,0,1.71.1,3.33.14a6.28,6.28,0,0,0,3.76,2.38,5.24,5.24,0,0,0,2.94-.12,1.22,1.22,0,0,1,1.61.52,5.15,5.15,0,0,0,.63,1c1.14,1.38,1.65.28,1.65.28s-.8-1.66.25-1.66a3.87,3.87,0,0,1,2.49.94,4.69,4.69,0,0,0,2.27,1.82,1.66,1.66,0,0,1,.92,1.94s-7.31.94-10.21.36a8.35,8.35,0,0,1-5.45-3.18c-1.63-1.74-1.08-3.46-4.39-2.52s-3.55,1.66-5.68,2.08a27.46,27.46,0,0,0-3.84,1.24l-.12,0c-1.45.46-3.47.84-4,2a24.54,24.54,0,0,1-1.41,3.18c-.92,1.52-3.14,2.76-3.19,3.48a58.41,58.41,0,0,0,0,10.12c.49,3,1.9,3.26,3.39,5.2s2.14,2.32,4,2.24,3.49-.86,6.17-1.08,4.53-.72,5.53.8.27,3.46,1.49,4.84,3-.08,3.12,2.9-.57,7-.65,9.24,2.63,6.08,3.2,8,1,2.16,3.33,2.16,3.9-.2,6.23-2.74a53.24,53.24,0,0,0,4.82-6.44,12.39,12.39,0,0,0,2.76-6.36c.14-2.3-1.92-2.1.84-4.84a54.87,54.87,0,0,0,6.88-7.8C275.59,672,276.45,669,275.59,668.77Z" transform="translate(-149.41 -581.76)"/><path class="cls-2" d="M224.07,714.8c0-.33-.47-.84-2.75-1.58a35.71,35.71,0,0,1-7-3.41c-3.16-2-3.72-3.08-3.92-3.5-.91-2,.22-2.69-.31-5.92-.58-3.58-2.26-4.33-1.55-6.15a25.4,25.4,0,0,0,1.62-3.51,2,2,0,0,0,0-1.46c-.16-.31-.52-.46-1.12-.9-1.12-.82-.17-2-.34-3.95s.78-1.45.59-3.65-.11-1.29-1.25-2.41a4.07,4.07,0,0,0-1.41-1.06c-.7-.24-.95.17-1.38-.07s-.43-1.18-.69-2.5c-.19-.94-.49-2.47-1.45-3.2s-1.67-.14-3.54-.31c-2.41-.23-2.53-1.28-4.48-1.58-3.28-.51-4.78,2.17-6.89,1.41-.91-.33-2-1.34-2.71-4.47-1.37-1.71-3.28-5.05-2.2-6.62.6-.87,1.51-.29,3-1.28,1.65-1.12,1.08-2.25,3.23-4.87s3.63-2.8,4.13-2.59a.14.14,0,0,0,.08,0c.36,0,.46-1.74.48-3.63.13-.3.36-.69.65-.7s.53.6,1.05.84a2,2,0,0,0,1.68-.33c2.59-1.43,3.94-.64,6.48-2.53,1-.74,3.2-2.35,3.62-4.92.25-1.55-.37-2.09,0-4s1.05-2.05,1.55-3.86a7.91,7.91,0,0,0-.17-5.27c-1.54-3.2-5.9-3.5-6.2-3.51l-4-6-4.13,1.84c-3.33,3-5.92,5.65-7.75,7.64a39.5,39.5,0,0,0-4.13,5,43,43,0,0,0-3.61,7.11c-.81,1.83-1.5,3.61-2.84,7.11-1.49,3.88-2.24,5.82-2.32,6.32s-.37,6.74,2.64,11.34h0a17.32,17.32,0,0,1,4.85,2.1,6.41,6.41,0,0,1,2.58,4.22c0,1.85-.79,2.52-.52,5,.14,1.28.42,1.2.52,2.36.17,2.09-.66,3.18-1,4.92s-.06,3,.52,5.45c1.44,6.15,6.42,11.59,7.4,12.65a36,36,0,0,0,6.92,6.42,45.56,45.56,0,0,0,8.33,4.5c2.5,1.1,2.74,1,6.13,2.5,3,1.35,3.5,1.72,4.9,2C220.56,716.46,224,715.63,224.07,714.8Z" transform="translate(-149.41 -581.76)"/><path class="cls-1" d="M156.64,642.24a2,2,0,0,0,2.5-1.32q.41-1.34.88-2.66l0-.12c.31-.89.65-1.81,1-2.72a2,2,0,0,0-3.71-1.49c-.38.95-.74,1.9-1.06,2.84l0,.11q-.5,1.42-.95,2.86A2,2,0,0,0,156.64,642.24Z" transform="translate(-149.41 -581.76)"/><path class="cls-3" d="M306.22,637.4a8,8,0,0,0-7.63-5.6,8,8,0,0,0-8,8.41l-9.78,3.08a56.51,56.51,0,0,0-38.71-35.48l2.23-10a8,8,0,0,0,1.47-15.8,8,8,0,0,0-1.75-.2,8.06,8.06,0,0,0-7.8,6.27,8,8,0,0,0,4.18,8.85l-2.24,10.06a55.89,55.89,0,0,0-41.69,8.77l-1.35,1c-.42.32-.84.63-1.34,1a54.5,54.5,0,0,0-5.7,5l-7.59-7a8,8,0,1,0-2.71,3l7.6,7a56.16,56.16,0,0,0-6.35,9.13l0,.08c-.91,1.64-1.68,3.18-2.34,4.7l0,.11a55,55,0,0,0-4.45,18c-.13,1.43-.19,2.9-.19,4.37a55.8,55.8,0,0,0,2,14.88L164.2,680a7.94,7.94,0,0,0-6.79-3.77,7.86,7.86,0,0,0-2.4.37,8,8,0,0,0,2.4,15.63,7.86,7.86,0,0,0,2.4-.37,8,8,0,0,0,5.59-8l9.81-3.09a56.26,56.26,0,0,0,38.68,35.5l-2.23,10a8,8,0,0,0-1.47,15.8,7.88,7.88,0,0,0,1.74.2,8,8,0,0,0,3.63-15.13l2.23-10.05a55.9,55.9,0,0,0,50.07-15.77l7.61,7h0a8,8,0,1,0,2.7-3l-7.61-7A55.72,55.72,0,0,0,284,662c0-1.17,0-2.3-.12-3.44A55.84,55.84,0,0,0,282,647.11L291.8,644a7.94,7.94,0,0,0,6.79,3.77,8,8,0,0,0,7.09-4.3A8,8,0,0,0,306.22,637.4Zm-65.53-45.49a4,4,0,0,1-.53-3,4,4,0,0,1,3.9-3.14,4.35,4.35,0,0,1,.88.1,4,4,0,0,1,.33,7.7,3.82,3.82,0,0,1-2.07.11,3.86,3.86,0,0,1-1.83-1A3.73,3.73,0,0,1,240.69,591.91ZM173.48,616a4,4,0,1,1,3.9-3.14,3.81,3.81,0,0,1-1,1.84,4,4,0,0,1-1.74,1.12A4,4,0,0,1,173.48,616Zm-14.87,72a4.1,4.1,0,0,1-1.2.18,4,4,0,0,1-1.2-7.82,4.05,4.05,0,0,1,1.2-.18,4,4,0,0,1,3.81,2.8,3.88,3.88,0,0,1,.08,2.08A4,4,0,0,1,158.61,688Zm57.22,47.08a4.05,4.05,0,0,1-4.77,3,4,4,0,0,1-3-4.77,4,4,0,0,1,2.71-3,4,4,0,0,1,1.19-.19,3.75,3.75,0,0,1,.88.1,4,4,0,0,1,3,4.77ZM282.52,708a4,4,0,0,1,2.95,6.71,4,4,0,0,1-6.85-3.57,3.88,3.88,0,0,1,1-1.84,4,4,0,0,1,1.74-1.12A4.07,4.07,0,0,1,282.52,708ZM228,714a51.47,51.47,0,0,1-11.25-1.23l-.26,0a52.22,52.22,0,0,1-38.07-35,.42.42,0,0,0,0-.11.57.57,0,0,0,0-.12s0,0,0,0A51.89,51.89,0,0,1,176,662c0-1.35.06-2.71.18-4a51,51,0,0,1,4.11-16.66.83.83,0,0,0,0-.1,45.58,45.58,0,0,1,2.21-4.43l0-.09a52,52,0,0,1,7.07-9.8.11.11,0,0,1,0,0,50,50,0,0,1,6.48-5.94l1.34-1,1.26-.92a52.16,52.16,0,0,1,78.74,27v0a2,2,0,0,0,.07.33,1,1,0,0,0,.09.21v.09a52,52,0,0,1,2.16,12.13c.08,1.06.12,2.1.12,3.17A52.06,52.06,0,0,1,228,714Zm74.14-72.35a4,4,0,0,1-2.35,2,4.1,4.1,0,0,1-1.2.18,4,4,0,0,1-3.9-4.87,3.81,3.81,0,0,1,.35-1,4,4,0,0,1,2.35-2,4.1,4.1,0,0,1,1.2-.18,4,4,0,0,1,3.55,5.85Z" transform="translate(-149.41 -581.76)"/></svg>