<svg id="Режим_изоляции" data-name="Режим изоляции" xmlns="http://www.w3.org/2000/svg" viewBox="0 0 158.25 154.25"><defs><style>.cls-1{fill:#252525;}.cls-2{fill:#008fcb;}.cls-3{fill:#e74c3c;}</style></defs><title>03-icon-resultat</title><path class="cls-1" d="M518,363H484a2,2,0,0,1,0-4h34a2,2,0,0,1,0,4Z" transform="translate(-423.75 -315)"/><path class="cls-1" d="M534,335v34a1.9,1.9,0,0,1-.23.92A2,2,0,0,1,530,369V337H440V451h18a2,2,0,0,1,0,4H438a2,2,0,0,1-2-2V335a2,2,0,0,1,2-2h94A2,2,0,0,1,534,335Z" transform="translate(-423.75 -315)"/><path class="cls-2" d="M470,368v2a3,3,0,0,1-3,3H457a3,3,0,0,1-3-3V360a3,3,0,0,1,3-3h10a3,3,0,0,1,1.46.38l2.47-3,.12-.12a6.91,6.91,0,0,0-4-1.3H457a7,7,0,0,0-7,7v10a7,7,0,0,0,7,7h10a7,7,0,0,0,7-7v-6.78Z" transform="translate(-423.75 -315)"/><path class="cls-1" d="M464,371a2,2,0,0,1-1.41-.59l-6-6a2,2,0,0,1,2.83-2.83l4.45,4.45,8.6-10.32a2,2,0,1,1,3.07,2.56l-10,12a2,2,0,0,1-1.45.72Z" transform="translate(-423.75 -315)"/><path class="cls-2" d="M47.58,10H78.92a5.33,5.33,0,0,1,5.33,5.33V26a0,0,0,0,1,0,0h-42a0,0,0,0,1,0,0V15.33A5.33,5.33,0,0,1,47.58,10Z"/><path class="cls-1" d="M508,343H466a2,2,0,0,1-2-2V330.33a7.34,7.34,0,0,1,7.33-7.33h31.33a7.34,7.34,0,0,1,7.33,7.33V341A2,2,0,0,1,508,343Zm-40-4h38v-8.67a3.34,3.34,0,0,0-3.33-3.33H471.33a3.34,3.34,0,0,0-3.33,3.33Z" transform="translate(-423.75 -315)"/><rect class="cls-2" x="52.25" y="2" width="22" height="12" rx="3.33" ry="3.33"/><path class="cls-1" d="M494.67,331H479.33a5.34,5.34,0,0,1-5.33-5.33v-5.33a5.34,5.34,0,0,1,5.33-5.33h15.33a5.34,5.34,0,0,1,5.33,5.33v5.33A5.34,5.34,0,0,1,494.67,331Zm-15.33-12a1.33,1.33,0,0,0-1.33,1.33v5.33a1.33,1.33,0,0,0,1.33,1.33h15.33a1.33,1.33,0,0,0,1.33-1.33v-5.33a1.33,1.33,0,0,0-1.33-1.33Z" transform="translate(-423.75 -315)"/><circle class="cls-1" cx="125" cy="152" r="2"/><path class="cls-1" d="M548.75,469.25A2.25,2.25,0,1,1,551,467,2.25,2.25,0,0,1,548.75,469.25Zm0-4A1.75,1.75,0,1,0,550.5,467,1.75,1.75,0,0,0,548.75,465.25Z" transform="translate(-423.75 -315)"/><path class="cls-3" d="M500.9,420.22a9.25,9.25,0,0,0,2.78,6.68,9.64,9.64,0,0,0,13.35,0,9.44,9.44,0,1,0-16.13-6.68Z" transform="translate(-423.75 -315)"/><path class="cls-3" d="M489.77,440.8a29,29,0,0,0,41.17,0,29.11,29.11,0,1,0-41.17,0Zm4.17-20.58a16.38,16.38,0,1,1,4.8,11.61A16.25,16.25,0,0,1,493.94,420.22Z" transform="translate(-423.75 -315)"/><path class="cls-3" d="M475.86,454.71a48.78,48.78,0,1,0,0-69A48.44,48.44,0,0,0,475.86,454.71Zm9-60a36.07,36.07,0,1,1,0,51A35.88,35.88,0,0,1,484.83,394.73Z" transform="translate(-423.75 -315)"/><polygon class="cls-2" points="126.76 64.04 144.76 46.05 143.26 32.55 125.26 50.55 126.76 64.04"/><polygon class="cls-2" points="126.76 64.04 144.76 46.05 158.25 47.55 140.26 65.54 126.76 64.04"/><path class="cls-1" d="M511.15,420.4a2,2,0,0,1-1.41-3.41l57.35-57.35a2,2,0,1,1,2.83,2.83l-57.35,57.35A2,2,0,0,1,511.15,420.4Z" transform="translate(-423.75 -315)"/><path class="cls-1" d="M553.33,465.19a2,2,0,0,1-1.41-3.41,58.38,58.38,0,0,0,17.2-41.56,2,2,0,1,1,4,0,62.35,62.35,0,0,1-18.37,44.39A2,2,0,0,1,553.33,465.19Z" transform="translate(-423.75 -315)"/><path class="cls-1" d="M426,427a2,2,0,0,1-2-2V365a2,2,0,0,1,4,0v60A2,2,0,0,1,426,427Z" transform="translate(-423.75 -315)"/><circle class="cls-1" cx="2.25" cy="44" r="2"/><path class="cls-1" d="M426,361.25a2.25,2.25,0,1,1,2.25-2.25A2.25,2.25,0,0,1,426,361.25Zm0-4a1.75,1.75,0,1,0,1.75,1.75A1.75,1.75,0,0,0,426,357.25Z" transform="translate(-423.75 -315)"/><path class="cls-2" d="M467.16,383H457a7,7,0,0,0-7,7v10a7,7,0,0,0,7,7h1.6a2.07,2.07,0,0,0,2.08-1.66,2,2,0,0,0-2-2.34H457a3,3,0,0,1-3-3V390a3,3,0,0,1,3-3h12.79v-1.37A2.62,2.62,0,0,0,467.16,383Z" transform="translate(-423.75 -315)"/><path class="cls-1" d="M463.26,395.43l-3.87-3.87h0a2,2,0,0,0-2.8,2.84l3.87,3.87h0a2,2,0,0,0,2.8-2.84Z" transform="translate(-423.75 -315)"/></svg>