<svg id="icons" xmlns="http://www.w3.org/2000/svg" viewBox="0 0 155.69 157.75"><defs><style>.cls-1{fill:#008fcb;}.cls-2{fill:#e74c3c;}.cls-3{fill:#252525;}</style></defs><title>04-icon-ponocsh</title><path class="cls-1" d="M750.66,691.08a19.66,19.66,0,0,1,3.41,2.31H849v-.31h-4c0-.16,0-.32,0-.48V614.38a5.31,5.31,0,0,0-5.3-5.3H824.5a16.51,16.51,0,0,1,.12,2,3,3,0,0,1,0,.42,23.49,23.49,0,0,1-.28,3.58,22.87,22.87,0,0,1-1,4H835v72Z" transform="translate(-695.31 -577.32)"/><path class="cls-1" d="M744.92,615.08a23.6,23.6,0,0,1-.28-3.58,2.88,2.88,0,0,1,0-.42,16.51,16.51,0,0,1,.12-2H726.3a5.31,5.31,0,0,0-5.3,5.3v13.88a21.27,21.27,0,0,1,2-1.08l.56-.26A27.57,27.57,0,0,1,727,625.6a29.94,29.94,0,0,1,4-1v-5.54h14.9A22.87,22.87,0,0,1,744.92,615.08Z" transform="translate(-695.31 -577.32)"/><path class="cls-2" d="M754.07,693.39a105.92,105.92,0,0,1,8.93,7.69h79c.24,0,.46,0,.7,0h0a7,7,0,0,0,6.28-7v-.69Z" transform="translate(-695.31 -577.32)"/><path class="cls-3" d="M723,627.18v-12.8a3.3,3.3,0,0,1,3.3-3.3h18.36a25.4,25.4,0,0,1,.4-4H726.3a7.32,7.32,0,0,0-7.3,7.3v15.14a20.78,20.78,0,0,1,2-1.26A21.27,21.27,0,0,1,723,627.18Z" transform="translate(-695.31 -577.32)"/><path class="cls-3" d="M729.54,615.08a2.54,2.54,0,0,0-2.54,2.54v8a29.94,29.94,0,0,1,4-1v-5.54h14.9a22.87,22.87,0,0,1-1-4Z" transform="translate(-695.31 -577.32)"/><path class="cls-3" d="M827,667.08a2,2,0,0,0-2-2H775a2,2,0,0,0,0,4h50A2,2,0,0,0,827,667.08Z" transform="translate(-695.31 -577.32)"/><path class="cls-3" d="M775,661.08h40a2,2,0,0,0,0-4H775a2,2,0,0,0,0,4Z" transform="translate(-695.31 -577.32)"/><path class="cls-3" d="M775,673.08a2,2,0,0,0,0,4h16a2,2,0,0,0,0-4Z" transform="translate(-695.31 -577.32)"/><path class="cls-3" d="M797,673.08a2,2,0,0,0,0,4h12a2,2,0,0,0,0-4Z" transform="translate(-695.31 -577.32)"/><path class="cls-3" d="M849,691.08h-2v-76.7a7.32,7.32,0,0,0-7.3-7.3H824.22a16.77,16.77,0,0,1,.28,2,16.51,16.51,0,0,1,.12,2H839.7a3.3,3.3,0,0,1,3.3,3.3v76.7h-4V617.62a2.54,2.54,0,0,0-2.54-2.54h-12.1a22.87,22.87,0,0,1-1,4H835v72H755.34c-4.32-3.22-8.82-4.84-11.6-4.84l-.24,0a2,2,0,0,0-1.92,2.28,8.32,8.32,0,0,1,0,2.54,11,11,0,0,1-1.48,4,14.63,14.63,0,0,1-1.62,2.26A18,18,0,0,1,736.9,699a.56.56,0,0,1-.12.1,18.5,18.5,0,0,1-2.58,2,7.69,7.69,0,0,1-2.76,1.24,6.91,6.91,0,0,1-2.76-1.24,22.69,22.69,0,0,1-2.6-2l-.14-.12a17.5,17.5,0,0,1-2.94-3.42c-.1-.16-.2-.3-.28-.46a11.06,11.06,0,0,1-1.44-4,8.82,8.82,0,0,1-.1-1.26,9.36,9.36,0,0,1,.1-1.28,1.86,1.86,0,0,0-.28-1.34,1.83,1.83,0,0,0-.3-.38,2,2,0,0,0-1.7-.54h-.06a29,29,0,0,0-23.62,26.44,2,2,0,0,0,.72,1.7,55.33,55.33,0,0,0,13.38,8.08,1.72,1.72,0,0,0,.56.22,55.23,55.23,0,0,0,42.92,0,2.28,2.28,0,0,0,.72-.3,55.51,55.51,0,0,0,13.3-8,2,2,0,0,0,.72-1.7,28.13,28.13,0,0,0-2.44-9.64H842a9,9,0,0,0,9-9v-1A2,2,0,0,0,849,691.08ZM763.56,712a52.46,52.46,0,0,1-9,5.66v-8.76a2,2,0,0,0-4,0V719.4a51.15,51.15,0,0,1-38.1,0V708.88a2,2,0,0,0-4,0v8.76a52.92,52.92,0,0,1-9-5.64c1-8.5,6.88-18.12,17.82-21.22a1.56,1.56,0,0,0,0,.3,10.91,10.91,0,0,0,.36,2,14.53,14.53,0,0,0,1.38,3.48,20,20,0,0,0,3.06,4.2,22.56,22.56,0,0,0,2.54,2.32c2.58,2,5.22,3.24,6.84,3.24s4.34-1.28,6.78-3.24a17.42,17.42,0,0,0,2.24-2c.34-.34.68-.68,1-1s.52-.62.78-1c0,0,.06-.06.08-.1a17.87,17.87,0,0,0,2.28-3.9,13.53,13.53,0,0,0,1-4c0-.18,0-.34,0-.52a12.85,12.85,0,0,1,1.54.52,24.71,24.71,0,0,1,6.82,4,26.25,26.25,0,0,1,4,3.92l.06.08a21.74,21.74,0,0,1,1.48,2,22.27,22.27,0,0,1,1.22,2A24.38,24.38,0,0,1,763.56,712Zm82.4-14.9a4.89,4.89,0,0,1-4,2.08l-79.06-.08a29.55,29.55,0,0,0-3.1-4h15.52a6,6,0,0,0,4.44,2h6.4a6,6,0,0,0,4.46-2H846.9A4.41,4.41,0,0,1,846,697.08Z" transform="translate(-695.31 -577.32)"/><path class="cls-3" d="M748.63,611.51c0,9.78,7.42,18.64,19.36,23.15a29.51,29.51,0,0,0,5,2c.25.22,1,1.69,1.23,5.42a12.35,12.35,0,0,1-1.28,6.1,2,2,0,0,0,1.8,2.86l.26,0A26.5,26.5,0,0,0,795.4,636.5l.78-.29c14.63-3.57,24.46-13.49,24.46-24.71,0-14.39-16.15-26.09-36-26.09S748.63,597.12,748.63,611.51Zm68,0c0,9.36-8.65,17.74-21.51,20.85l-.24.07c-.5.19-1,.38-1.53.54a2,2,0,0,0-1.21,1.07,22.46,22.46,0,0,1-14.36,12.37,15.59,15.59,0,0,0,.4-4.53c-.3-5.2-1.6-8.2-3.84-8.91a28.89,28.89,0,0,1-4.61-1.92l-.22-.1c-10.41-3.89-16.87-11.34-16.87-19.44,0-12.18,14.36-22.09,32-22.09S816.63,599.33,816.63,611.51Z" transform="translate(-695.31 -577.32)"/><circle class="cls-3" cx="76.84" cy="34.6" r="3.09"/><circle class="cls-3" cx="88.85" cy="34.6" r="3.09"/><circle class="cls-3" cx="100.53" cy="34.6" r="3.09"/><circle class="cls-3" cx="95.53" cy="2.09" r="2.09"/><path class="cls-3" d="M744.85,600.84a2,2,0,0,0,2.71-.82c6.05-11.3,20.61-18.61,37.08-18.61a2,2,0,0,0,0-4c-17.93,0-33.87,8.13-40.61,20.72A2,2,0,0,0,744.85,600.84Z" transform="translate(-695.31 -577.32)"/><path class="cls-3" d="M729.47,661.08a2,2,0,0,0-2-2h-4.6a2,2,0,1,0,0,4h4.6A2,2,0,0,0,729.47,661.08Z" transform="translate(-695.31 -577.32)"/><path class="cls-3" d="M735.7,674.22a6.22,6.22,0,0,1-4.7,1.44l-2.28-.78a7.93,7.93,0,0,1-1-.66,2,2,0,0,0-2.8.38,1.54,1.54,0,0,0-.22.4,2,2,0,0,0,.62,2.4,10.87,10.87,0,0,0,1.68,1.08,9.84,9.84,0,0,0,4,1.2,4.34,4.34,0,0,0,.72,0,10.63,10.63,0,0,0,6.4-2.32,2,2,0,0,0-2.42-3.18Z" transform="translate(-695.31 -577.32)"/><path class="cls-3" d="M705.42,682.64a26.89,26.89,0,0,0,12.68,3.26c.3,0,.6,0,.9,0s.62,0,.94,0a9.25,9.25,0,0,0,1.06-.12c.68-.08,1.34-.18,2-.32l.2,0a19.55,19.55,0,0,0,3.8,1.58,16.92,16.92,0,0,0,4,.66c.24,0,.48,0,.72,0a17.73,17.73,0,0,0,8.52-2.26,27.33,27.33,0,0,0,3.26.48q1,.06,1.86.06A26.58,26.58,0,0,0,758,682.62a1.94,1.94,0,0,0,1-1.3,2,2,0,0,0-.34-1.62,27.89,27.89,0,0,1-3.68-6.94,26.32,26.32,0,0,1-1.52-8.4v-.06a.68.68,0,0,0,0-.2c0-.08.12-.16.16-.24a32,32,0,0,0,2.8-14.28,23.93,23.93,0,0,0-1.2-6.9,21.56,21.56,0,0,0-7-10.36,20.94,20.94,0,0,0-13.1-4.34,24.73,24.73,0,0,0-3.72.28,2.74,2.74,0,0,0-.4.08,21.27,21.27,0,0,0-4,1.12,20.81,20.81,0,0,0-4,2,15.94,15.94,0,0,0-2,1.4c-.22.16-.42.34-.62.5a10.56,10.56,0,0,0-1.38.08,13.71,13.71,0,0,0-5,1.48c-5.08,2.7-6.7,7.92-7.38,10.16-2.64,8.54,1.06,16.4,3.26,20a26.29,26.29,0,0,1-1.5,7.6,27.17,27.17,0,0,1-3.66,6.94,1.88,1.88,0,0,0-.34,1.62A2,2,0,0,0,705.42,682.64Zm26.3,1c-.24,0-.48,0-.72,0a13.61,13.61,0,0,1-4-.84,16.1,16.1,0,0,1-4-2.22,16.54,16.54,0,0,1-2-1.78l-2-2.34a28,28,0,0,1-4.9-11.64,28.63,28.63,0,0,1,5-12.4,27.51,27.51,0,0,1,3.8-4.28,44.88,44.88,0,0,0,10.06,9.58c1,.68,2.06,1.3,3.12,1.92a1.94,1.94,0,0,0-.7,1.48,2,2,0,0,0,2,2h4.6a2,2,0,0,0,1-.32,44.2,44.2,0,0,0,6.4,1.86C747.36,675.68,740.06,683.62,731.72,683.62Zm22.4-3.54a22.65,22.65,0,0,1-9.2,1.82,28.25,28.25,0,0,0,6-8.78c.1.32.18.66.3,1A31,31,0,0,0,754.12,680.08ZM710.48,646.3c.64-2.06,1.82-5.88,5.44-7.8a9.77,9.77,0,0,1,4.6-1.1,4.46,4.46,0,0,1,.52,0,2,2,0,0,0,1.42-.52,18.73,18.73,0,0,1,9.58-4.68,19,19,0,0,1,3.08-.24,17,17,0,0,1,10.62,3.48,17.65,17.65,0,0,1,5.7,8.48,20.36,20.36,0,0,1,1,5.82,27.39,27.39,0,0,1-1.6,10.26l-4.92-4.92a1.31,1.31,0,0,0-1.86,1.86l3,3a41.1,41.1,0,0,1-11.84-5.54A40.34,40.34,0,0,1,724.84,644a1.82,1.82,0,0,0-.41-.4,10.75,10.75,0,0,1-.45-1,10.9,10.9,0,0,1-.56-2.22,2,2,0,0,0-4,.55,14.89,14.89,0,0,0,.76,3c.1.27.23.52.34.78a31.15,31.15,0,0,0-4.75,5.26,31.75,31.75,0,0,0-4.48,9A19.39,19.39,0,0,1,710.48,646.3Zm1.72,27.82.3-1a27.63,27.63,0,0,0,6,8.74,22.19,22.19,0,0,1-9.16-1.78A31.38,31.38,0,0,0,712.2,674.12Z" transform="translate(-695.31 -577.32)"/><path class="cls-3" d="M769.45,717.51a60,60,0,0,1-38,13.57,2,2,0,0,0,0,4A64,64,0,0,0,772,720.6a2,2,0,1,0-2.54-3.09Z" transform="translate(-695.31 -577.32)"/><circle class="cls-3" cx="79.85" cy="137.6" r="2.09"/></svg>