<svg id="Режим_изоляции" data-name="Режим изоляции" xmlns="http://www.w3.org/2000/svg" viewBox="0 0 138 139"><defs><style>.cls-1{fill:#e74c3c;}.cls-2{fill:#008fcb;}.cls-3{fill:#252525;}</style></defs><title>05-icon-oplata</title><path class="cls-1" d="M481.72,438a116.66,116.66,0,0,0,12.45-3,6.45,6.45,0,0,0,1.1-.47c1.46-.92,7.25-6.42,12.35-11.28,3-2.86,5.41-5.14,7.31-6.9-7.56,4.16-22.76,13.55-25.85,14.59a6.93,6.93,0,0,1-1.48.28c-4.94.63-17.25-.19-24.71.11l5.14,10C471.36,440.19,476.61,439.07,481.72,438Z" transform="translate(-434.99 -324.33)"/><path class="cls-2" d="M511,438.83h28a10,10,0,0,1,10-10v-34c-2.23,7.82-9.6,13.92-18.9,15.58a69.36,69.36,0,0,1-7.66,4.72c-1.2.65-7.47,6.63-12.05,11L506,430.2A10,10,0,0,1,511,438.83Zm14-20a4,4,0,1,1-4,4A4,4,0,0,1,525,418.83Z" transform="translate(-434.99 -324.33)"/><path class="cls-2" d="M539,342.83H511a10,10,0,0,1-10,10v32c2.62-9.2,12.38-16,24-16s21.38,6.84,24,16v-32A10,10,0,0,1,539,342.83Zm-14,20a4,4,0,1,1,4-4A4,4,0,0,1,525,362.83Z" transform="translate(-434.99 -324.33)"/><path class="cls-3" d="M563,450.83v-108a2,2,0,0,0-.59-1.41l-6-6a2,2,0,0,0-1.42-.59H495a2,2,0,0,0-2,2v24.51a115.89,115.89,0,0,0-16.5,3.82c-7.53,2.38-11.77,8.61-13.82,11.63s-4,8.46-5.84,14.09c-2,5.89-4.21,12.52-6.7,15.4l-1.37-2.68a2,2,0,0,0-2.69-.87l-10,5.12a2,2,0,1,0,1.82,3.56l8.2-4.21L468,449.94,450.16,459a2,2,0,1,0,1.82,3.56l19.58-10a2,2,0,0,0,.87-2.69l-2.55-5c3.17-1,8-2,12.67-3,3.91-.83,7.66-1.63,10.44-2.4v5.33c0,.83,2.14,3,2.59,3.41l4,4a2,2,0,0,0,1.41.59h60A2,2,0,0,0,563,450.83Zm-66-112h56v104H497v-4.76l.32-.16c1.76-1.1,6.12-5.2,13.07-11.83,4.58-4.36,10.86-10.34,12.05-11,11.79-6.34,17.83-12.92,18-19.53a10.7,10.7,0,0,0-5.33-9.33c-7.34-4.34-14.56,1.25-20.94,6.18-3,2.36-6,4.9-9,6.2a6.16,6.16,0,0,1-5.5-.12c-2.94-1.62-2.67-4.28-2.64-6.21ZM481.72,438c-5.1,1.09-10.36,2.21-13.68,3.32l-16-31.19.84-.93c3.12-3.38,5.44-10.32,7.69-17,1.72-5.12,3.49-10.42,5.38-13.14s5.49-8.08,11.69-10A115.72,115.72,0,0,1,493,365.43c0,.08,0,22.27,0,28.46a8.68,8.68,0,0,0,4.65,8.1,10.21,10.21,0,0,0,9,.28c3.45-1.5,6.62-4.2,9.86-6.71,5.88-4.56,11.45-8.86,16.46-5.9a6.69,6.69,0,0,1,3.36,5.81c-.05,2.85-2.19,8.73-15.85,16.09-1.49.8-5.26,4.32-12.92,11.62-5.1,4.86-10.89,10.37-12.35,11.28a6.45,6.45,0,0,1-1.1.47A116.66,116.66,0,0,1,481.72,438ZM559,448.83H501.81l-2-2H555a2,2,0,0,0,2-2V341.65l2,2ZM493,365.43c0,30.72,0,27.46,0,28.46" transform="translate(-434.99 -324.33)"/><path class="cls-3" d="M456.69,451.81a3.81,3.81,0,0,0,2.8-3.92,2.64,2.64,0,0,0-.12-.78,3.83,3.83,0,0,0-3.6-2.82,4.14,4.14,0,0,0-1.1.14,3.83,3.83,0,1,0,2,7.38Z" transform="translate(-434.99 -324.33)"/><path class="cls-3" d="M555.13,458.85a2.26,2.26,0,0,0-2.61,1.83,2.26,2.26,0,0,0,1.83,2.61,2.18,2.18,0,0,0,.39,0,2.25,2.25,0,0,0,.39-4.47Z" transform="translate(-434.99 -324.33)"/><path class="cls-3" d="M571,392.83a2,2,0,0,0-2,2V454a4.88,4.88,0,0,1-4.87,4.88H561a2,2,0,0,0,0,4h3.13A8.88,8.88,0,0,0,573,454V394.83A2,2,0,0,0,571,392.83Z" transform="translate(-434.99 -324.33)"/><path class="cls-3" d="M504.35,328.8a2.18,2.18,0,0,0,.39,0,2.25,2.25,0,1,0-.39,0Z" transform="translate(-434.99 -324.33)"/><path class="cls-3" d="M485,358.83a2,2,0,0,0,2-2V333.7a4.88,4.88,0,0,1,4.88-4.87H499a2,2,0,0,0,0-4h-7.12A8.88,8.88,0,0,0,483,333.7v23.13A2,2,0,0,0,485,358.83Z" transform="translate(-434.99 -324.33)"/></svg>