<svg id="Режим_изоляции" data-name="Режим изоляции" xmlns="http://www.w3.org/2000/svg" viewBox="0 0 157.59 146.5"><defs><style>.cls-1{fill:#008fcb;}.cls-2{fill:#e74c3c;}.cls-3{fill:#252525;}</style></defs><title>06-icon-srochno</title><rect class="cls-1" x="11.58" y="118.25" width="28" height="6"/><rect class="cls-1" x="11.58" y="108.25" width="28" height="6"/><rect class="cls-1" x="11.58" y="128.25" width="28" height="6"/><path class="cls-1" d="M546.69,722H536v6h18.52A20,20,0,0,1,546.69,722Z" transform="translate(-420.42 -593.75)"/><path class="cls-1" d="M536,718h8.22a19.55,19.55,0,0,1-1.68-6H536Z" transform="translate(-420.42 -593.75)"/><path class="cls-1" d="M536,702v6h6.49a19.48,19.48,0,0,1,1.53-6Z" transform="translate(-420.42 -593.75)"/><path class="cls-1" d="M553.56,692H536v6h10.33A19.76,19.76,0,0,1,553.56,692Z" transform="translate(-420.42 -593.75)"/><rect class="cls-1" x="115.58" y="88.25" width="28" height="6"/><rect class="cls-1" x="115.58" y="78.25" width="28" height="6"/><rect class="cls-1" x="115.58" y="68.25" width="28" height="6"/><circle class="cls-1" cx="31.58" cy="56.25" r="2.25"/><circle class="cls-1" cx="149.58" cy="72.25" r="2.25"/><path class="cls-1" d="M570,670a2,2,0,0,0-2,2v14a2,2,0,0,0,4,0V672A2,2,0,0,0,570,670Z" transform="translate(-420.42 -593.75)"/><path class="cls-2" d="M470,616h60a6,6,0,0,0,0-12H470a6,6,0,0,0,0,12Z" transform="translate(-420.42 -593.75)"/><path class="cls-2" d="M530,718H470a6,6,0,0,0,0,12h60a6,6,0,0,0,0-12Z" transform="translate(-420.42 -593.75)"/><path class="cls-1" d="M480,709.88a2,2,0,0,0,1.93,2.13h36.14a2,2,0,0,0,1.93-2.12h0a13,13,0,0,0-4.63-10.07c-.92-.75-1.68-1.34-2.19-1.74a54.75,54.75,0,0,0-11.69-7,3.65,3.65,0,0,0-3,0,54.73,54.73,0,0,0-11.69,7c-.51.4-1.28,1-2.19,1.74A13,13,0,0,0,480,709.87Z" transform="translate(-420.42 -593.75)"/><path class="cls-1" d="M489.8,651.43a17,17,0,0,1,7.47,7.94,3,3,0,0,0,2.72,1.72,3.06,3.06,0,0,0,2.78-1.82c.2-.43.42-.86.66-1.28a17,17,0,0,1,6.8-6.56,22,22,0,0,0,5.61-4.23.83.83,0,0,0-.78-1.38,31.39,31.39,0,0,1-6.72.69c-8.52-.1-12.3-3.7-21-4a33.47,33.47,0,0,0-3.85.1,1.56,1.56,0,0,0-1.12,2.47A22.25,22.25,0,0,0,489.8,651.43Z" transform="translate(-420.42 -593.75)"/><path class="cls-1" d="M564,694.11a13.17,13.17,0,0,0-1.78-.11h-.38a15.77,15.77,0,0,0-5.44,1.1,15.54,15.54,0,0,0-2.46,1.24,15.76,15.76,0,0,0-2.23,1.67c-.32.28-.62.58-.92.89a15.87,15.87,0,0,0-2.32,3.11,15.6,15.6,0,0,0-2,6,14.17,14.17,0,0,0-.1,2.16,14,14,0,0,0,.16,1.84h0a15.27,15.27,0,0,0,.78,3.14,15.74,15.74,0,0,0,1.39,2.86,16,16,0,0,0,5.68,5.5,15.59,15.59,0,0,0,7.77,2.08h.38a13.43,13.43,0,0,0,1.42-.1,15.79,15.79,0,0,0,0-31.37ZM569.31,716a6.72,6.72,0,0,1-4.86,4.23v.38a2,2,0,0,1-2,2h0a2,2,0,0,1-2-2v-.26a9.63,9.63,0,0,1-4.9-2.67,2,2,0,0,1,2.88-2.78,5.17,5.17,0,0,0,3.93,1.58c1-.1,2.79-.66,3.12-1.75a2.65,2.65,0,0,0-.64-2.33c-.67-.76-1.65-.9-3.2-1.06-1.78-.19-4-.42-5.55-2.43a6.19,6.19,0,0,1-.89-5.89,6.38,6.38,0,0,1,4.76-3.73v-.1a2,2,0,0,1,2-2h0a2,2,0,0,1,2,2v.36a8.2,8.2,0,0,1,3.61,2.46,2,2,0,1,1-3.06,2.58,3.91,3.91,0,0,0-2.68-1.4c-1.12,0-2.56.46-2.91,1.37a2.23,2.23,0,0,0,.32,2c.48.63,1.34.74,2.8.9,1.8.19,4,.43,5.78,2.4A6.61,6.61,0,0,1,569.31,716Z" transform="translate(-420.42 -593.75)"/><path class="cls-1" d="M446.22,658.42h-.38A15.79,15.79,0,0,0,446.2,690h.38a15.79,15.79,0,0,0-.36-31.58Zm7.09,22a6.71,6.71,0,0,1-4.86,4.23V685a2,2,0,0,1-2,2h0a2,2,0,0,1-2-2v-.26a9.63,9.63,0,0,1-4.9-2.66,2,2,0,0,1,2.88-2.78,5.14,5.14,0,0,0,3.93,1.58c1-.1,2.79-.66,3.12-1.75a2.65,2.65,0,0,0-.64-2.33c-.67-.76-1.65-.9-3.2-1.06-1.78-.19-4-.42-5.55-2.43a6.19,6.19,0,0,1-.89-5.89,6.37,6.37,0,0,1,4.76-3.73v-.09a2,2,0,0,1,4-.09v.36a8.21,8.21,0,0,1,3.61,2.46,2,2,0,0,1-3.06,2.58,3.91,3.91,0,0,0-2.68-1.4c-1.13,0-2.56.46-2.91,1.37a2.23,2.23,0,0,0,.32,2c.48.63,1.34.74,2.8.9,1.8.19,4,.43,5.78,2.4A6.6,6.6,0,0,1,453.31,680.38Z" transform="translate(-420.42 -593.75)"/><rect class="cls-1" x="11.58" y="98.25" width="28" height="6"/><path class="cls-1" d="M445.68,652.42h.56a2,2,0,0,0,0-4h-.58a25.79,25.79,0,0,0-25.19,26.38,2,2,0,0,0,2,2h0a2,2,0,0,0,2-2,21.79,21.79,0,0,1,21.26-22.29Z" transform="translate(-420.42 -593.75)"/><circle class="cls-3" cx="59.58" cy="79.42" r="2.25"/><circle class="cls-3" cx="102.75" cy="66.25" r="2.25"/><circle class="cls-3" cx="131.58" cy="144.25" r="2.25"/><path class="cls-3" d="M546,736H444a2,2,0,0,0,0,4H546a2,2,0,0,0,0-4Z" transform="translate(-420.42 -593.75)"/><path class="cls-3" d="M574,728H536.92A8,8,0,0,0,530,716V703.33a30,30,0,0,0-16-26.5,9.51,9.51,0,0,1-5-8.5,9.88,9.88,0,0,1,1.34-5,9.05,9.05,0,0,1,3.62-3.51,30,30,0,0,0,16-26.5V618a8,8,0,0,0,0-16H470a8,8,0,0,0,0,16v15.33a30,30,0,0,0,16,26.5,9.52,9.52,0,0,1,5,8.5,9.91,9.91,0,0,1-1.34,5,9,9,0,0,1-3.62,3.5,30,30,0,0,0-16,26.5V716a8,8,0,0,0-6.92,12H426a2,2,0,0,0,0,4H574a2,2,0,0,0,0-4ZM466,610a4,4,0,0,1,4-4h60a4,4,0,0,1,0,8H470A4,4,0,0,1,466,610Zm8,93.33a26,26,0,0,1,13.91-23,13,13,0,0,0,5.21-5,13.9,13.9,0,0,0,1.88-7,13.49,13.49,0,0,0-7.08-12,26,26,0,0,1-13.92-23V618h52v15.33a26,26,0,0,1-13.91,23,13,13,0,0,0-5.21,5,13.89,13.89,0,0,0-1.88,7,13.49,13.49,0,0,0,7.08,12,26,26,0,0,1,13.92,23V716H474ZM470,728a4,4,0,0,1,0-8h60a4,4,0,0,1,0,8Z" transform="translate(-420.42 -593.75)"/><path class="cls-3" d="M532.88,642a33.64,33.64,0,0,1-6.43,12.66,2,2,0,1,0,3.11,2.52A37.61,37.61,0,0,0,536.75,643a2,2,0,1,0-3.87-1Z" transform="translate(-420.42 -593.75)"/><path class="cls-3" d="M467.44,690a2,2,0,0,0,1.81-1.14,33.83,33.83,0,0,1,7.54-10.3,2,2,0,0,0-2.73-2.93,37.85,37.85,0,0,0-8.43,11.52,2,2,0,0,0,1.81,2.86Z" transform="translate(-420.42 -593.75)"/><circle class="cls-3" cx="102.25" cy="2.25" r="2.25"/><path class="cls-3" d="M478,598h38.7a2,2,0,0,0,0-4H478a2,2,0,0,0,0,4Z" transform="translate(-420.42 -593.75)"/></svg>