<svg xmlns="http://www.w3.org/2000/svg" width="28" height="28" viewBox="0 0 28 28" fill="none">
    <path fill-rule="evenodd" clip-rule="evenodd" d="M13.9997 1.45837C14.4829 1.45837 14.8747 1.85012 14.8747 2.33337V4.66671C14.8747 5.14996 14.4829 5.54171 13.9997 5.54171C13.5164 5.54171 13.1247 5.14996 13.1247 4.66671V2.33337C13.1247 1.85012 13.5164 1.45837 13.9997 1.45837ZM6.38096 6.38132C6.72266 6.03961 7.27668 6.03961 7.61839 6.38132L8.01886 6.78179C8.36057 7.1235 8.36057 7.67752 8.01886 8.01923C7.67716 8.36094 7.12314 8.36094 6.78143 8.01923L6.38096 7.61876C6.03925 7.27705 6.03925 6.72303 6.38096 6.38132ZM21.6184 6.38132C21.9601 6.72303 21.9601 7.27705 21.6184 7.61876L21.2179 8.01923C20.8762 8.36094 20.3222 8.36094 19.9805 8.01923C19.6388 7.67752 19.6388 7.1235 19.9805 6.78179L20.381 6.38132C20.7227 6.03961 21.2767 6.03961 21.6184 6.38132ZM1.45801 14C1.45801 13.5168 1.84976 13.125 2.33301 13.125H4.66634C5.14959 13.125 5.54134 13.5168 5.54134 14C5.54134 14.4833 5.14959 14.875 4.66634 14.875H2.33301C1.84976 14.875 1.45801 14.4833 1.45801 14ZM22.458 14C22.458 13.5168 22.8498 13.125 23.333 13.125H25.6663C26.1496 13.125 26.5413 13.5168 26.5413 14C26.5413 14.4833 26.1496 14.875 25.6663 14.875H23.333C22.8498 14.875 22.458 14.4833 22.458 14ZM8.01861 19.9811C8.36032 20.3228 8.36032 20.8768 8.01861 21.2185L7.61839 21.6188C7.27668 21.9605 6.72266 21.9605 6.38096 21.6188C6.03925 21.277 6.03925 20.723 6.38096 20.3813L6.78118 19.9811C7.12289 19.6394 7.67691 19.6394 8.01861 19.9811ZM19.9807 19.9811C20.3224 19.6394 20.8765 19.6394 21.2182 19.9811L21.6184 20.3813C21.9601 20.723 21.9601 21.277 21.6184 21.6188C21.2767 21.9605 20.7227 21.9605 20.381 21.6188L19.9807 21.2185C19.639 20.8768 19.639 20.3228 19.9807 19.9811ZM13.9997 22.4584C14.4829 22.4584 14.8747 22.8501 14.8747 23.3334V25.6667C14.8747 26.15 14.4829 26.5417 13.9997 26.5417C13.5164 26.5417 13.1247 26.15 13.1247 25.6667V23.3334C13.1247 22.8501 13.5164 22.4584 13.9997 22.4584Z" fill="white"/>
    <path d="M10.129 11.1001C9.90146 10.3249 10.6396 9.61378 11.4058 9.87013L19.6393 12.6249C20.5249 12.9212 20.5571 14.1619 19.6881 14.5038L16.3239 15.8273C16.1162 15.909 15.9418 16.0579 15.8285 16.2502L14.2044 19.0063C13.76 19.7604 12.6298 19.6201 12.3833 18.7803L10.129 11.1001Z" fill="white"/>
</svg>