<svg xmlns="http://www.w3.org/2000/svg" width="12" height="13" viewBox="0 0 12 13" fill="none">
    <path d="M1.07081 5.80693C4.13864 4.39571 6.18434 3.46534 7.20791 3.01584C10.1304 1.73241 10.7377 1.50947 11.1335 1.50202C11.2205 1.50048 11.4152 1.52326 11.5413 1.63128C11.6477 1.72249 11.677 1.84571 11.691 1.93218C11.7051 2.01866 11.7225 2.21566 11.7086 2.36959C11.5503 4.12651 10.865 8.39008 10.5164 10.3579C10.3689 11.1905 10.0784 11.4697 9.79719 11.497C9.18607 11.5564 8.72201 11.0706 8.13011 10.6609C7.2039 10.0199 6.68065 9.62084 5.7816 8.9953C4.7426 8.27239 5.41614 7.87507 6.00827 7.22573C6.16323 7.05579 8.85585 4.46992 8.90796 4.23535C8.91448 4.20601 8.92053 4.09665 8.859 4.0389C8.79746 3.98116 8.70665 4.00091 8.64111 4.01661C8.54822 4.03887 7.06859 5.07145 4.20222 7.11434C3.78223 7.41884 3.40182 7.5672 3.06098 7.55943C2.68524 7.55086 1.96246 7.33511 1.42514 7.1507C0.766105 6.92452 0.242315 6.80493 0.287925 6.4208C0.311682 6.22072 0.572644 6.01609 1.07081 5.80693Z" fill="#161F6A"/>
</svg>