<svg xmlns="http://www.w3.org/2000/svg" width="190" height="46"><path fill-rule="evenodd" fill="#007DB2" d="M5 0h160a5 5 0 0 1 5 5v36a5 5 0 0 1-5 5H5a5 5 0 0 1-5-5V5a5 5 0 0 1 5-5z"/><path fill-rule="evenodd" fill="#007DB2" d="M174.371 3.038l12.558 12.558c4.08 4.08 4.08 10.695 0 14.775l-12.558 12.558c-4.08 4.08-10.695 4.08-14.775 0l-12.558-12.558c-4.08-4.08-4.08-10.695 0-14.775l12.558-12.558c4.08-4.08 10.695-4.08 14.775 0z"/><path fill-rule="evenodd" fill="#FFF" d="M171 16a7 7 0 1 1 0 14 7 7 0 0 1 0-14z"/></svg>