<svg id="Режим_изоляции" data-name="Режим изоляции" xmlns="http://www.w3.org/2000/svg" viewBox="0 0 29.7 29.7"><defs><style>.cls-1{fill:#252525}</style></defs><title>Instagram</title><g id="instagram"><g id="_Группа_" data-name="Группа"><path id="_Составной_контур_" data-name="Составной контур" class="cls-1" d="M50.48 29.61H37.92a8.57 8.57 0 0 0-8.57 8.57v12.56a8.57 8.57 0 0 0 8.57 8.57h12.56a8.57 8.57 0 0 0 8.57-8.57V38.19a8.57 8.57 0 0 0-8.56-8.58zM56.32 51a5.69 5.69 0 0 1-5.69 5.69H37.77A5.69 5.69 0 0 1 32.08 51V38.11a5.69 5.69 0 0 1 5.69-5.69h12.85a5.69 5.69 0 0 1 5.69 5.69z" transform="translate(-29.35 -29.61)"/><path id="_Составной_контур_2" data-name="Составной контур 2" class="cls-1" d="M44.2 36.83a7.71 7.71 0 1 0 7.71 7.71 7.71 7.71 0 0 0-7.71-7.71zm0 12.7a5 5 0 1 1 5-5 5 5 0 0 1-5 5z" transform="translate(-29.35 -29.61)"/><circle id="_Контур_" data-name="Контур" class="cls-1" cx="22.81" cy="6.93" r="1.8"/></g></g></svg>