<svg id="Layer_1" data-name="Layer 1" xmlns="http://www.w3.org/2000/svg" viewBox="0 0 31.91 27.88"><defs><style>.cls-1{fill:#252525}</style></defs><title>Twitter</title><path class="cls-1" d="M59.82 33.69a12.13 12.13 0 0 1-3.76 1.11 7 7 0 0 0 2.89-3.89 13.13 13.13 0 0 1-4.16 1.71A6.31 6.31 0 0 0 50 30.39a6.8 6.8 0 0 0-6.54 7 7.73 7.73 0 0 0 .16 1.6 18.16 18.16 0 0 1-13.49-7.31 7.43 7.43 0 0 0-.88 3.54 7.15 7.15 0 0 0 2.91 5.85 6.18 6.18 0 0 1-3-.88v.1a7 7 0 0 0 5.25 6.91 6.17 6.17 0 0 1-1.73.23 5.19 5.19 0 0 1-1.22-.13 6.59 6.59 0 0 0 6.11 4.89 12.49 12.49 0 0 1-8.12 3 12 12 0 0 1-1.56-.1 17.5 17.5 0 0 0 10 3.18c12 0 18.61-10.73 18.61-20v-.9a14.25 14.25 0 0 0 3.32-3.68z" transform="translate(-27.91 -30.39)" id="twitter"/></svg>