<svg id="Режим_изоляции" data-name="Режим изоляции" xmlns="http://www.w3.org/2000/svg" viewBox="0 0 37.67 21.41"><defs><style>.cls-1{fill:none}.cls-3{fill:#466f91}</style><clipPath id="clip-path" transform="translate(-24.97 -33.97)"><path class="cls-1" d="M24.97 33.96h37.8v21.6h-37.8z"/></clipPath></defs><title>Vk</title><path class="cls-2 cls-3" d="M62.35 53.31a2.58 2.58 0 0 0-.13-.24 19.48 19.48 0 0 0-3.74-4.32 22.05 22.05 0 0 1-1.58-1.6 1.51 1.51 0 0 1-.27-1.58A14.77 14.77 0 0 1 58.39 43l1.27-1.66q3.38-4.5 2.93-5.75l-.12-.19a1.14 1.14 0 0 0-.61-.32 3 3 0 0 0-1.25 0H55a.73.73 0 0 0-.39 0l-.26.06h-.1l-.08.06a.85.85 0 0 0-.22.2 1.34 1.34 0 0 0-.19.34 32 32 0 0 1-2.09 4.4q-.72 1.21-1.33 2.1a10.21 10.21 0 0 1-1 1.31 7 7 0 0 1-.74.67.75.75 0 0 1-.51.22l-.33-.08a1.28 1.28 0 0 1-.44-.48 2.13 2.13 0 0 1-.23-.76q-.06-.46-.07-.79v-5.82a4.51 4.51 0 0 0-.07-.89 3 3 0 0 0-.21-.63 1 1 0 0 0-.4-.47 2.25 2.25 0 0 0-.65-.26A13.11 13.11 0 0 0 43 34a12.84 12.84 0 0 0-4.67.47 2.62 2.62 0 0 0-.74.59q-.35.43-.1.47a2.4 2.4 0 0 1 1.66.84l.12.24a3.68 3.68 0 0 1 .27.9 9 9 0 0 1 .21 1.49 15.08 15.08 0 0 1 0 2.44q-.1 1-.19 1.58a3.17 3.17 0 0 1-.26.92 3.72 3.72 0 0 1-.24.43.34.34 0 0 1-.1.1 1.45 1.45 0 0 1-.53.1 1.24 1.24 0 0 1-.66-.27 4.69 4.69 0 0 1-.77-.8 10 10 0 0 1-1-1.34q-.53-.86-1.09-2l-.31-.57q-.29-.55-.8-1.59t-.9-2a1.3 1.3 0 0 0-.47-.63l-.1-.06a1.41 1.41 0 0 0-.31-.17 2.08 2.08 0 0 0-.45-.13h-5.35a1.36 1.36 0 0 0-1.11.37l-.11.12a.64.64 0 0 0-.06.31 1.55 1.55 0 0 0 .12.53q1.17 2.76 2.55 5.32T30 45.79q1 1.56 2.07 3t1.4 1.78c.23.26.41.46.54.59l.49.47a11.48 11.48 0 0 0 1.38 1.12 23.5 23.5 0 0 0 2 1.29 11 11 0 0 0 2.57 1 8.86 8.86 0 0 0 2.86.32h2.25a1.55 1.55 0 0 0 1-.43l.08-.1a1.29 1.29 0 0 0 .15-.36 2 2 0 0 0 .07-.54 6.49 6.49 0 0 1 .14-1.52 4 4 0 0 1 .33-1 2.45 2.45 0 0 1 .42-.58 1.66 1.66 0 0 1 .33-.28l.16-.07a1.24 1.24 0 0 1 1.11.3 6.55 6.55 0 0 1 1.19 1.13q.56.68 1.34 1.52a9.33 9.33 0 0 0 1.45 1.14l.39.23a4.73 4.73 0 0 0 1 .43 2.18 2.18 0 0 0 1.09.1l5-.08A2.26 2.26 0 0 0 62 55a1 1 0 0 0 .49-.54 1.52 1.52 0 0 0 0-.67 2.54 2.54 0 0 0-.14-.52z" transform="translate(-24.97 -33.97)" id="pinterest"/></svg>