<svg xmlns="http://www.w3.org/2000/svg" xmlns:xlink="http://www.w3.org/1999/xlink" viewBox="0 0 512 509"><defs><path id="a" d="M0 0h512v509H0z"/></defs><clipPath id="b"><use xlink:href="#a" overflow="visible"/></clipPath><path clip-path="url(#b)" fill-opacity=".1" d="M496 107.4h-45.2c0-57.8-22.3-96.7-23.3-98.3-2.2-3.8-6-6.6-10.3-7.6-35.9-8-83.8 16.8-121.2 42.3-.8-.1-1.5-.2-2.3-.2h-75.3c-.8 0-1.6.1-2.3.2C178.6 18.4 130.7-6.5 94.8 1.5c-4.3 1-8.1 3.7-10.3 7.6-.9 1.6-23.3 40.5-23.3 98.3H16c-8.8 0-16 7.2-16 16v131.2c0 8.8 7.2 16 16 16h18.4V493c0 8.8 7.2 16 16 16h411.2c8.8 0 16-7.2 16-16V270.6H496c8.8 0 16-7.2 16-16V123.4c0-8.8-7.2-16-16-16M402.7 32h.5c5.4 12 15.5 39.2 15.5 75.4h-109V73.3c37.6-26.2 71.8-41.3 93-41.3M256 344.4c-8.8 0-16 7.2-16 16v116.2h-40V271.2h112v205.3h-40V360.4c0-8.9-7.2-16-16-16m56-105.8H200v-99.2h112v99.2zm-34.3-131.2h-43.3V75.7h43.3v31.7zm-184.5 0c0-35.8 10.1-63.3 15.6-75.4h.5c21.2 0 55.4 15.1 93.1 41.3v34.1H93.2zm-61.2 32h136v99.2H32v-99.2zm34.4 131.2H168V477H66.4V270.6zM445.6 477H344V270.6h101.6V477zM480 238.6H344v-99.2h136v99.2z"/><path clip-path="url(#b)" fill-opacity=".1" d="M271.7 309.2c-.2-1-.5-2-.9-3s-.9-1.9-1.5-2.8c-.6-.9-1.2-1.7-2-2.4-.7-.7-1.6-1.4-2.4-2-.9-.6-1.8-1.1-2.8-1.5-1-.4-2-.7-3-.9-2.1-.4-4.2-.4-6.2 0-1 .2-2 .5-3 .9s-1.9.9-2.8 1.5c-.9.6-1.7 1.2-2.4 2s-1.4 1.6-2 2.4c-.6.9-1.1 1.8-1.5 2.8-.4 1-.7 2-.9 3-.2 1-.3 2.1-.3 3.1s.1 2.1.3 3.1c.2 1 .5 2 .9 3s.9 1.9 1.5 2.8c.6.9 1.3 1.7 2 2.4s1.6 1.4 2.4 2c.9.6 1.8 1.1 2.8 1.5 1 .4 2 .7 3 .9s2.1.3 3.1.3 2.1-.1 3.1-.3 2-.5 3-.9 1.9-.9 2.8-1.5c.9-.6 1.7-1.2 2.4-2 .7-.7 1.4-1.6 2-2.4.6-.9 1.1-1.8 1.5-2.8.4-1 .7-2 .9-3 .2-1 .3-2.1.3-3.1s-.1-2-.3-3.1"/></svg>