<svg xmlns="http://www.w3.org/2000/svg" viewBox="0 0 19 20"><g fill="#fff"><path d="M4 6H1c-.6 0-1 .4-1 1v12c0 .6.4 1 1 1h3c.6 0 1-.4 1-1V7c0-.6-.4-1-1-1zm0 12H2V8h2v10z"/><path d="M19 11c0-.9-.4-1.7-1.1-2.2.1-.3.1-.5.1-.8 0-.3 0-.5-.1-.8 0-.2-.2-.6-.3-.8-.1-.2-.3-.4-.5-.6-.6-.5-1.3-.8-2.1-.8h-2V3c0-1.7-1.3-3-3-3S7 1.3 7 3v1.7c-.3.5-1.1 1.7-1.5 2.3H4v2h2c.3 0 .6-.2.8-.4C9 5.3 9 5.3 9 5V3c0-.6.4-1 1-1s1 .4 1 1v3c0 .6.4 1 1 1h3c.6 0 1 .4 1 1 0 .4-.2.9-.7 1H15v1h.8c.2 0 .5.1.7.2.6.4.6 1.4 0 1.8H15v1h1c.6.1 1 .3 1 1 0 .6-.2 1-1.3 1H15v1h.3c.2.1.5.3.6.5.1.2.1.3.1.5 0 .6-.4 1-1 1h-4.8l-2.8-.9c-.2-.1-.3-.1-.4-.1H4v2h2.8l2.8.9c.2.1.3.1.4.1h5c1.7 0 3-1.3 3-3 0-.2 0-.5-.1-.7.5-.4.9-1 1-1.6.2-.9-.1-1.6-.5-2.1.6-.7.6-1.4.6-1.6z"/></g></svg>