<svg width="46" height="46" viewBox="0 0 46 46" fill="none" xmlns="http://www.w3.org/2000/svg"><path d="M24.754 32.193l-3.61 3.614a8.233 8.233 0 0 1-13.424-2.67 8.23 8.23 0 0 1 1.785-8.97l3.614-3.608a3.679 3.679 0 1 0-5.2-5.201L4.303 18.97a15.588 15.588 0 0 0 22.038 22.038l3.61-3.61a3.679 3.679 0 0 0-5.198-5.205zM40.78 4.532a15.662 15.662 0 0 0-22.037 0L15.13 8.14a3.68 3.68 0 1 0 5.201 5.207l3.61-3.614a8.23 8.23 0 1 1 11.639 11.64l-3.614 3.608a3.677 3.677 0 0 0 1.194 6 3.678 3.678 0 0 0 4.008-.799l3.613-3.612a15.662 15.662 0 0 0 0-22.038z" fill="#2856F6"/><path d="M20.331 30.182l9.624-9.623a3.677 3.677 0 0 0-5.201-5.201L15.13 24.98a3.678 3.678 0 0 0 5.201 5.201z" fill="#2856F6"/></svg>