<svg xmlns="http://www.w3.org/2000/svg" viewBox="0 0 100 100" preserveAspectRatio="xMidYMid" class="lds-tail"><defs><filter id="a" x="-100%" y="-100%" width="300%" height="300%" color-interpolation-filters="sRGB"><feGaussianBlur in="SourceGraphic" stdDeviation="3"/><feColorMatrix values="1 0 0 0 0 0 1 0 0 0 0 0 1 0 0 0 0 0 60 -40" result="cm"/></filter></defs><g filter="url(#a)" transform="rotate(311.887 50 50)"><animateTransform attributeName="transform" type="rotate" calcMode="linear" values="0 50 50;360 50 50" keyTimes="0;1" dur="4s" begin="0s" repeatCount="indefinite"/><g transform="rotate(307.681 50 50)"><circle r="19" fill="#fff" transform="matrix(.5 0 0 .5 50 20)"/><animateTransform attributeName="transform" calcMode="spline" type="rotate" values="0 50 50;360 50 50" keyTimes="0;1" keySplines="0.13333333333333333 0 0.03333333333333333 1" repeatCount="indefinite" dur="1"/></g><g transform="rotate(302.221 50 50)"><circle r="18" fill="#fff" transform="matrix(.5 0 0 .5 50 20)"/><animateTransform attributeName="transform" calcMode="spline" type="rotate" values="0 50 50;360 50 50" keyTimes="0;1" keySplines="0.16666666666666669 0 0.06666666666666667 1" repeatCount="indefinite" dur="1"/></g><g transform="rotate(296.199 50 50)"><circle r="17" fill="#fff" transform="matrix(.5 0 0 .5 50 20)"/><animateTransform attributeName="transform" calcMode="spline" type="rotate" values="0 50 50;360 50 50" keyTimes="0;1" keySplines="0.2 0 0.1 1" repeatCount="indefinite" dur="1"/></g><g transform="rotate(289.437 50 50)"><circle r="16" fill="#fff" transform="matrix(.5 0 0 .5 50 20)"/><animateTransform attributeName="transform" calcMode="spline" type="rotate" values="0 50 50;360 50 50" keyTimes="0;1" keySplines="0.23333333333333334 0 0.13333333333333333 1" repeatCount="indefinite" dur="1"/></g><g transform="rotate(281.722 50 50)"><circle r="15" fill="#fff" transform="matrix(.5 0 0 .5 50 20)"/><animateTransform attributeName="transform" calcMode="spline" type="rotate" values="0 50 50;360 50 50" keyTimes="0;1" keySplines="0.26666666666666666 0 0.16666666666666666 1" repeatCount="indefinite" dur="1"/></g><g transform="rotate(272.812 50 50)"><circle r="14" fill="#fff" transform="matrix(.5 0 0 .5 50 20)"/><animateTransform attributeName="transform" calcMode="spline" type="rotate" values="0 50 50;360 50 50" keyTimes="0;1" keySplines="0.30000000000000004 0 0.2 1" repeatCount="indefinite" dur="1"/></g><g transform="rotate(263.651 50 50)"><circle r="13" fill="#fff" transform="matrix(.5 0 0 .5 50 20)"/><animateTransform attributeName="transform" calcMode="spline" type="rotate" values="0 50 50;360 50 50" keyTimes="0;1" keySplines="0.33333333333333337 0 0.23333333333333334 1" repeatCount="indefinite" dur="1"/></g><g transform="rotate(250.787 50 50)"><circle r="12" fill="#fff" transform="matrix(.5 0 0 .5 50 20)"/><animateTransform attributeName="transform" calcMode="spline" type="rotate" values="0 50 50;360 50 50" keyTimes="0;1" keySplines="0.3666666666666667 0 0.26666666666666666 1" repeatCount="indefinite" dur="1"/></g><g transform="rotate(236.352 50 50)"><circle r="11" fill="#fff" transform="matrix(.5 0 0 .5 50 20)"/><animateTransform attributeName="transform" calcMode="spline" type="rotate" values="0 50 50;360 50 50" keyTimes="0;1" keySplines="0.4 0 0.3 1" repeatCount="indefinite" dur="1"/></g><g transform="rotate(223.46 50 50)"><circle r="10" fill="#fff" transform="matrix(.5 0 0 .5 50 20)"/><animateTransform attributeName="transform" calcMode="spline" type="rotate" values="0 50 50;360 50 50" keyTimes="0;1" keySplines="0.43333333333333335 0 0.3333333333333333 1" repeatCount="indefinite" dur="1"/></g><g transform="rotate(202.853 50 50)"><circle r="9" fill="#fff" transform="matrix(.5 0 0 .5 50 20)"/><animateTransform attributeName="transform" calcMode="spline" type="rotate" values="0 50 50;360 50 50" keyTimes="0;1" keySplines="0.4666666666666667 0 0.36666666666666664 1" repeatCount="indefinite" dur="1"/></g><g transform="rotate(182.404 50 50)"><circle r="8" fill="#fff" transform="matrix(.5 0 0 .5 50 20)"/><animateTransform attributeName="transform" calcMode="spline" type="rotate" values="0 50 50;360 50 50" keyTimes="0;1" keySplines="0.5 0 0.4 1" repeatCount="indefinite" dur="1"/></g><g transform="rotate(161.35 50 50)"><circle r="7" fill="#fff" transform="matrix(.5 0 0 .5 50 20)"/><animateTransform attributeName="transform" calcMode="spline" type="rotate" values="0 50 50;360 50 50" keyTimes="0;1" keySplines="0.5333333333333333 0 0.43333333333333335 1" repeatCount="indefinite" dur="1"/></g><g transform="rotate(142.881 50 50)"><circle r="6" fill="#fff" transform="matrix(.5 0 0 .5 50 20)"/><animateTransform attributeName="transform" calcMode="spline" type="rotate" values="0 50 50;360 50 50" keyTimes="0;1" keySplines="0.5666666666666667 0 0.4666666666666667 1" repeatCount="indefinite" dur="1"/></g><g transform="rotate(124.19 50 50)"><circle r="5" fill="#fff" transform="matrix(.5 0 0 .5 50 20)"/><animateTransform attributeName="transform" calcMode="spline" type="rotate" values="0 50 50;360 50 50" keyTimes="0;1" keySplines="0.6 0 0.5 1" repeatCount="indefinite" dur="1"/></g><g transform="rotate(109.951 50 50)"><circle r="4" fill="#fff" transform="matrix(.5 0 0 .5 50 20)"/><animateTransform attributeName="transform" calcMode="spline" type="rotate" values="0 50 50;360 50 50" keyTimes="0;1" keySplines="0.6333333333333333 0 0.5333333333333333 1" repeatCount="indefinite" dur="1"/></g><g transform="rotate(96.543 50 50)"><circle r="3" fill="#fff" transform="matrix(.5 0 0 .5 50 20)"/><animateTransform attributeName="transform" calcMode="spline" type="rotate" values="0 50 50;360 50 50" keyTimes="0;1" keySplines="0.6666666666666666 0 0.5666666666666667 1" repeatCount="indefinite" dur="1"/></g><g transform="rotate(85.008 50 50)"><circle r="2" fill="#fff" transform="matrix(.5 0 0 .5 50 20)"/><animateTransform attributeName="transform" calcMode="spline" type="rotate" values="0 50 50;360 50 50" keyTimes="0;1" keySplines="0.7 0 0.6 1" repeatCount="indefinite" dur="1"/></g><g transform="rotate(75.02 50 50)"><circle r="1" fill="#fff" transform="matrix(.5 0 0 .5 50 20)"/><animateTransform attributeName="transform" calcMode="spline" type="rotate" values="0 50 50;360 50 50" keyTimes="0;1" keySplines="0.7333333333333333 0 0.6333333333333333 1" repeatCount="indefinite" dur="1"/></g><g transform="rotate(66.264 50 50)"><animateTransform attributeName="transform" calcMode="spline" type="rotate" values="0 50 50;360 50 50" keyTimes="0;1" keySplines="0.7666666666666666 0 0.6666666666666666 1" repeatCount="indefinite" dur="1"/></g></g></svg>