<svg xmlns="http://www.w3.org/2000/svg" width="44" height="44" viewBox="0 0 44 44" fill="none"><path d="M2.443 7.113C.733 10.073.733 14.049.733 22c0 7.951 0 11.926 1.71 14.888a12.76 12.76 0 0 0 4.67 4.67c2.581 1.49 5.933 1.682 12.015 1.706V14.122h-5.616c-.019-1.615-.019-3.249-.019-4.882h16.588v4.863h-5.616v29.163c6.341-.018 9.784-.185 12.422-1.708a12.76 12.76 0 0 0 4.67-4.67c1.71-2.962 1.71-6.937 1.71-14.888 0-7.95 0-11.926-1.71-14.887a12.76 12.76 0 0 0-4.67-4.671C33.926.732 29.95.732 22 .732c-7.95 0-11.926 0-14.887 1.71a12.76 12.76 0 0 0-4.67 4.67z" fill="transparent"/><path d="M19.128 14.122v29.142l5.337.002V14.103h5.616V9.24H13.493c0 1.633 0 3.267.02 4.882h5.615z" fill="transparent"/><path d="M2.443 7.113C.733 10.073.733 14.049.733 22c0 7.951 0 11.926 1.71 14.888a12.76 12.76 0 0 0 4.67 4.67c2.581 1.49 5.933 1.682 12.015 1.706V14.122h-5.616c-.019-1.615-.019-3.249-.019-4.882h16.588v4.863h-5.616v29.163c6.341-.018 9.784-.185 12.422-1.708a12.76 12.76 0 0 0 4.67-4.67c1.71-2.962 1.71-6.937 1.71-14.888 0-7.95 0-11.926-1.71-14.887a12.76 12.76 0 0 0-4.67-4.671C33.926.732 29.95.732 22 .732c-7.95 0-11.926 0-14.887 1.71a12.76 12.76 0 0 0-4.67 4.67z" fill="#2856F6"/></svg>