<svg width="28" height="28" viewBox="0 0 28 28" fill="none" xmlns="http://www.w3.org/2000/svg"><path d="M1.557 4.527C.469 6.411.469 8.941.469 14.001c0 5.06 0 7.59 1.088 9.474a8.12 8.12 0 0 0 2.972 2.972c1.642.948 3.775 1.07 7.646 1.086V8.988H8.6C8.589 7.96 8.589 6.92 8.589 5.88h10.556v3.096H15.57v18.557c4.035-.011 6.226-.117 7.904-1.086a8.12 8.12 0 0 0 2.973-2.972c1.087-1.885 1.087-4.415 1.087-9.474 0-5.06 0-7.59-1.087-9.474a8.12 8.12 0 0 0-2.973-2.972C21.591.467 19.061.467 14.002.467c-5.06 0-7.589 0-9.473 1.088a8.12 8.12 0 0 0-2.972 2.972z" fill="#A7F628"/><path d="M12.175 8.988v18.545h3.396V8.977h3.574V5.881H8.589c0 1.04 0 2.08.012 3.107h3.574z" fill="#111434"/></svg>