<svg id="Слой_1" data-name="Слой 1" xmlns="http://www.w3.org/2000/svg" viewBox="0 0 1185.87 268.9"><defs><style>.cls-1,.cls-2{fill:#fff}.cls-1{stroke:#fff;stroke-miterlimit:10;stroke-width:8px}</style></defs><title>logo-white</title><path class="cls-1" d="M-483.93 195.45v-260.9H693.94v260.9zm8.91-252V186.6H685.13V-56.54Q105-56.57-475-56.55z" transform="translate(487.93 69.45)"/><path class="cls-2" d="M352.68-12c6.27-7.12 15.7-10.52 25-11.39 10.2-.72 21-.06 30.06 5.23 7.67 4.32 12.94 12 15.4 20.39 3.63 11.45 1.84 23.58 2.26 35.38h-26.23c-.07-7.23.14-14.45-.15-21.67-.33-4.57-1.79-9.66-6-12.15-5.91-3.47-14.49-3-19.23 2.27-3.3 4.2-3.43 9.85-3.49 15v92c.14 4.81.59 10.34 4.31 13.85a16.25 16.25 0 0 0 20 .15c3.37-2.94 4.29-7.73 4.44-12 .19-8.93 0-17.86.09-26.78h26.24v27.82c-.3 10.65-3.65 21.68-11.28 29.4-8 7.78-19.52 10.54-30.37 10.23-11 .22-22.87-2.79-30.57-11.12-7.64-8.14-10.36-19.59-10.63-30.46v-96.1c.28-10.68 2.89-21.87 10.2-30zM-444-21.6h86V3.51h-29.13v150.2h-27.75V3.52h-29.13Q-444-9-444-21.6zM-258.14-21.6h27.55v150.15c15.28.11 30.57 0 45.85 0v25.12h-73.4V-21.6zM-178.51-21.54c9.29-.14 18.57 0 27.86-.06v76.08c12.39-25.31 24.45-50.77 36.82-76.09 9.15 0 18.3-.06 27.46.06q-19 38.32-37.93 76.65c-1.13 1.38 0 3 .45 4.38 12.56 31.36 25 62.79 37.46 94.18-9.62.08-19.24.12-28.86 0-8.87-23.2-17.74-46.41-26.9-69.5-2.58 5.51-5.92 10.63-8.36 16.2-.35 17.78-.05 35.59-.15 53.38-9.29 0-18.59.09-27.88-.06.36-15.53-.16-31.07 0-46.61v-45c.55-7-.13-14 0-21V11v-26-6.58zM-81.15-21.6h27.54v133.67c.23 4.53.28 9.42 2.81 13.37 1.67 2.53 4.54 3.73 7.2 4.94 4.5.28 9.49.67 13.29-2.25 5.21-3.46 5.46-10.4 5.5-16q.08-66.86 0-133.71H1.46V115c0 10.34-2.83 21.13-9.75 29-7.14 8.26-18.39 11.9-29.07 11.81-10.45.51-21.59-1.16-30-7.86-9.47-7.47-13.64-19.95-13.77-31.83q-.06-49 0-98.08V-21.6zM13.83-21.6c11.65 0 23.29-.07 34.94.05C58 13.31 67.79 48 76.95 82.91c.33-34.83.05-69.67.14-104.51 8.28 0 16.55-.06 24.82.05v175.21c-9.57.13-19.13 0-28.69.06-10.89-39.58-21.57-79.23-32.41-118.83a48 48 0 0 1-1.48-7.7 69.76 69.76 0 0 0-.53 7.9V153.7c-8.33.14-16.66 0-25 .07V-21.6zM201.75-21.58h28.19C235.56 16.24 241 54.09 246.82 91.9c1.12 9.6 3.06 19.09 3.93 28.72 3.81-21.45 6.5-43.1 9.88-64.63q5.7-38.81 11.5-77.6h25.47c-2.78 21.68-6.85 43.19-9.73 64.85l-.35.59C282.2 80.48 276 117 270.74 153.63c-13.92.2-27.83 0-41.75.09q-13.71-87.63-27.24-175.3zM529.92-21.6h38.8c3.63 23.22 7.59 46.38 11.37 69.58 2.77 18.07 6.23 36 8.64 54.16.33-1.68.66-3.36 1.07-5q8.89-59.39 18-118.74h38.65v175.32h-26.22V66.06c-.14-12.39.32-24.8-.33-37.18-2.42 20.26-6.06 40.35-8.93 60.55-3.32 21.43-6.49 42.87-9.86 64.29-8.84 0-17.68.07-26.52-.05-6.45-41.11-14-82.07-20.22-123.21-.62 41.08-.1 82.18-.27 123.26h-24.18V-21.6zM-321.3-22.95c12.53-1.63 26.47-.74 36.94 7.08C-274.21-8.3-269.7 4.73-269.63 17v95.94c.2 9.58-1.94 19.5-7.46 27.46-5.72 8.35-15.31 13.35-25.21 14.67-9.29 1.13-19 1-27.89-2.32a33.69 33.69 0 0 1-17.87-15.1 49 49 0 0 1-5.8-22.64V17c.27-10.18 3.15-20.76 10-28.51 5.72-6.51 14-10.25 22.53-11.48zm-.11 27.88c-4.4 3.7-4.51 9.94-4.62 15.23q-.07 45 0 89.93c.11 5-.12 10.43 2.62 14.87 5.24 7.36 17.88 7.48 23.28.26 3-4.43 2.5-10 2.92-15.12V21.98c-.43-5.08.12-10.69-2.93-15.1-1.84-2.78-5-4-8-5.16-4.57-.27-9.67-.1-13.22 3.21zM122.41-10.18c6-7.71 15.61-11.87 25.17-13 12.66-1.32 26.74-.06 36.84 8.48C194-6.82 197.55 6 197.88 18v96.06c-.35 9.71-2.5 19.79-8.56 27.63-4.7 6.42-12 10.37-19.48 12.56-13.4 2.59-28.48 2.45-40.24-5.33-11.09-7.3-15.8-21-16.15-33.79V19.01c.07-10.29 2.44-21 9-29.19zm30.11 12c-3.67.7-7.34 2.68-9.09 6.12-2.19 4.32-2.2 9.29-2.23 14v89c0 4.87.17 10.12 2.92 14.34 4.67 6.1 14.33 6.7 20.45 2.53 4.63-3.33 5.41-9.58 5.44-14.86.06-30.32 0-60.63 0-90.95 0-5.26 0-11-3.14-15.53s-9.27-5.44-14.39-4.68zM452.77-18.57c11.33-5.94 24.82-6 37.12-3.61 7.77 2.15 15.22 6.32 20 13 4.65 6.12 6.79 13.67 7.91 21.16.6 26.36.09 52.75.26 79.11-.12 9.69.28 19.39-.26 29.07-1.26 9.1-4.41 18.35-11.12 24.9-8.07 8.06-19.93 11-31 10.66-10.82.22-22.32-2.66-30.22-10.43-8.12-7.79-11.46-19.29-11.64-30.22v-88c0-6.81-.38-13.72 1.2-20.41 2-10.41 8.27-20.21 17.76-25.24zM464 7.46c-1.87 2.89-2 6.4-2.43 9.7-.4 27.94-.06 55.9-.17 83.85.12 7.22-.6 14.68 1.62 21.66 1.35 4.22 5.47 6.44 9.43 7.71 4.36.23 9.17.15 12.72-2.8 4.71-3.61 5.07-10.09 5.11-15.54q.06-46 0-92c-.07-5.23-.35-11.36-4.61-15.05-3.54-3.3-8.64-3.48-13.19-3.24-3.22 1.18-6.74 2.56-8.48 5.74zM304.42 127.36c8.93-.13 17.87 0 26.8-.06v26.41c-8.93 0-17.87.07-26.8-.05v-26.3z" transform="translate(487.93 69.45)"/></svg>