<svg xmlns="http://www.w3.org/2000/svg" width="28" height="28" viewBox="0 0 28 28" fill="none"><path d="M4.931 13.185c5.454-2.362 9.071-3.937 10.88-4.695 5.191-2.159 6.27-2.538 6.97-2.538.146 0 .496.03.73.204.174.146.233.35.262.496.029.146.058.467.029.73-.292 2.945-1.488 10.12-2.13 13.416-.262 1.4-.787 1.867-1.282 1.925-1.08.088-1.896-.73-2.946-1.4-1.634-1.08-2.567-1.75-4.171-2.8-1.838-1.225-.642-1.896.408-2.975.263-.292 5.046-4.637 5.133-5.017 0-.058.03-.233-.087-.32-.087-.088-.262-.059-.38-.03-.174.03-2.8 1.78-7.874 5.192-.758.525-1.43.758-2.013.758-.67 0-1.954-.379-2.887-.7-1.167-.379-2.1-.583-2.013-1.225.03-.32.467-.67 1.371-1.02z" fill="#fff"/></svg>