<svg version="1.2" baseProfile="tiny" xmlns="http://www.w3.org/2000/svg" viewBox="0 0 61.3 67.4"><path fill="#FFF" d="M56.2 21.5c-1.7-.8-3.8-.2-4.7 1.5l-7 14c-.3.5-.9.7-1.3.5h-.1c-.6-.2-.9-.8-.6-1.4l7.8-18.7c.7-1.8-.1-3.8-1.9-4.5-1.8-.7-3.8.1-4.5 1.9l-7.8 18.7c-.2.6-.8.9-1.4.6-.5-.2-.8-.8-.6-1.3l6.5-22.5c.6-1.8-.6-3.7-2.3-4.4-1.8-.6-3.8.5-4.4 2.3l-6.4 21.6c-.2.6-.9 1-1.4.7l-.4-.1c-.5-.2-.7-.7-.6-1.2l3.3-18.5c.4-1.9-.9-3.7-2.8-4-1.9-.4-3.7.9-4 2.8 0 0-2.5 15.1-3.3 18.3-.7 3.1-1.2 5-2 7.7-.5 1.5-2.1 2.1-3.1 0 0 0-1.6-4.4-2.6-6.7-1-2.2-2.6-3.5-4.5-3-2.2.5-3.5 2.7-2.9 4.8 0 0 2.8 14.1 5.5 20.5 1.1 2.8 2.8 5.9 5.6 6.9 5.5 2 8.8 3.2 14.5 5.3 7.3 2.7 11.7-4 15.4-11S57.9 26 57.9 26c.6-1.6 0-3.7-1.7-4.5z"/></svg>