<svg width="1392" height="278" viewBox="0 0 1392 278" fill="none" xmlns="http://www.w3.org/2000/svg"><path d="M0 3.001h132.653v38.647H87.739V273.38H45.063V41.797H.15C0 28.965 0 15.983 0 3.001zM357.812 3.001h42.527v231.433c23.576.15 47.152 0 70.728 0v38.647H357.962l-.15-270.08zM516.44 3.149c14.325-.15 28.649 0 42.974-.15v117.284c19.1-38.945 37.752-78.338 56.702-117.284 14.026 0 28.202-.149 42.377.15-19.547 39.392-38.945 78.785-58.492 118.327-1.642 2.089 0 4.626.746 6.715 19.398 48.346 38.497 96.841 57.895 145.187-14.772.149-29.544.149-44.615 0-13.728-35.812-27.306-71.474-41.482-107.137-4.029 8.505-9.102 16.414-12.982 24.919-.597 27.456 0 54.912-.149 82.367-14.325 0-28.649.149-42.974-.149.597-23.875-.298-47.898 0-71.922v-69.385c.746-10.744-.149-21.636 0-32.38V53.434 13.593a122.076 122.076 0 0 1 0-10.444zM702.048 3.001h42.378v206.216c.298 7.013.447 14.474 4.327 20.592 2.686 3.879 7.013 5.67 11.042 7.61 7.013.447 14.623 1.044 20.442-3.432 8.058-5.372 8.506-15.966 8.506-24.621V3.15h40.586v210.693c0 15.817-4.327 32.529-15.071 44.914-10.892 12.683-28.35 18.353-44.913 18.204-16.265.746-33.275-1.791-46.257-12.236-14.623-11.788-21.189-31.037-21.338-49.241V64.18c.298-20.294.298-40.587.298-61.179zM884.251 3c17.906 0 35.961-.149 53.867.15 14.175 53.866 29.246 107.286 43.421 161.152.448-53.717 0-107.435.15-161.152 12.832 0 25.511-.15 38.201.149v270.08c-14.77.149-29.398 0-44.319.149-16.862-61.029-33.275-122.058-49.988-183.237a80.287 80.287 0 0 1-2.238-11.937c-.447 4.029-.746 8.207-.746 12.236v182.938c-12.832.149-25.814 0-38.497.149L884.251 3zM1243.86 3.145c14.47-.15 28.95 0 43.42 0 8.66 58.343 17.16 116.686 26.11 175.029 1.65 14.773 4.78 29.396 5.97 44.317 5.82-33.125 10-66.401 15.22-99.676 5.82-39.99 11.79-79.68 17.76-119.67h39.39c-4.33 33.424-10.44 66.55-14.92 100.123l-.45.895c-8.2 56.404-17.75 112.807-25.96 169.36-21.49.299-42.83 0-64.46.149-14.18-90.424-28.05-180.401-42.08-270.527zM224.857 1.049c19.249-2.537 40.885-1.045 56.851 10.893 15.518 11.788 22.681 31.783 22.681 50.733v147.873c.298 14.772-2.985 30.141-11.639 42.377-8.804 12.981-23.576 20.591-38.796 22.68-14.325 1.642-29.247 1.493-42.974-3.581-11.788-4.178-21.487-12.534-27.605-23.277-5.67-10.744-8.804-22.681-8.953-34.917V62.824c.448-15.667 4.775-32.081 15.369-44.018 9.102-9.998 21.786-15.966 35.066-17.757zm-.15 42.974c-6.714 5.67-7.013 15.22-7.162 23.427V206.07c.149 7.759-.149 15.966 4.029 22.979 8.058 11.341 27.605 11.639 35.961.448 4.626-6.715 3.88-15.369 4.476-23.278V70.434c-.596-7.908.15-16.563-4.476-23.277-2.835-4.328-7.759-6.118-12.385-8.058-7.013-.448-14.922-.15-20.443 4.924zM1085.83 20.729c9.25-11.937 24.02-18.354 38.8-19.995 19.54-1.94 41.18-.15 56.7 13.131 14.77 12.236 20.14 31.932 20.89 50.435V212.47c-.45 14.921-3.88 30.589-13.28 42.526-7.31 9.849-18.5 15.966-30.14 19.398-20.6 4.029-44.02 3.731-61.93-8.207-17.16-11.191-24.32-32.379-24.92-52.076V65.942c.15-15.967 3.88-32.53 13.88-45.213zm46.41 18.503c-5.67 1.044-11.19 4.178-14.03 9.4-3.43 6.566-3.43 14.325-3.43 21.637v137.278c0 7.61.3 15.518 4.47 22.084 7.32 9.4 22.09 10.296 31.64 3.879 7.16-5.073 8.35-14.772 8.35-22.979.15-46.704 0-93.409 0-140.113 0-8.207 0-17.16-4.77-23.875-4.78-7.013-14.33-8.505-22.23-7.311z" fill="#F5F7FA"/></svg>