<svg xmlns="http://www.w3.org/2000/svg" xmlns:xlink="http://www.w3.org/1999/xlink" viewBox="0 0 200.9 201"><defs><path id="a" d="M0 0h200.9v201H0z"/></defs><clipPath id="b"><use xlink:href="#a" overflow="visible"/></clipPath><path fill="#fff" clip-path="url(#b)" fill-rule="evenodd" clip-rule="evenodd" d="M195.3 171.7l-43.5-43.5c-.2-.2-.5-.4-.7-.6 8.6-13 13.6-28.5 13.6-45.2C164.7 36.9 127.8 0 82.3 0 36.9 0 0 36.9 0 82.3c0 45.5 36.9 82.3 82.3 82.3 16.7 0 32.3-5 45.2-13.6.2.2.4.5.6.7l43.5 43.5c6.5 6.5 17.1 6.5 23.7 0 6.6-6.4 6.6-17 0-23.5zm-113-35.6c-29.7 0-53.8-24.1-53.8-53.8 0-29.7 24.1-53.8 53.8-53.8 29.7 0 53.8 24.1 53.8 53.8 0 29.7-24.1 53.8-53.8 53.8zm0 0"/></svg>