<svg id="Gmail_Icon" data-name="Gmail Icon" xmlns="http://www.w3.org/2000/svg" viewBox="0 0 300.71 217.18"><defs><style>.cls-1{fill:url(#linear-gradient)}.cls-2{fill:none}.cls-3{fill:#e14c41}.cls-4{fill:#333;opacity:.27}.cls-5{fill:#4d4d4d;opacity:.2}</style><linearGradient id="linear-gradient" y1="108.59" x2="300.71" y2="108.59" gradientUnits="userSpaceOnUse"><stop offset="0" stop-color="#f2f2f2"/><stop offset="1" stop-color="#d7d7d7"/></linearGradient></defs><title>gmail</title><rect class="cls-1" width="300.71" height="217.18" rx="19.49" ry="19.49"/><g id="Body"><path class="cls-2" d="M262.36 0H38.35l112 81.85L262.36 0z"/><path class="cls-2" d="M150.35 129.1L33.41 43.64v173.54H267.3V43.64L150.35 129.1z"/><path class="cls-3" d="M538.2 191.38h-18.86l-112 81.85-112-81.85h-18.87A19.49 19.49 0 0 0 257 210.87v178.2a19.49 19.49 0 0 0 19.49 19.49h13.92V235l116.94 85.46L524.27 235v173.56h13.93a19.49 19.49 0 0 0 19.49-19.49v-178.2a19.49 19.49 0 0 0-19.49-19.49z" transform="translate(-256.98 -191.38)"/></g><g id="Shadow"><path class="cls-2" d="M407.33 323.35l150.36-109.88v-2.6a19.49 19.49 0 0 0-19.49-19.49H276.47A19.49 19.49 0 0 0 257 210.87v178.2a19.49 19.49 0 0 0 19.49 19.49h247.44z" transform="translate(-256.98 -191.38)"/><path class="cls-4" d="M523.93 408.56h14.27a19.49 19.49 0 0 0 19.49-19.49v-178.2L407.33 320.48z" transform="translate(-256.98 -191.38)"/></g><path class="cls-5" d="M33.41 214.29l116.94-85.19-3.02-2.21-113.92 82.26v5.14z" id="Left_Stroke" data-name="Left Stroke"/></svg>