<svg xmlns="http://www.w3.org/2000/svg" viewBox="0 0 30.15 31.18"><defs><style>.cls-1{isolation:isolate}.cls-2{fill:#e6e6e6}.cls-3{fill:#ccc}.cls-4{fill:#1c5d93}.cls-5{fill:#82888c}.cls-6{fill:#6db143}.cls-7{fill:#f22c48}.cls-8{fill:#e3e0c6;mix-blend-mode:multiply}.cls-9{fill:#d8d8d8}.cls-10{fill:#008fcb}.cls-11{fill:#fff}</style></defs><title>phone</title><g class="cls-1"><g id="Слой_1" data-name="Слой 1"><rect class="cls-2" x=".15" y="1.18" width="30" height="30" rx="3" ry="3"/><path class="cls-3" d="M115 88a3 3 0 0 0-3-3H88a3 3 0 0 0-3 3v5.35h30z" transform="translate(-84.85 -83.82)"/><path class="cls-4" d="M12.58 3.5h13.96v4.17H12.58z"/><rect class="cls-5" x="17.67" y="11.54" width="3.78" height="2.97" rx=".4" ry=".4"/><rect class="cls-5" x="12.58" y="11.54" width="3.78" height="2.97" rx=".4" ry=".4"/><rect class="cls-5" x="22.75" y="11.54" width="3.78" height="2.97" rx=".4" ry=".4"/><rect class="cls-5" x="17.67" y="15.53" width="3.78" height="2.97" rx=".4" ry=".4"/><rect class="cls-5" x="12.58" y="15.53" width="3.78" height="2.97" rx=".4" ry=".4"/><rect class="cls-5" x="22.75" y="15.53" width="3.78" height="2.97" rx=".4" ry=".4"/><rect class="cls-5" x="17.67" y="19.51" width="3.78" height="2.97" rx=".4" ry=".4"/><rect class="cls-5" x="12.58" y="19.51" width="3.78" height="2.97" rx=".4" ry=".4"/><rect class="cls-5" x="22.75" y="19.51" width="3.78" height="2.97" rx=".4" ry=".4"/><rect class="cls-5" x="12.58" y="24.25" width="3.78" height="2.97" rx=".4" ry=".4"/><rect class="cls-6" x="17.69" y="24.25" width="3.78" height="2.97" rx=".4" ry=".4"/><rect class="cls-7" x="22.75" y="24.25" width="3.78" height="2.97" rx=".4" ry=".4"/><path class="cls-8" d="M12.58 3.5h13.96v1.07H12.58z"/><path class="cls-8" d="M25.56 4.56h.97v3.1h-.97z"/><rect class="cls-9" width="9.68" height="30" rx="3" ry="3"/><rect class="cls-2" x="1.09" y="1.07" width="7.56" height="24.86" rx="3" ry="3"/><rect class="cls-10" x="2.05" y="3.89" width="5.2" height="5.2" rx="1" ry="1"/><path class="cls-11" d="M3.44 5.04h2.4v.71h-2.4z"/><path class="cls-11" transform="rotate(90 88.985 6.795)" d="M87.7 90.75h3.6v.77h-3.6z"/></g></g></svg>