<svg id="skype" xmlns="http://www.w3.org/2000/svg" viewBox="0 0 108.02 108.02"><defs><style>.cls-1{fill:#38a2f3}.cls-2{fill-opacity:.1}.cls-3{fill-opacity:.14}.cls-4{fill:#fff}</style></defs><title>skype2</title><path id="Shape_" data-name="Shape" class="cls-1" d="M100.12 61.33A47.83 47.83 0 0 0 45.28 6.61 27.43 27.43 0 0 0 5.53 43.95a48.11 48.11 0 0 0 57 57.3 27.43 27.43 0 0 0 37.58-39.91z"/><path id="shadow" class="cls-2" d="M54 6v96.23a48.43 48.43 0 0 0 8.54-1 27.43 27.43 0 0 0 37.58-39.91A47.75 47.75 0 0 0 54 6"/><path id="shadow-2" class="cls-3" d="M72.55 43.23l-.11.11.11-.11m-20.77-9.31a13.59 13.59 0 0 0-7.65 1.93q-2.91 1.93-2.91 4.65a4.52 4.52 0 0 0 1 2.91 8.09 8.09 0 0 0 2.72 2.1 19.5 19.5 0 0 0 3.5 1.38q1.77.5 5.86 1.45 5.11 1.11 9.26 2.45c.4.13.77.27 1.15.41l.08-.13 7.66-7.73a5.08 5.08 0 0 1-3.71 1.49 4.66 4.66 0 0 1-3.2-1 13.18 13.18 0 0 1-2.37-3.2 14.55 14.55 0 0 0-4-5q-2.31-1.79-7.42-1.78M74 75.14v.06c-.13.19-.28.37-.42.56l.48-.49v-.13M34 32h-.29L5 61a48 48 0 0 0 42.52 41l23.11-23.31a21.3 21.3 0 0 1-5 2.86 33 33 0 0 1-12.91 2.3q-9 0-14.77-3.14a19.18 19.18 0 0 1-6.7-6 13 13 0 0 1-2.57-7.33 4.69 4.69 0 0 1 1.55-3.53 5.45 5.45 0 0 1 3.94-1.48 4.86 4.86 0 0 1 3.28 1.15 8.87 8.87 0 0 1 2.29 3.4 22.15 22.15 0 0 0 2.5 4.48 9.93 9.93 0 0 0 3.77 3 15 15 0 0 0 6.4 1.17 15.22 15.22 0 0 0 8.85-2.35 7 7 0 0 0 3.41-5.87 6 6 0 0 0-1.84-4.53 12 12 0 0 0-4.74-2.66q-2.91-.92-7.78-2a60 60 0 0 1-10.91-3.31 17.47 17.47 0 0 1-7-5.17 12.73 12.73 0 0 1-2.58-8.13 13.21 13.21 0 0 1 2.72-8.23A14.1 14.1 0 0 1 33.72 32"/><path id="Shape" class="cls-4" d="M74.17 75.36a18.42 18.42 0 0 1-8.26 6.34A32.91 32.91 0 0 1 53 84q-8.94 0-14.75-3.14a19.14 19.14 0 0 1-6.69-6A13 13 0 0 1 29 67.52 4.69 4.69 0 0 1 30.55 64a5.45 5.45 0 0 1 3.93-1.48 4.84 4.84 0 0 1 3.28 1.15A8.87 8.87 0 0 1 40 67.06a22.08 22.08 0 0 0 2.5 4.47 9.92 9.92 0 0 0 3.76 3 15 15 0 0 0 6.39 1.17 15.2 15.2 0 0 0 8.84-2.35 7 7 0 0 0 3.4-5.87 6 6 0 0 0-1.84-4.53 12 12 0 0 0-4.73-2.66q-2.9-.92-7.77-2A60 60 0 0 1 39.7 55a17.45 17.45 0 0 1-7-5.16 12.72 12.72 0 0 1-2.58-8.12 13.21 13.21 0 0 1 2.72-8.22 17 17 0 0 1 7.91-5.5 34.43 34.43 0 0 1 12.11-2 32.32 32.32 0 0 1 9.62 1.28 20.92 20.92 0 0 1 6.73 3.41 14.38 14.38 0 0 1 3.91 4.46 9.67 9.67 0 0 1 1.24 4.55 5.16 5.16 0 0 1-1.54 3.66A5.08 5.08 0 0 1 69 45a4.65 4.65 0 0 1-3.2-1 13.21 13.21 0 0 1-2.37-3.19 14.54 14.54 0 0 0-4-4.95Q57.14 34.1 52 34.1a13.56 13.56 0 0 0-7.61 1.9q-2.9 1.93-2.9 4.65a4.52 4.52 0 0 0 1 2.91 8.08 8.08 0 0 0 2.72 2.1 19.47 19.47 0 0 0 3.5 1.38q1.77.5 5.85 1.45 5.1 1.11 9.24 2.45a29.35 29.35 0 0 1 7 3.25 13.78 13.78 0 0 1 4.53 4.85A14.61 14.61 0 0 1 77 66.22a15.66 15.66 0 0 1-2.83 9.14z"/></svg>