<svg id="Слой_1" data-name="Слой 1" xmlns="http://www.w3.org/2000/svg" viewBox="0 0 240 240"><defs><style>.cls-1{fill:url(#linear-gradient)}.cls-2{opacity:.2}.cls-3{fill:#c6d8e9}.cls-4{fill:#a9c9dd}.cls-5{fill:#edf6fb}</style><linearGradient id="linear-gradient" x1="120" x2="120" y2="240" gradientUnits="userSpaceOnUse"><stop offset="0" stop-color="#39afe2"/><stop offset="1" stop-color="#1c93d2"/></linearGradient></defs><title>telegram</title><g id="_Группа_" data-name="&amp;lt;Группа&amp;gt;"><circle id="_Контур_" data-name="&amp;lt;Контур&amp;gt;" class="cls-1" cx="120" cy="120" r="120"/><path id="_Контур_2" data-name="&amp;lt;Контур&amp;gt;" class="cls-2" d="M233.88 158.19a120.06 120.06 0 0 1-110.35 82c-1.17 0-74.26-116.42-74.26-116.42l129-50.44z" transform="translate(0 -.25)"/><path id="_Контур_3" data-name="&amp;lt;Контур&amp;gt;" class="cls-3" d="M83.67 136.69l10.15 34.69 4.33 3.93 65.39-84.29-4.42-3.44L78.27 120l5.4 16.69z"/><path id="_Контур_4" data-name="&amp;lt;Контур&amp;gt;" class="cls-4" d="M114.73 139.23c-.79 0-14.53 5.24-14.53 5.24l-2.56 30.09a1.07 1.07 0 0 0 1.77.9l22.88-20z" transform="translate(0 -.25)"/><path id="_Контур_5" data-name="&amp;lt;Контур&amp;gt;" class="cls-5" d="M158.81 175.74c5-22 16.43-73.71 21.36-96.17a6 6 0 0 0-7.92-6.85L52.43 117.93a5.07 5.07 0 0 0 .31 9.6l30.92 9.41 70.54-45.5c1.86-1.19 3.66.83 2.13 2.29l-56.13 50.73 47.74 35.3a6.93 6.93 0 0 0 10.87-4.02z" transform="translate(0 -.25)"/></g></svg>