<svg id="Layer_1" data-name="Layer 1" xmlns="http://www.w3.org/2000/svg" viewBox="0 0 444.96 444.96"><defs><style>.cls-1{fill:#0288d1}.cls-1,.cls-2,.cls-4{fill-rule:evenodd}.cls-2{opacity:.2}.cls-3{fill:#fff}.cls-4{opacity:.1}</style></defs><title>vk-messenger</title><path class="cls-1" d="M68.61 0h307.83A68.57 68.57 0 0 1 445 68.61v307.83A68.57 68.57 0 0 1 376.44 445H68.61A68.57 68.57 0 0 1 0 376.44V68.61A68.57 68.57 0 0 1 68.61 0z" transform="translate(-.04 -.04)"/><path class="cls-2" d="M445 211.47v165A68.57 68.57 0 0 1 376.44 445s-400-268.91-167.22-176.2c87.88 35 3.29-66.8 63.79.26-14.3-12.68-62.75-47.15-57.66-43.56 2.78 2-.34 11.94-3.6 12.39-2.43.34-6-4.3-7.75-11.63q4.27 16.15-.4 19.39-14.44 10-114.28-103.19l44.69 4 88.23 84 19.52-88L251 145l70.25 56.5 4.25-38.75 2.75-11.5 10.25 1.25 26-5.74 5.85 5.88z" transform="translate(-.04 -.04)"/><path class="cls-3" d="M323.31 226.23s38.45-54.23 42.27-72.06c1.27-6.37-1.53-9.93-8.15-9.93h-33.35c-7.64 0-10.44 3.31-12.73 8.15 0 0-18 38.42-40 62.64-7 7.83-10.63 10.18-14.51 10.18-3.14 0-4.58-2.61-4.58-9.68v-61.87c0-8.66-1-11.2-8.15-11.2h-53.46c-4.07 0-6.62 2.37-6.62 5.6 0 8.15 12.48 32.08 12.48 32.08v45.58c0 9.17-.51 12.73-4.84 12.73-11.46 0-38.7-39.47-54-84.28-3.06-9.17-6.37-11.71-15-11.71H89.31c-4.84 0-8.4 3.31-8.4 8.15 0 8.91 10.44 50.16 51.43 105.42 27.5 37.17 63.65 57.29 96.25 57.29 19.86 0 24.7-3.31 24.7-11.71v-28.53c0-7.13 2.8-10.18 6.87-10.18 4.58 0 12.67 1.47 31.57 20.12 22.41 21.39 23.94 30.3 36.16 30.3h37.43c3.82 0 7.38-1.78 7.38-8.15 0-8.4-10.95-23.43-27.75-41.25-6.87-9.17-18.08-19.1-21.64-23.68-5.09-5.35-3.56-8.41 0-14.01z" transform="translate(-.04 -.04)"/><path class="cls-4" d="M445 227.88v148.56A68.57 68.57 0 0 1 376.44 445H68.61A68.57 68.57 0 0 1 0 376.44V227.88z" transform="translate(-.04 -.04)"/></svg>