<svg id="Layer_1" data-name="Layer 1" xmlns="http://www.w3.org/2000/svg" viewBox="0 0 29.56 20.4"><defs><style>.cls-1{fill:#252525;}</style></defs><title>YouTube</title><g id="youtube"><path class="cls-1" d="M58.93,37.32a2.59,2.59,0,0,0-.07-.33v-.15a2.84,2.84,0,0,0-2.69-1.93h.19a87.26,87.26,0,0,0-23.42,0h.2a2.84,2.84,0,0,0-2.69,1.93V37a2.77,2.77,0,0,0-.07.33,48.54,48.54,0,0,0,0,14,2.76,2.76,0,0,0,.07.33v.15a2.84,2.84,0,0,0,2.69,1.93h-.2a87.21,87.21,0,0,0,23.42,0h-.19a2.84,2.84,0,0,0,2.69-1.93v-.15a2.58,2.58,0,0,0,.07-.33A48.6,48.6,0,0,0,58.93,37.32ZM49,45l-6,4.35a.72.72,0,0,1-.42.14.74.74,0,0,1-.33-.08.72.72,0,0,1-.39-.64V40A.72.72,0,0,1,43,39.47l6,4.35A.72.72,0,0,1,49,45Z" transform="translate(-29.87 -34.12)"/></g></svg>
