<svg 
 xmlns="http://www.w3.org/2000/svg"
 xmlns:xlink="http://www.w3.org/1999/xlink"
 width="190px" height="46px">
<path fill-rule="evenodd"  fill="rgb(156, 28, 174)"
 d="M5.000,-0.000 L165.000,-0.000 C167.761,-0.000 170.000,2.239 170.000,5.000 L170.000,41.000 C170.000,43.761 167.761,46.000 165.000,46.000 L5.000,46.000 C2.239,46.000 -0.000,43.761 -0.000,41.000 L-0.000,5.000 C-0.000,2.239 2.239,-0.000 5.000,-0.000 Z"/>
<path fill-rule="evenodd"  fill="rgb(156, 28, 174)"
 d="M174.371,3.038 L186.929,15.596 C191.009,19.676 191.009,26.291 186.929,30.371 L174.371,42.929 C170.291,47.009 163.676,47.009 159.596,42.929 L147.038,30.371 C142.958,26.291 142.958,19.676 147.038,15.596 L159.596,3.038 C163.676,-1.042 170.291,-1.042 174.371,3.038 Z"/>
<path fill-rule="evenodd"  fill="rgb(255, 255, 255)"
 d="M171.000,16.000 C174.866,16.000 178.000,19.134 178.000,23.000 C178.000,26.866 174.866,30.000 171.000,30.000 C167.134,30.000 164.000,26.866 164.000,23.000 C164.000,19.134 167.134,16.000 171.000,16.000 Z"/>
</svg>