<svg id="Режим_изоляции" data-name="Режим изоляции" xmlns="http://www.w3.org/2000/svg" viewBox="0 0 89.16 89.16"><defs><style>.cls-1{fill:#764995;}.cls-2{fill:#fff;}</style></defs><title>Instagram</title><g id="instagram"><rect class="cls-1" width="89.16" height="89.16"/><g id="_Группа_" data-name="&lt;Группа&gt;"><path id="_Составной_контур_" data-name="&lt;Составной контур&gt;" class="cls-2" d="M241.43,403.26H228.87a8.57,8.57,0,0,0-8.57,8.57v12.56a8.57,8.57,0,0,0,8.57,8.57h12.56a8.57,8.57,0,0,0,8.57-8.57V411.84A8.57,8.57,0,0,0,241.43,403.26Zm5.84,21.35a5.69,5.69,0,0,1-5.69,5.69H228.72a5.69,5.69,0,0,1-5.69-5.69V411.76a5.69,5.69,0,0,1,5.69-5.69h12.85a5.69,5.69,0,0,1,5.69,5.69Z" transform="translate(-190.95 -373.65)"/><path id="_Составной_контур_2" data-name="&lt;Составной контур&gt;" class="cls-2" d="M235.15,410.48a7.71,7.71,0,1,0,7.71,7.71A7.71,7.71,0,0,0,235.15,410.48Zm0,12.7a5,5,0,1,1,5-5A5,5,0,0,1,235.15,423.19Z" transform="translate(-190.95 -373.65)"/><circle id="_Контур_" data-name="&lt;Контур&gt;" class="cls-2" cx="52.16" cy="36.54" r="1.8"/></g></g></svg>