<svg id="Layer_1" data-name="Layer 1" xmlns="http://www.w3.org/2000/svg" viewBox="0 0 89.16 89.16"><defs><style>.cls-1{fill:#24a3da;}.cls-2{fill:#fff;}</style></defs><title>Twitter</title><g id="twitter"><rect class="cls-1" width="89.16" height="89.16"/><path class="cls-2" d="M125.47,96.47a12.13,12.13,0,0,1-3.76,1.11,7,7,0,0,0,2.89-3.89,13.13,13.13,0,0,1-4.16,1.71,6.31,6.31,0,0,0-4.77-2.23,6.8,6.8,0,0,0-6.54,7,7.73,7.73,0,0,0,.16,1.6A18.16,18.16,0,0,1,95.8,94.46,7.43,7.43,0,0,0,94.92,98a7.15,7.15,0,0,0,2.91,5.85,6.18,6.18,0,0,1-3-.88v.1a7,7,0,0,0,5.25,6.91,6.17,6.17,0,0,1-1.73.23,5.19,5.19,0,0,1-1.22-.13,6.59,6.59,0,0,0,6.11,4.89,12.49,12.49,0,0,1-8.12,3,12,12,0,0,1-1.56-.1,17.5,17.5,0,0,0,10,3.18c12,0,18.61-10.73,18.61-20,0-.3,0-.6,0-.9A14.25,14.25,0,0,0,125.47,96.47Z" transform="translate(-65.65 -62.78)"/></g></svg>