<svg id="Layer_1" data-name="Layer 1" xmlns="http://www.w3.org/2000/svg" viewBox="0 0 89.16 89.16"><defs><style>.cls-1{fill:#c0282a;}.cls-2{fill:#fff;}</style></defs><title>YouTube</title><g id="youtube"><rect class="cls-1" width="89.16" height="89.16"/><path class="cls-2" d="M375.18,100.1a2.59,2.59,0,0,0-.07-.33l0-.15a2.84,2.84,0,0,0-2.69-1.93h.19a87.26,87.26,0,0,0-23.42,0h.2a2.84,2.84,0,0,0-2.69,1.93l0,.15a2.77,2.77,0,0,0-.07.33,48.54,48.54,0,0,0,0,14,2.76,2.76,0,0,0,.07.33l0,.15a2.84,2.84,0,0,0,2.69,1.93h-.2a87.21,87.21,0,0,0,23.42,0h-.19a2.84,2.84,0,0,0,2.69-1.93l0-.15a2.58,2.58,0,0,0,.07-.33,48.6,48.6,0,0,0,0-14Zm-9.93,7.66-6,4.35a.72.72,0,0,1-.42.14.74.74,0,0,1-.33-.08.72.72,0,0,1-.39-.64v-8.7a.72.72,0,0,1,1.14-.58l6,4.35a.72.72,0,0,1,0,1.17Z" transform="translate(-316.25 -62.78)"/></g></svg>