<svg id="Режим_изоляции" data-name="Режим изоляции" xmlns="http://www.w3.org/2000/svg" viewBox="0 0 89.16 89.16"><defs><style>.cls-1{fill:#764995}.cls-2{fill:#fff}</style></defs><title>Instagram</title><g id="instagram"><path class="cls-1" d="M0 0h89.16v89.16H0z"/><g id="_Группа_" data-name="&amp;lt;Группа&amp;gt;"><path id="_Составной_контур_" data-name="&amp;lt;Составной контур&amp;gt;" class="cls-2" d="M241.43 403.26h-12.56a8.57 8.57 0 0 0-8.57 8.57v12.56a8.57 8.57 0 0 0 8.57 8.57h12.56a8.57 8.57 0 0 0 8.57-8.57v-12.55a8.57 8.57 0 0 0-8.57-8.58zm5.84 21.35a5.69 5.69 0 0 1-5.69 5.69h-12.86a5.69 5.69 0 0 1-5.69-5.69v-12.85a5.69 5.69 0 0 1 5.69-5.69h12.85a5.69 5.69 0 0 1 5.69 5.69z" transform="translate(-190.95 -373.65)"/><path id="_Составной_контур_2" data-name="&amp;lt;Составной контур&amp;gt;" class="cls-2" d="M235.15 410.48a7.71 7.71 0 1 0 7.71 7.71 7.71 7.71 0 0 0-7.71-7.71zm0 12.7a5 5 0 1 1 5-5 5 5 0 0 1-5 5.01z" transform="translate(-190.95 -373.65)"/><circle id="_Контур_" data-name="&amp;lt;Контур&amp;gt;" class="cls-2" cx="52.16" cy="36.54" r="1.8"/></g></g></svg>