<svg xmlns="http://www.w3.org/2000/svg" width="430" height="125" viewBox="0 0 430 125" fill="none"><mask id="a" fill="#fff"><path d="M367.5 0C402.018 0 430 27.982 430 62.5S402.018 125 367.5 125a62.296 62.296 0 0 1-24.47-4.973 15.43 15.43 0 0 0-12.06 0A62.3 62.3 0 0 1 306.5 125a62.296 62.296 0 0 1-24.47-4.973 15.43 15.43 0 0 0-12.06 0A62.3 62.3 0 0 1 245.5 125a62.296 62.296 0 0 1-24.47-4.973 15.43 15.43 0 0 0-12.06 0A62.296 62.296 0 0 1 184.5 125a62.296 62.296 0 0 1-24.47-4.973 15.43 15.43 0 0 0-12.06 0A62.296 62.296 0 0 1 123.5 125a62.294 62.294 0 0 1-24.47-4.973 15.432 15.432 0 0 0-12.06 0A62.295 62.295 0 0 1 62.5 125C27.982 125 0 97.018 0 62.5S27.982 0 62.5 0a62.3 62.3 0 0 1 24.47 4.972 15.428 15.428 0 0 0 12.06 0C106.545 1.772 114.816 0 123.5 0a62.3 62.3 0 0 1 24.47 4.972 15.427 15.427 0 0 0 12.06 0A62.3 62.3 0 0 1 184.5 0a62.3 62.3 0 0 1 24.47 4.972 15.427 15.427 0 0 0 12.06 0A62.3 62.3 0 0 1 245.5 0a62.304 62.304 0 0 1 24.47 4.972 15.427 15.427 0 0 0 12.06 0A62.3 62.3 0 0 1 306.5 0a62.304 62.304 0 0 1 24.47 4.972 15.427 15.427 0 0 0 12.06 0A62.3 62.3 0 0 1 367.5 0z"/></mask><path d="M367.5 0C402.018 0 430 27.982 430 62.5S402.018 125 367.5 125a62.296 62.296 0 0 1-24.47-4.973 15.43 15.43 0 0 0-12.06 0A62.3 62.3 0 0 1 306.5 125a62.296 62.296 0 0 1-24.47-4.973 15.43 15.43 0 0 0-12.06 0A62.3 62.3 0 0 1 245.5 125a62.296 62.296 0 0 1-24.47-4.973 15.43 15.43 0 0 0-12.06 0A62.296 62.296 0 0 1 184.5 125a62.296 62.296 0 0 1-24.47-4.973 15.43 15.43 0 0 0-12.06 0A62.296 62.296 0 0 1 123.5 125a62.294 62.294 0 0 1-24.47-4.973 15.432 15.432 0 0 0-12.06 0A62.295 62.295 0 0 1 62.5 125C27.982 125 0 97.018 0 62.5S27.982 0 62.5 0a62.3 62.3 0 0 1 24.47 4.972 15.428 15.428 0 0 0 12.06 0C106.545 1.772 114.816 0 123.5 0a62.3 62.3 0 0 1 24.47 4.972 15.427 15.427 0 0 0 12.06 0A62.3 62.3 0 0 1 184.5 0a62.3 62.3 0 0 1 24.47 4.972 15.427 15.427 0 0 0 12.06 0A62.3 62.3 0 0 1 245.5 0a62.304 62.304 0 0 1 24.47 4.972 15.427 15.427 0 0 0 12.06 0A62.3 62.3 0 0 1 306.5 0a62.304 62.304 0 0 1 24.47 4.972 15.427 15.427 0 0 0 12.06 0A62.3 62.3 0 0 1 367.5 0z" fill="#fff"/><path d="M367.5 0v-3 3zM430 62.5h3-3zM367.5 125v3-3zm-24.47-4.973l-1.175 2.76 1.175-2.76zm-12.06 0l1.175 2.76-1.175-2.76zM306.5 125v3-3zm-24.47-4.973l-1.175 2.76 1.175-2.76zm-12.06 0l1.175 2.76-1.175-2.76zM245.5 125v3-3zm-24.47-4.973l-1.175 2.76 1.175-2.76zm-12.06 0l1.175 2.76-1.175-2.76zM184.5 125v3-3zm-24.47-4.973l-1.175 2.76 1.175-2.76zm-12.06 0l-1.176-2.76 1.176 2.76zM123.5 125v3-3zm-24.47-4.973l-1.175 2.76 1.175-2.76zm-12.06 0l1.175 2.76-1.175-2.76zM62.5 125v3-3zM0 62.5h-3 3zM62.5 0v-3 3zm24.47 4.972l1.175-2.76-1.175 2.76zm12.06 0l1.176 2.76-1.176-2.76zM123.5 0v-3 3zm24.47 4.972l-1.176 2.76 1.176-2.76zm12.06 0l-1.175-2.76 1.175 2.76zM184.5 0v-3 3zm24.47 4.972l-1.176 2.76 1.176-2.76zm12.06 0l-1.175-2.76 1.175 2.76zM245.5 0v-3 3zm24.47 4.972l-1.176 2.76 1.176-2.76zm12.06 0l1.176 2.76-1.176-2.76zM306.5 0v-3 3zm24.47 4.972l-1.176 2.76 1.176-2.76zm12.06 0l1.176 2.76-1.176-2.76zM367.5 0v3C400.361 3 427 29.64 427 62.5h6C433 26.325 403.675-3 367.5-3v3zM430 62.5h-3c0 32.86-26.639 59.5-59.5 59.5v6c36.175 0 65.5-29.325 65.5-65.5h-3zM367.5 125v-3c-8.273 0-16.144-1.687-23.294-4.733l-1.176 2.76-1.175 2.76A65.281 65.281 0 0 0 367.5 128v-3zm-24.47-4.973l1.176-2.76a18.432 18.432 0 0 0-14.412 0l1.176 2.76 1.175 2.76a12.434 12.434 0 0 1 9.71 0l1.175-2.76zm-12.06 0l-1.176-2.76c-7.15 3.046-15.021 4.733-23.294 4.733v6a65.281 65.281 0 0 0 25.645-5.213l-1.175-2.76zM306.5 125v-3c-8.273 0-16.144-1.687-23.294-4.733l-1.176 2.76-1.175 2.76A65.281 65.281 0 0 0 306.5 128v-3zm-24.47-4.973l1.176-2.76a18.432 18.432 0 0 0-14.412 0l1.176 2.76 1.175 2.76a12.434 12.434 0 0 1 9.71 0l1.175-2.76zm-12.06 0l-1.176-2.76c-7.15 3.046-15.021 4.733-23.294 4.733v6a65.281 65.281 0 0 0 25.645-5.213l-1.175-2.76zM245.5 125v-3c-8.273 0-16.144-1.687-23.294-4.733l-1.176 2.76-1.175 2.76A65.281 65.281 0 0 0 245.5 128v-3zm-24.47-4.973l1.176-2.76a18.432 18.432 0 0 0-14.412 0l1.176 2.76 1.175 2.76a12.434 12.434 0 0 1 9.71 0l1.175-2.76zm-12.06 0l-1.176-2.76c-7.15 3.046-15.021 4.733-23.294 4.733v6a65.281 65.281 0 0 0 25.645-5.213l-1.175-2.76zM184.5 125v-3c-8.273 0-16.144-1.687-23.294-4.733l-1.176 2.76-1.175 2.76A65.281 65.281 0 0 0 184.5 128v-3zm-24.47-4.973l1.176-2.76a18.432 18.432 0 0 0-14.412 0l1.176 2.76 1.175 2.76a12.434 12.434 0 0 1 9.71 0l1.175-2.76zm-12.06 0l-1.176-2.76c-7.15 3.046-15.021 4.733-23.294 4.733v6a65.281 65.281 0 0 0 25.645-5.213l-1.175-2.76zM123.5 125v-3c-8.273 0-16.144-1.687-23.294-4.733l-1.176 2.76-1.175 2.76A65.284 65.284 0 0 0 123.5 128v-3zm-24.47-4.973l1.176-2.76a18.431 18.431 0 0 0-14.412 0l1.176 2.76 1.175 2.76a12.432 12.432 0 0 1 9.71 0l1.175-2.76zm-12.06 0l-1.176-2.76A59.288 59.288 0 0 1 62.5 122v6a65.285 65.285 0 0 0 25.645-5.213l-1.175-2.76zM62.5 125v-3C29.64 122 3 95.36 3 62.5h-6C-3 98.674 26.325 128 62.5 128v-3zM0 62.5h3C3 29.64 29.64 3 62.5 3v-6C26.325-3-3 26.325-3 62.5h3zM62.5 0v3a59.3 59.3 0 0 1 23.294 4.732l1.176-2.76 1.175-2.76A65.3 65.3 0 0 0 62.5-3v3zm24.47 4.972l-1.176 2.76a18.43 18.43 0 0 0 14.412 0l-1.176-2.76-1.175-2.76a12.429 12.429 0 0 1-9.71 0l-1.175 2.76zm12.06 0l1.176 2.76C107.356 4.687 115.227 3 123.5 3v-6a65.302 65.302 0 0 0-25.645 5.212l1.175 2.76zM123.5 0v3c8.273 0 16.144 1.687 23.294 4.732l1.176-2.76 1.175-2.76A65.299 65.299 0 0 0 123.5-3v3zm24.47 4.972l-1.176 2.76a18.43 18.43 0 0 0 14.412 0l-1.176-2.76-1.175-2.76a12.43 12.43 0 0 1-9.71 0l-1.175 2.76zm12.06 0l1.176 2.76C168.356 4.687 176.227 3 184.5 3v-6a65.3 65.3 0 0 0-25.645 5.212l1.175 2.76zM184.5 0v3c8.273 0 16.144 1.687 23.294 4.732l1.176-2.76 1.175-2.76A65.299 65.299 0 0 0 184.5-3v3zm24.47 4.972l-1.176 2.76a18.43 18.43 0 0 0 14.412 0l-1.176-2.76-1.175-2.76a12.43 12.43 0 0 1-9.71 0l-1.175 2.76zm12.06 0l1.176 2.76C229.356 4.687 237.227 3 245.5 3v-6a65.299 65.299 0 0 0-25.645 5.212l1.175 2.76zM245.5 0v3c8.273 0 16.144 1.687 23.294 4.732l1.176-2.76 1.175-2.76A65.299 65.299 0 0 0 245.5-3v3zm24.47 4.972l-1.176 2.76a18.43 18.43 0 0 0 14.412 0l-1.176-2.76-1.175-2.76a12.43 12.43 0 0 1-9.71 0l-1.175 2.76zm12.06 0l1.176 2.76C290.356 4.687 298.227 3 306.5 3v-6a65.299 65.299 0 0 0-25.645 5.212l1.175 2.76zM306.5 0v3c8.273 0 16.144 1.687 23.294 4.732l1.176-2.76 1.175-2.76A65.299 65.299 0 0 0 306.5-3v3zm24.47 4.972l-1.176 2.76a18.43 18.43 0 0 0 14.412 0l-1.176-2.76-1.175-2.76a12.43 12.43 0 0 1-9.71 0l-1.175 2.76zm12.06 0l1.176 2.76C351.356 4.687 359.227 3 367.5 3v-6a65.299 65.299 0 0 0-25.645 5.212l1.175 2.76z" fill="#F4F6FA" mask="url(#a)"/></svg>