<svg xmlns="http://www.w3.org/2000/svg" width="322" height="125" viewBox="0 0 322 125" fill="none"><mask id="a" fill="#fff"><path d="M91.044 0c4.22 0 8.13 2.217 10.298 5.839l7.341 12.268c1.552 2.595 5.312 2.595 6.864 0l7.341-12.268A12.002 12.002 0 0 1 133.186 0h59.368a12 12 0 0 1 10.298 5.839l5.401 9.026c1.581 2.644 5.431 2.583 6.928-.11l4.775-8.586A12 12 0 0 1 230.443 0h78.786c7.573 0 13.252 6.928 11.767 14.354l-20.2 101A12 12 0 0 1 289.029 125h-58.84a12 12 0 0 1-10.298-5.839l-5.401-9.026c-1.581-2.643-5.432-2.582-6.928.11l-4.773 8.586A12 12 0 0 1 192.301 125H133.44c-4.356 0-8.37-2.361-10.487-6.169l-7.342-13.205c-1.524-2.742-5.468-2.742-6.992 0l-7.342 13.205A11.998 11.998 0 0 1 90.79 125H12.005c-7.573 0-13.253-6.928-11.768-14.354l20.2-101A12 12 0 0 1 32.204 0h58.84z"/></mask><path d="M91.044 0c4.22 0 8.13 2.217 10.298 5.839l7.341 12.268c1.552 2.595 5.312 2.595 6.864 0l7.341-12.268A12.002 12.002 0 0 1 133.186 0h59.368a12 12 0 0 1 10.298 5.839l5.401 9.026c1.581 2.644 5.431 2.583 6.928-.11l4.775-8.586A12 12 0 0 1 230.443 0h78.786c7.573 0 13.252 6.928 11.767 14.354l-20.2 101A12 12 0 0 1 289.029 125h-58.84a12 12 0 0 1-10.298-5.839l-5.401-9.026c-1.581-2.643-5.432-2.582-6.928.11l-4.773 8.586A12 12 0 0 1 192.301 125H133.44c-4.356 0-8.37-2.361-10.487-6.169l-7.342-13.205c-1.524-2.742-5.468-2.742-6.992 0l-7.342 13.205A11.998 11.998 0 0 1 90.79 125H12.005c-7.573 0-13.253-6.928-11.768-14.354l20.2-101A12 12 0 0 1 32.204 0h58.84z" fill="#fff"/><path d="M101.342 5.839l-2.575 1.54 2.575-1.54zm7.341 12.268l-2.575 1.54 2.575-1.54zm6.864 0l2.575 1.54-2.575-1.54zm7.341-12.268l2.575 1.54-2.575-1.54zm79.964 0l2.575-1.54-2.575 1.54zm5.401 9.026l2.574-1.54-2.574 1.54zm6.928-.11l-2.622-1.457 2.622 1.457zm4.775-8.586l2.622 1.458-2.622-1.458zM230.443 0v-3 3zm78.786 0v-3 3zm11.767 14.354l2.942.588-2.942-.588zm-20.2 101l2.941.588-2.941-.588zM289.029 125v3-3zm-58.84 0v3-3zm-10.298-5.839l2.575-1.54-2.575 1.54zm-5.401-9.026l-2.574 1.54 2.574-1.54zm-6.928.11l2.622 1.458-2.622-1.458zm-4.773 8.586l2.622 1.458-2.622-1.458zM192.301 125v3-3zm-58.861 0v3-3zm-10.487-6.169l-2.622 1.458 2.622-1.458zm-7.342-13.205l-2.622 1.458 2.622-1.458zm-6.992 0l-2.622-1.458 2.622 1.458zm-7.342 13.205l2.622 1.458-2.622-1.458zM90.79 125v3-3zM.237 110.646l-2.942-.588 2.942.588zm20.2-101l-2.942-.588 2.942.588zM32.204 0v-3 3zm58.84 0v3a9 9 0 0 1 7.723 4.38l2.575-1.541 2.574-1.54A15.001 15.001 0 0 0 91.044-3v3zm10.298 5.839l-2.575 1.54 7.341 12.269 2.575-1.54 2.574-1.541-7.341-12.269-2.574 1.54zm7.341 12.268l-2.575 1.54c2.717 4.542 9.297 4.542 12.014 0l-2.575-1.54-2.574-1.54a1 1 0 0 1-1.716 0l-2.574 1.54zm6.864 0l2.575 1.54 7.341-12.268-2.575-1.54-2.574-1.54-7.341 12.268 2.574 1.54zm7.341-12.268l2.575 1.54A9 9 0 0 1 133.186 3v-6a15.002 15.002 0 0 0-12.872 7.299l2.574 1.54zM133.186 0v3h59.368v-6h-59.368v3zm59.368 0v3a9 9 0 0 1 7.724 4.38l2.574-1.541 2.575-1.54A15.002 15.002 0 0 0 192.554-3v3zm10.298 5.839l-2.574 1.54 5.4 9.027 2.575-1.54 2.574-1.541-5.4-9.026-2.575 1.54zm5.401 9.026l-2.575 1.54c2.768 4.626 9.506 4.52 12.125-.192l-2.622-1.458-2.622-1.457a1 1 0 0 1-1.732.027l-2.574 1.54zm6.928-.11l2.622 1.458 4.775-8.586-2.622-1.458-2.622-1.458-4.775 8.587 2.622 1.457zm4.775-8.586l2.622 1.458A9 9 0 0 1 230.443 3v-6a14.999 14.999 0 0 0-13.109 7.711l2.622 1.458zM230.443 0v3h78.786v-6h-78.786v3zm78.786 0v3c5.679 0 9.939 5.196 8.825 10.765l2.942.588 2.942.589C325.794 5.66 318.695-3 309.229-3v3zm11.767 14.354l-2.942-.589-20.2 101 2.942.589 2.941.588 20.201-101-2.942-.588zm-20.2 101l-2.942-.589a9 9 0 0 1-8.825 7.235v6a15 15 0 0 0 14.708-12.058l-2.941-.588zM289.029 125v-3h-58.84v6h58.84v-3zm-58.84 0v-3a9 9 0 0 1-7.723-4.379l-2.575 1.54-2.574 1.54A15.002 15.002 0 0 0 230.189 128v-3zm-10.298-5.839l2.575-1.54-5.401-9.027-2.575 1.541-2.574 1.54 5.401 9.027 2.574-1.541zm-5.401-9.026l2.575-1.541c-2.768-4.625-9.506-4.518-12.125.194l2.622 1.457 2.622 1.458a1 1 0 0 1 1.732-.028l2.574-1.54zm-6.928.11l-2.622-1.457-4.773 8.585 2.622 1.458 2.622 1.458 4.773-8.586-2.622-1.458zm-4.773 8.586l-2.622-1.458a9 9 0 0 1-7.866 4.627v6a15.002 15.002 0 0 0 13.11-7.711l-2.622-1.458zM192.301 125v-3H133.44v6h58.861v-3zm-58.861 0v-3a9 9 0 0 1-7.865-4.627l-2.622 1.458-2.622 1.458A14.999 14.999 0 0 0 133.44 128v-3zm-10.487-6.169l2.622-1.458-7.342-13.205-2.622 1.458-2.622 1.458 7.342 13.205 2.622-1.458zm-7.342-13.205l2.622-1.458c-2.668-4.798-9.568-4.798-12.236 0l2.622 1.458 2.622 1.458a1 1 0 0 1 1.748 0l2.622-1.458zm-6.992 0l-2.622-1.458-7.342 13.205 2.622 1.458 2.622 1.458 7.342-13.205-2.622-1.458zm-7.342 13.205l-2.622-1.458A9 9 0 0 1 90.79 122v6a15 15 0 0 0 13.109-7.711l-2.622-1.458zM90.79 125v-3H12.005v6H90.79v-3zm-78.785 0v-3c-5.68 0-9.94-5.196-8.826-10.765l-2.942-.589-2.942-.588C-4.56 119.34 2.54 128 12.005 128v-3zM.237 110.646l2.942.589 20.2-101-2.942-.589-2.942-.588-20.2 101 2.942.588zm20.2-101l2.942.589A9 9 0 0 1 32.204 3v-6A15 15 0 0 0 17.495 9.058l2.942.588zM32.204 0v3h58.84v-6h-58.84v3z" fill="#F4F6FA" mask="url(#a)"/></svg>