<svg width="515" height="125" viewBox="0 0 515 125" fill="none" xmlns="http://www.w3.org/2000/svg"><path d="M12.023 1.5h444.745c3.02 0 5.894 1.301 7.887 3.57l46.12 52.497a10.5 10.5 0 0 1-.258 14.144l-45.858 48.503a10.498 10.498 0 0 1-7.63 3.286H13.169c-8.895 0-13.76-10.368-8.076-17.21l27.539-33.145a13.5 13.5 0 0 0 .302-16.876L3.71 18.417C-1.618 11.515 3.302 1.5 12.023 1.5z" fill="#fff" stroke="#F2F8E2" stroke-width="3"/><path d="M378.662 23.53C258.106 15.868 17.428 14.035 19.159 68.002c2.164 67.459 439.715 50.268 469.36-5.036 23.716-44.243-105.67-51.77-173.327-50.002" stroke="#A8E000" stroke-width="6" stroke-linecap="round" stroke-linejoin="round"/></svg>