<svg width="430" height="125" viewBox="0 0 430 125" fill="none" xmlns="http://www.w3.org/2000/svg"><path d="M367.5 1.5c33.689 0 61 27.31 61 61l-.005.788c-.422 33.326-27.569 60.212-60.995 60.212-10.812 0-20.963-2.813-29.767-7.744l-.733-.411-.733.411c-8.804 4.931-18.955 7.744-29.767 7.744-10.812 0-20.963-2.813-29.767-7.744l-.733-.411-.733.411c-8.804 4.931-18.955 7.744-29.767 7.744-10.812 0-20.963-2.813-29.767-7.744l-.733-.411-.733.411c-8.804 4.931-18.955 7.744-29.767 7.744-10.812 0-20.963-2.813-29.767-7.744l-.733-.411-.733.411c-8.804 4.931-18.955 7.744-29.767 7.744-10.812 0-20.963-2.813-29.767-7.744l-.733-.411-.733.411c-8.804 4.931-18.955 7.744-29.767 7.744-33.69 0-61-27.31-61-61 0-33.426 26.886-60.573 60.212-60.995L62.5 1.5c10.812 0 20.963 2.812 29.767 7.743l.733.411.733-.41a60.689 60.689 0 0 1 28.755-7.736L123.5 1.5c10.812 0 20.963 2.812 29.767 7.743l.733.411.733-.41a60.692 60.692 0 0 1 28.755-7.736L184.5 1.5c10.812 0 20.963 2.812 29.767 7.743l.733.411.733-.41a60.692 60.692 0 0 1 28.755-7.736L245.5 1.5c10.812 0 20.963 2.812 29.767 7.743l.733.411.733-.41a60.692 60.692 0 0 1 28.755-7.736L306.5 1.5c10.812 0 20.963 2.812 29.767 7.743l.733.411.733-.41a60.692 60.692 0 0 1 28.755-7.736L367.5 1.5z" fill="#fff"/><path d="M367.5 1.5c33.689 0 61 27.31 61 61l-.005.788c-.422 33.326-27.569 60.212-60.995 60.212-10.812 0-20.963-2.813-29.767-7.744l-.733-.411-.733.411c-8.804 4.931-18.955 7.744-29.767 7.744-10.812 0-20.963-2.813-29.767-7.744l-.733-.411-.733.411c-8.804 4.931-18.955 7.744-29.767 7.744-10.812 0-20.963-2.813-29.767-7.744l-.733-.411-.733.411c-8.804 4.931-18.955 7.744-29.767 7.744-10.812 0-20.963-2.813-29.767-7.744l-.733-.411-.733.411c-8.804 4.931-18.955 7.744-29.767 7.744-10.812 0-20.963-2.813-29.767-7.744l-.733-.411-.733.411c-8.804 4.931-18.955 7.744-29.767 7.744-33.69 0-61-27.31-61-61 0-33.426 26.886-60.573 60.212-60.995L62.5 1.5c10.812 0 20.963 2.812 29.767 7.743l.733.411.733-.41a60.689 60.689 0 0 1 28.755-7.736L123.5 1.5c10.812 0 20.963 2.812 29.767 7.743l.733.411.733-.41a60.692 60.692 0 0 1 28.755-7.736L184.5 1.5c10.812 0 20.963 2.812 29.767 7.743l.733.411.733-.41a60.692 60.692 0 0 1 28.755-7.736L245.5 1.5c10.812 0 20.963 2.812 29.767 7.743l.733.411.733-.41a60.692 60.692 0 0 1 28.755-7.736L306.5 1.5c10.812 0 20.963 2.812 29.767 7.743l.733.411.733-.41a60.692 60.692 0 0 1 28.755-7.736L367.5 1.5z" stroke="#F4F6FA" stroke-width="3"/><path d="M367.5 1.5c33.689 0 61 27.31 61 61l-.005.788c-.422 33.326-27.569 60.212-60.995 60.212-10.812 0-20.963-2.813-29.767-7.744l-.733-.411-.733.411c-8.804 4.931-18.955 7.744-29.767 7.744-10.812 0-20.963-2.813-29.767-7.744l-.733-.411-.733.411c-8.804 4.931-18.955 7.744-29.767 7.744-10.812 0-20.963-2.813-29.767-7.744l-.733-.411-.733.411c-8.804 4.931-18.955 7.744-29.767 7.744-10.812 0-20.963-2.813-29.767-7.744l-.733-.411-.733.411c-8.804 4.931-18.955 7.744-29.767 7.744-10.812 0-20.963-2.813-29.767-7.744l-.733-.411-.733.411c-8.804 4.931-18.955 7.744-29.767 7.744-33.69 0-61-27.31-61-61 0-33.426 26.886-60.573 60.212-60.995L62.5 1.5c10.812 0 20.963 2.812 29.767 7.743l.733.411.733-.41a60.689 60.689 0 0 1 28.755-7.736L123.5 1.5c10.812 0 20.963 2.812 29.767 7.743l.733.411.733-.41a60.692 60.692 0 0 1 28.755-7.736L184.5 1.5c10.812 0 20.963 2.812 29.767 7.743l.733.411.733-.41a60.692 60.692 0 0 1 28.755-7.736L245.5 1.5c10.812 0 20.963 2.812 29.767 7.743l.733.411.733-.41a60.692 60.692 0 0 1 28.755-7.736L306.5 1.5c10.812 0 20.963 2.812 29.767 7.743l.733.411.733-.41a60.692 60.692 0 0 1 28.755-7.736L367.5 1.5z" stroke="#DDE4FB" stroke-width="3"/><path d="M47 100.887c24.51.22 49.021.441 104.861-.197 55.841-.638 142.267-2.141 231.313-3.69" stroke="#2856F6" stroke-width="6" stroke-linecap="round"/></svg>