<svg width="322" height="125" viewBox="0 0 322 125" fill="none" xmlns="http://www.w3.org/2000/svg"><path d="M32.204 1.5h58.84c3.693 0 7.115 1.94 9.011 5.11l7.341 12.268c2.135 3.567 7.304 3.568 9.439 0l7.341-12.269a10.501 10.501 0 0 1 9.011-5.109h59.368c3.692 0 7.114 1.94 9.01 5.11l5.401 9.026c2.174 3.634 7.468 3.55 9.526-.152l4.775-8.587a10.5 10.5 0 0 1 8.82-5.391l.356-.006h78.786c6.626 0 11.596 6.062 10.296 12.56l-20.2 101a10.5 10.5 0 0 1-10.296 8.44h-58.84a10.5 10.5 0 0 1-9.01-5.109l-5.402-9.027c-2.175-3.634-7.468-3.549-9.526.153l-4.773 8.586a10.502 10.502 0 0 1-9.177 5.397H133.44a10.5 10.5 0 0 1-9.176-5.397l-7.342-13.207c-2.096-3.769-7.518-3.769-9.614 0l-7.342 13.207a10.5 10.5 0 0 1-9.176 5.397H12.005c-6.626 0-11.596-6.062-10.297-12.56l20.2-101a10.5 10.5 0 0 1 9.83-8.43l.466-.01z" fill="#fff" stroke="#E2D7F7" stroke-width="3"/><path d="M27.002 95.238c24.51.22-18.98.638 36.86 0 55.839-.638 142.266-2.142 231.312-3.691" stroke="#AB67FE" stroke-width="6" stroke-linecap="round"/></svg>