<svg id="Gmail_Icon" data-name="Gmail Icon" xmlns="http://www.w3.org/2000/svg" xmlns:xlink="http://www.w3.org/1999/xlink" viewBox="0 0 300.71 217.18"><defs><style>.cls-1{fill:url(#linear-gradient);}.cls-2{fill:none;}.cls-3{fill:#e14c41;}.cls-4{fill:#333;opacity:0.27;}.cls-5{fill:#4d4d4d;opacity:0.2;}</style><linearGradient id="linear-gradient" y1="108.59" x2="300.71" y2="108.59" gradientUnits="userSpaceOnUse"><stop offset="0" stop-color="#f2f2f2"/><stop offset="1" stop-color="#d7d7d7"/></linearGradient></defs><title>gmail</title><rect class="cls-1" width="300.71" height="217.18" rx="19.49" ry="19.49"/><g id="Body"><polygon class="cls-2" points="262.36 0 38.35 0 150.35 81.85 262.36 0"/><polygon class="cls-2" points="150.35 129.1 33.41 43.64 33.41 217.18 267.3 217.18 267.3 43.64 150.35 129.1"/><path class="cls-3" d="M538.2,191.38H519.34l-112,81.85-112-81.85H276.47A19.49,19.49,0,0,0,257,210.87v178.2a19.49,19.49,0,0,0,19.49,19.49h13.92V235l116.94,85.46L524.27,235V408.56H538.2a19.49,19.49,0,0,0,19.49-19.49V210.87A19.49,19.49,0,0,0,538.2,191.38Z" transform="translate(-256.98 -191.38)"/></g><g id="Shadow"><path class="cls-2" d="M407.33,323.35,557.69,213.47v-2.6a19.49,19.49,0,0,0-19.49-19.49H276.47A19.49,19.49,0,0,0,257,210.87v178.2a19.49,19.49,0,0,0,19.49,19.49H523.93Z" transform="translate(-256.98 -191.38)"/><path class="cls-4" d="M523.93,408.56H538.2a19.49,19.49,0,0,0,19.49-19.49V210.87L407.33,320.48Z" transform="translate(-256.98 -191.38)"/></g><g id="Left_Stroke" data-name="Left Stroke"><polygon class="cls-5" points="33.41 214.29 150.35 129.1 147.33 126.89 33.41 209.15 33.41 214.29"/></g></svg>