<svg id="Слой_1" data-name="Слой 1" xmlns="http://www.w3.org/2000/svg" xmlns:xlink="http://www.w3.org/1999/xlink" viewBox="0 0 152 153.55"><defs><style>.cls-1{fill:url(#New_Gradient_Swatch_2);}.cls-2{opacity:0.25;fill:url(#Безымянный_градиент_6);}.cls-3{fill:#fff;}.cls-4{fill:url(#Безымянный_градиент_6-2);}</style><linearGradient id="New_Gradient_Swatch_2" x1="100" y1="176.77" x2="100" y2="23.23" gradientUnits="userSpaceOnUse"><stop offset="0.11" stop-color="#006dff"/><stop offset="0.95" stop-color="#00c6ff"/></linearGradient><linearGradient id="Безымянный_градиент_6" x1="113" y1="163" x2="113" y2="70.5" gradientUnits="userSpaceOnUse"><stop offset="0"/><stop offset="1"/></linearGradient><linearGradient id="Безымянный_градиент_6-2" x1="155" y1="98" x2="155" y2="98" xlink:href="#Безымянный_градиент_6"/></defs><title>messenger-facebook</title><path id="Bubble_Shape" data-name="Bubble Shape" class="cls-1" d="M100,23.23C58,23.23,24,55,24,94.29c0,22.33,11,42.25,28.23,55.28v27.2l25.94-14.39a80.91,80.91,0,0,0,21.83,3c42,0,76-31.82,76-71.07S142,23.23,100,23.23Z" transform="translate(-24 -23.23)"/><path id="Bubble_Shape-2" data-name="Bubble Shape" class="cls-2" d="M50,115c8,5.36,19.89,13.52,34,24,21.67,16.09,26.81,21.48,32.56,23.26,1.23.38,2.09,1,3.29.65A78.5,78.5,0,0,0,166,130s7.32-12.35,9-24c.39-2.71,1-11.68,1-11.71h0v-.05h0S176,93,176,93c-9.55-9.4-18.08-15.72-26-22a5.91,5.91,0,0,1-.51-.5,19.57,19.57,0,0,0-3.25,1.95q-2.55,2.27-5.1,4.6L139,79h0c-14.07,15-17.73,23.89-23.95,23.38-1.32-.11-3.08-1.73-7.05-4.38C95.09,89.4,94.49,87.59,91.2,87.13,86,86.41,82.75,90.34,72,99,66.94,103.07,59.55,108.73,50,115Z" transform="translate(-24 -23.23)"/><polygon id="_Контур_" data-name="&lt;Контур&gt;" class="cls-3" points="84 91.3 64.35 70.88 26.49 91.81 68 47.77 87.65 68.19 125.51 47.26 84 91.3"/><path class="cls-4" d="M155,98" transform="translate(-24 -23.23)"/></svg>